<svg width="134" height="40" viewBox="0 0 134 40" fill="none" xmlns="http://www.w3.org/2000/svg">
<g opacity="0.7" clip-path="url(#clip0_8_3885)">
<path fill-rule="evenodd" clip-rule="evenodd" d="M83.2287 31.2813C75.5153 36.9667 64.3352 40.0001 54.7093 40.0001C41.2123 40.0001 29.0615 35.008 19.869 26.7053C19.1467 26.0524 19.7938 25.1626 20.6605 25.671C30.5811 31.4431 42.8474 34.9156 55.5182 34.9156C64.0636 34.9156 73.4642 33.1475 82.1078 29.4786C83.4136 28.9239 84.5056 30.3337 83.2287 31.2813Z" fill="#afafaf"/>
<path fill-rule="evenodd" clip-rule="evenodd" d="M86.4357 27.612C85.4535 26.3525 79.9184 27.0169 77.4339 27.3116C76.677 27.404 76.5614 26.7454 77.2432 26.2716C81.6517 23.1689 88.8855 24.0644 89.7291 25.1045C90.5727 26.1502 89.5095 33.4014 85.3668 36.8624C84.7313 37.3939 84.1246 37.1108 84.4077 36.4059C85.338 34.0832 87.4238 28.8774 86.4357 27.612Z" fill="#afafaf"/>
<path fill-rule="evenodd" clip-rule="evenodd" d="M77.6063 4.36806V1.35203C77.6063 0.895581 77.953 0.589355 78.369 0.589355H91.8718C92.3052 0.589355 92.6518 0.901359 92.6518 1.35203V3.93472C92.6461 4.36806 92.2821 4.93429 91.6349 5.82985L84.638 15.8197C87.238 15.7562 89.9825 16.1433 92.3398 17.4722C92.8714 17.7726 93.0158 18.2118 93.0563 18.6451V21.8634C93.0563 22.3025 92.5709 22.8167 92.0625 22.5509C87.9082 20.3727 82.3904 20.1358 77.797 22.574C77.329 22.8283 76.8379 22.3198 76.8379 21.8807V18.8242C76.8379 18.3331 76.8437 17.4953 77.3348 16.75L85.4411 5.12496H78.3863C77.953 5.12496 77.6063 4.81873 77.6063 4.36806Z" fill="#afafaf"/>
<path fill-rule="evenodd" clip-rule="evenodd" d="M28.3506 23.1864H24.2426C23.8497 23.1575 23.5377 22.8628 23.5088 22.4873V1.40394C23.5088 0.98216 23.8612 0.647043 24.3004 0.647043H28.1311C28.5297 0.664365 28.8475 0.970601 28.8764 1.35194V4.10797H28.9515C29.9511 1.44438 31.8289 0.202148 34.3596 0.202148C36.9307 0.202148 38.5369 1.44438 39.6925 4.10797C40.6863 1.44438 42.9454 0.202148 45.3663 0.202148C47.0881 0.202148 48.9717 0.912822 50.1215 2.50751C51.4215 4.2813 51.1557 6.85821 51.1557 9.11735L51.15 22.4237C51.15 22.8455 50.7975 23.1864 50.3584 23.1864H46.2561C45.8459 23.1575 45.5166 22.8282 45.5166 22.4237V11.2494C45.5166 10.3596 45.5975 8.1409 45.401 7.29733C45.0948 5.88177 44.1761 5.48309 42.9859 5.48309C41.9921 5.48309 40.9521 6.14754 40.5303 7.21067C40.1085 8.27379 40.149 10.0534 40.149 11.2494V22.4237C40.149 22.8455 39.7965 23.1864 39.3574 23.1864H35.2551C34.8391 23.1575 34.5156 22.8282 34.5156 22.4237L34.5098 11.2494C34.5098 8.89779 34.8969 5.43687 31.9791 5.43687C29.0266 5.43687 29.1422 8.81112 29.1422 11.2494V22.4237C29.1422 22.8455 28.7897 23.1864 28.3506 23.1864" fill="#afafaf"/>
<path fill-rule="evenodd" clip-rule="evenodd" d="M104.278 0.202148C110.373 0.202148 113.673 5.43687 113.673 12.0929C113.673 18.5237 110.027 23.6255 104.278 23.6255C98.2919 23.6255 95.0332 18.3908 95.0332 11.8676C95.0332 5.30398 98.3323 0.202148 104.278 0.202148ZM104.312 4.50664C101.285 4.50664 101.094 8.63201 101.094 11.2032C101.094 13.7801 101.054 19.2806 104.278 19.2806C107.461 19.2806 107.612 14.8432 107.612 12.1392C107.612 10.3596 107.536 8.23334 106.999 6.54621C106.537 5.07865 105.618 4.50664 104.312 4.50664Z" fill="#afafaf"/>
<path fill-rule="evenodd" clip-rule="evenodd" d="M121.576 23.1864H117.486C117.075 23.1575 116.746 22.8282 116.746 22.4237L116.74 1.3346C116.775 0.947489 117.116 0.647043 117.532 0.647043H121.339C121.698 0.664365 121.992 0.907046 122.073 1.23638V4.46041H122.148C123.298 1.57727 124.91 0.202148 127.747 0.202148C129.59 0.202148 131.387 0.866601 132.543 2.68662C133.617 4.37375 133.617 7.21067 133.617 9.25024V22.5219C133.571 22.8917 133.23 23.1864 132.826 23.1864H128.706C128.331 23.1575 128.019 22.8802 127.978 22.5219V11.0703C127.978 8.7649 128.244 5.39065 125.407 5.39065C124.407 5.39065 123.489 6.06088 123.032 7.07777C122.455 8.36623 122.379 9.64891 122.379 11.0703V22.4237C122.374 22.8455 122.015 23.1864 121.576 23.1864" fill="#afafaf"/>
<path fill-rule="evenodd" clip-rule="evenodd" d="M66.8428 13.1157C66.8428 14.7162 66.8833 16.0508 66.0744 17.4722C65.4215 18.6278 64.3815 19.3384 63.2317 19.3384C61.6544 19.3384 60.7299 18.1366 60.7299 16.3628C60.7299 12.8615 63.8673 12.2259 66.8428 12.2259V13.1157ZM70.9856 23.1287C70.714 23.3714 70.3211 23.3887 70.0149 23.2269C68.6513 22.0945 68.4029 21.5687 67.6575 20.4882C65.4042 22.7878 63.8037 23.4754 60.8859 23.4754C57.425 23.4754 54.7383 21.3433 54.7383 17.0735C54.7383 13.7397 56.541 11.469 59.1179 10.3597C61.3481 9.37743 64.4624 9.2041 66.8428 8.93254V8.40098C66.8428 7.42452 66.918 6.26895 66.3402 5.42539C65.8433 4.66849 64.8842 4.35649 64.0348 4.35649C62.469 4.35649 61.0766 5.15961 60.7357 6.82363C60.6663 7.19341 60.3948 7.55741 60.0192 7.57475L56.0383 7.14718C55.7032 7.07208 55.3276 6.80051 55.4258 6.28629C56.3387 1.45602 60.7068 0 64.6126 0C66.6117 0 69.2233 0.531562 70.8007 2.04535C72.7998 3.9116 72.6091 6.40184 72.6091 9.11165V15.5135C72.6091 17.4375 73.4065 18.2811 74.1576 19.3211C74.4176 19.6909 74.4754 20.1358 74.1402 20.4131C73.3025 21.1122 71.8118 22.4122 70.9913 23.1402L70.9855 23.1287" fill="#afafaf"/>
<path fill-rule="evenodd" clip-rule="evenodd" d="M12.9874 13.1157C12.9874 14.7162 13.0278 16.0508 12.2189 17.4722C11.566 18.6278 10.5318 19.3384 9.37623 19.3384C7.79888 19.3384 6.88021 18.1366 6.88021 16.3628C6.88021 12.8615 10.0176 12.2259 12.9874 12.2259V13.1157ZM17.1301 23.1287C16.8585 23.3714 16.4656 23.3887 16.1594 23.2269C14.7958 22.0945 14.5532 21.5687 13.8021 20.4882C11.5487 22.7878 9.95402 23.4754 7.03043 23.4754C3.57528 23.4754 0.882812 21.3433 0.882812 17.0735C0.882812 13.7397 2.69127 11.469 5.26241 10.3597C7.49266 9.37743 10.6069 9.2041 12.9874 8.93254V8.40098C12.9874 7.42452 13.0625 6.26895 12.4905 5.42539C11.9878 4.66849 11.0287 4.35649 10.1851 4.35649C8.61934 4.35649 7.2211 5.15961 6.88021 6.82363C6.81087 7.19341 6.53931 7.55741 6.16953 7.57475L2.18283 7.14718C1.84771 7.07208 1.47793 6.80051 1.57037 6.28629C2.48905 1.45602 6.85132 0 10.7571 0C12.7563 0 15.3678 0.531562 16.9452 2.04535C18.9443 3.9116 18.7537 6.40184 18.7537 9.11165V15.5135C18.7537 17.4375 19.551 18.2811 20.3021 19.3211C20.5679 19.6909 20.6257 20.1358 20.2906 20.4131C19.4528 21.1122 17.9621 22.4122 17.1416 23.1402L17.1301 23.1287" fill="#afafaf"/>
</g>
<defs>
<clipPath id="clip0_8_3885">
<rect width="132.734" height="40" fill="#afafaf" transform="translate(0.882812)"/>
</clipPath>
</defs>
</svg>
