<svg width="107" height="28" viewBox="0 0 107 28" fill="none" xmlns="http://www.w3.org/2000/svg">
<path opacity="0.7" d="M91.4811 18.4151C91.8962 20.3396 92.9906 21.0189 95.2547 21.0189C97.2547 21.0189 98.3491 20.3019 98.3491 19.1698C98.3491 17.5472 96.8773 17.434 93.8207 16.6415C90.2358 15.6981 87.934 14.9057 86.8773 14.1509C84.8773 12.7547 83.934 10.7547 83.934 8.22641C83.934 3.24528 87.8585 0 94.6887 0C101.33 0 105.217 2.90566 105.67 8.11321H97.8585C97.5943 6.56604 96.5377 5.84906 94.5377 5.84906C92.8019 5.84906 91.934 6.41509 91.934 7.58491C91.934 8.9434 93.2547 9.20755 95.7453 9.84906C98.9528 10.6792 101.481 11.1698 103.104 12.3019C105.368 13.8113 106.387 15.6604 106.387 18.3019C106.387 23.8868 102.387 27.1698 94.9151 27.1698C88.0094 27.1698 83.9717 23.9245 83.4434 18.4151H91.4811ZM61.1415 16.4528C60.6887 23.2075 56.2358 27.1698 48.8396 27.1698C40.6132 27.1698 35.6321 21.9623 35.6321 13.5849C35.6321 5.16981 40.6887 0 48.6887 0C56.1604 0 60.5377 3.77358 61.0283 10.4528H53.1792C52.9528 7.84906 51.4811 6.45283 48.8019 6.45283C45.5566 6.45283 43.9717 8.83019 43.9717 13.5849C43.9717 18.2641 45.7075 20.6792 49.066 20.6792C51.5566 20.6792 53.1415 19.1698 53.4057 16.4151H61.1415V16.4528ZM59.3679 0.754717H67.783L72.1226 17.3585L76.7641 0.754717H84.8773L76.2358 26.4906H68.0094L59.3679 0.754717ZM9.17924 0.037736C8.19811 0.037736 7.21698 0.415094 6.5 1.16981L1.10377 6.56604C-0.367924 8.03773 -0.367924 10.4528 1.10377 11.9623L16.3491 27.1698L31.5566 11.9245C33.0283 10.4528 33.0283 8.03773 31.5566 6.5283L26.1604 1.16981C25.4057 0.415094 24.4245 0.037736 23.4811 0.037736C22.5 0.037736 21.5189 0.415094 20.7642 1.16981L16.3491 5.62264L11.8962 1.16981C11.1415 0.415094 10.1604 0.037736 9.17924 0.037736Z" fill="#afafaf"/>
</svg>
