<svg width="108" height="28" viewBox="0 0 108 28" fill="none" xmlns="http://www.w3.org/2000/svg">
<path d="M14.3198 17.2557C14.3198 18.9264 14.3198 20.462 14.3198 21.9958C14.3198 23.7127 14.2924 25.4314 14.3318 27.1483C14.3472 27.8272 14.1109 28.0032 13.4894 27.9996C9.52372 27.9765 5.55978 27.9943 1.59414 27.9819C0.530808 27.9783 0.00513685 27.4344 0.00513685 26.3485C-0.00171228 18.1177 -0.00171228 9.88507 0.00513685 1.65425C0.00513685 0.552306 0.518822 0.00666499 1.57873 0.00666499C9.53742 -0.00222166 17.4961 -0.00222166 25.4548 0.00666499C26.5027 0.00844232 26.9856 0.504318 26.9856 1.57605C26.9924 9.8673 26.9924 18.1585 26.9856 26.448C26.9839 27.4718 26.5096 27.9676 25.5062 27.9783C23.5096 27.9996 21.5131 27.9765 19.5166 27.9943C19.0046 27.9996 18.8094 27.8112 18.8111 27.2709C18.8266 24.1624 18.8283 21.052 18.8111 17.9435C18.8077 17.3836 19.0269 17.2272 19.5269 17.2503C20.2101 17.2823 20.8967 17.2272 21.5799 17.2663C22.1176 17.2965 22.3624 17.0797 22.4206 16.5341C22.5285 15.5334 22.6467 14.5346 22.7939 13.5393C22.8761 12.9812 22.6672 12.7803 22.1518 12.7892C21.3248 12.8017 20.496 12.7555 19.6707 12.7999C18.9841 12.8372 18.7581 12.5493 18.806 11.865C18.854 11.1879 18.8026 10.5018 18.8368 9.82286C18.8865 8.824 19.3026 8.37967 20.27 8.3068C20.9224 8.25704 21.5816 8.26237 22.2374 8.27125C22.7631 8.27836 23.0353 8.07753 23.0234 7.49634C23.0045 6.60767 23.0508 5.71723 22.9908 4.8339C22.9754 4.6064 22.6723 4.21716 22.4908 4.21183C21.0731 4.1674 19.6296 4.0341 18.2375 4.24382C15.9191 4.59218 14.4157 6.71964 14.325 9.46207C14.2976 10.2601 14.2736 11.0634 14.3284 11.8597C14.3815 12.6239 14.0767 12.8497 13.3883 12.8017C12.736 12.7572 12.0767 12.7999 11.4209 12.7963C10.962 12.7946 10.7446 13.0149 10.748 13.4984C10.7566 14.5346 10.7583 15.5708 10.7497 16.6069C10.7446 17.1117 10.9894 17.2699 11.4449 17.261C12.3541 17.2432 13.2633 17.2557 14.3198 17.2557Z" fill="#afafaf"/>
<path d="M69.776 5.73657C69.776 7.25974 69.7965 8.61763 69.7674 9.97373C69.752 10.6847 69.954 10.8642 70.6749 10.7629C71.6783 10.6207 72.7245 10.5674 73.7228 10.7042C75.1389 10.8979 75.8803 11.8381 75.9231 13.3151C75.9693 14.8827 75.9745 16.4539 75.9214 18.0197C75.8614 19.7331 74.7553 21.0732 73.0293 21.2065C71.228 21.3469 69.4027 21.1745 67.5877 21.1478C66.9935 21.1389 66.8257 20.8048 66.8274 20.2378C66.8377 18.1957 66.8223 16.1535 66.8206 14.1114C66.8188 11.744 66.8394 9.37477 66.8069 7.00736C66.7983 6.35686 67.0397 6.10448 67.627 6.04583C68.3017 5.97829 68.9695 5.85565 69.776 5.73657ZM69.8051 16.15C69.8051 16.5641 69.8051 16.9782 69.8051 17.3923C69.8068 18.9439 69.8068 18.9439 71.3204 18.8888C71.377 18.887 71.4352 18.887 71.4917 18.8835C72.4232 18.816 72.918 18.3414 72.9523 17.3834C72.9882 16.3792 72.9916 15.3697 72.9488 14.3655C72.9095 13.4395 72.3735 13.0378 71.3564 13.0769C70.1955 13.1232 69.8188 13.4555 69.8068 14.4615C69.7999 15.0249 69.8051 15.5883 69.8051 16.15Z" fill="#afafaf"/>
<path d="M107.131 21.274C106.064 21.274 105.184 21.322 104.314 21.2456C104.052 21.2225 103.745 20.9043 103.583 20.6413C102.862 19.47 102.187 18.265 101.489 17.0777C101.365 16.868 101.203 16.6832 101.059 16.4859C100.968 16.5054 100.879 16.5232 100.788 16.5427C100.788 17.3799 100.788 18.217 100.788 19.0523C100.788 21.3522 100.788 21.3309 98.5606 21.2953C97.9562 21.2847 97.7815 21.0749 97.7849 20.4671C97.8038 15.9651 97.8021 11.4631 97.7832 6.96293C97.7815 6.41196 97.9527 6.14003 98.4784 6.07427C99.2061 5.98362 99.9321 5.86454 100.811 5.73657C100.811 8.95354 100.811 12.0656 100.811 15.1778C100.888 15.2026 100.965 15.2275 101.042 15.2524C101.191 15.0676 101.362 14.8969 101.487 14.6961C102.18 13.5746 102.828 12.4211 103.571 11.3369C103.792 11.0152 104.259 10.754 104.643 10.7042C105.391 10.6065 106.16 10.6758 107.129 10.6758C106.28 12.0852 105.61 13.3898 104.761 14.5504C104.052 15.519 104.11 16.2548 104.762 17.2128C105.598 18.4356 106.271 19.781 107.131 21.274Z" fill="#afafaf"/>
<path d="M87.5042 15.912C87.5042 15.3503 87.4803 14.7869 87.5094 14.227C87.5916 12.5386 88.5556 11.154 90.1497 10.8501C91.326 10.6262 92.5846 10.6226 93.7746 10.7826C95.3585 10.9976 96.3653 12.112 96.5125 13.7472C96.6512 15.2917 96.641 16.8806 96.4577 18.4198C96.266 20.0247 95.1787 20.9987 93.653 21.2208C92.6274 21.3701 91.5486 21.3701 90.5213 21.2262C88.7165 20.9738 87.5642 19.5039 87.5025 17.5969C87.4837 17.0352 87.4991 16.4736 87.4991 15.912C87.5008 15.912 87.5025 15.912 87.5042 15.912ZM93.6736 15.9919C93.6684 15.9919 93.665 15.9919 93.6599 15.9919C93.6599 15.4889 93.701 14.9824 93.6513 14.4848C93.5554 13.5286 92.9784 13.0576 92.0075 13.0771C91.0504 13.0967 90.5161 13.6032 90.4768 14.595C90.4442 15.4516 90.4545 16.3101 90.4699 17.1667C90.4905 18.3238 90.9699 18.8499 91.9887 18.8748C93.076 18.9014 93.6136 18.3842 93.6702 17.2307C93.689 16.8202 93.6736 16.4043 93.6736 15.9919Z" fill="#afafaf"/>
<path d="M86.3504 16.0115C86.3504 16.2781 86.3538 16.5447 86.3504 16.8095C86.3093 19.8683 84.9394 21.3346 82.0029 21.4004C81.3265 21.4164 80.6296 21.3506 79.9704 21.1995C78.491 20.8601 77.479 19.8754 77.3112 18.3256C77.1451 16.7847 77.1503 15.1975 77.3027 13.6548C77.4482 12.1867 78.3454 11.1043 79.7872 10.8501C80.9173 10.6493 82.1176 10.5729 83.2477 10.74C85.0987 11.0119 85.9959 12.1209 86.251 14.0689C86.3349 14.7105 86.3452 15.3628 86.3897 16.0115C86.3743 16.0097 86.3623 16.0115 86.3504 16.0115ZM83.3333 16.0009C83.3316 16.0009 83.3316 16.0009 83.3299 16.0009C83.3299 15.5565 83.347 15.1122 83.3265 14.6696C83.2802 13.6139 82.7614 13.0931 81.77 13.0771C80.7255 13.0611 80.1776 13.573 80.1313 14.6732C80.0971 15.4996 80.104 16.3314 80.1262 17.1579C80.157 18.3505 80.6673 18.8784 81.734 18.8766C82.8042 18.8748 83.3076 18.3363 83.3333 17.1543C83.3402 16.7704 83.3333 16.3865 83.3333 16.0009Z" fill="#afafaf"/>
<path d="M62.565 16.8253C61.8801 16.8253 61.1934 16.7844 60.5137 16.843C60.1935 16.8697 59.6113 17.1274 59.6233 17.2074C59.6901 17.6748 59.8082 18.1974 60.0873 18.5475C60.2774 18.7874 60.7585 18.8674 61.1078 18.8639C62.1575 18.8532 63.2122 18.807 64.2567 18.6915C64.945 18.615 65.2378 18.7643 65.2276 19.5535C65.2087 21.0908 65.2498 21.1584 63.7036 21.2668C62.3783 21.3592 61.0256 21.4019 59.7123 21.2366C58.125 21.0375 56.9641 20.0173 56.7912 18.3395C56.6182 16.6546 56.6782 14.9217 56.8237 13.2279C56.9333 11.9714 57.8151 11.1023 58.9829 10.8783C60.137 10.6579 61.3664 10.5691 62.5239 10.7255C64.291 10.9654 65.2276 12.0851 65.4467 13.9158C65.5409 14.7031 65.5152 15.5136 65.457 16.3063C65.4433 16.4911 65.0855 16.779 64.8697 16.7968C64.1043 16.8572 63.3321 16.8199 62.5633 16.8199C62.565 16.8235 62.565 16.8235 62.565 16.8253ZM59.5942 14.2428C59.5736 14.9324 60.089 14.9519 60.476 14.8453C61.1455 14.6605 62.1814 15.4958 62.4571 14.2392C62.6403 13.4039 61.9537 12.7836 61.0428 12.7765C60.137 12.7676 59.5753 13.3381 59.5942 14.2428Z" fill="#afafaf"/>
<path d="M46.2195 17.1381C46.2195 18.2631 46.2041 19.39 46.2264 20.515C46.2384 21.0784 46.038 21.3628 45.4798 21.2917C44.8137 21.2064 44.0449 21.5938 43.5158 20.81C43.4696 20.7407 43.1117 20.9202 42.8943 20.9487C41.8344 21.0855 40.7539 21.4072 39.7197 21.2935C38.3105 21.1388 37.5263 19.7774 37.605 18.1209C37.6804 16.5427 38.3653 15.7144 39.8772 15.5047C40.6375 15.3998 41.4149 15.4425 42.182 15.3803C42.5826 15.3483 43.1682 15.6007 43.1871 14.8027C43.2025 14.1148 43.1785 13.4146 42.3446 13.3115C41.5279 13.212 40.6957 13.2297 39.8704 13.2191C38.6564 13.2048 38.6444 13.212 38.8122 11.9856C38.992 10.6668 38.6872 10.665 40.2488 10.6917C41.3601 10.7095 42.4765 10.7112 43.5792 10.8339C45.3 11.0258 46.1031 11.9447 46.1836 13.7611C46.2332 14.8844 46.1921 16.0112 46.1921 17.1363C46.199 17.1381 46.2093 17.1381 46.2195 17.1381ZM42.1323 17.3851C40.9936 17.3869 40.6084 17.6233 40.6409 18.3253C40.6717 19.0096 41.0741 19.3651 41.6923 19.31C42.7933 19.2104 43.2179 18.8496 43.2111 18.1796C43.2008 17.2767 42.6683 17.3851 42.1323 17.3851Z" fill="#afafaf"/>
<path d="M35.2013 21.2808C34.3571 21.2808 33.6722 21.2471 32.9924 21.2915C32.3726 21.3324 32.2116 21.0516 32.2185 20.4579C32.2408 18.3856 32.2031 16.3097 32.2408 14.2373C32.2544 13.5033 32.0866 13.0945 31.3041 13.1673C30.7785 13.2171 30.5952 12.915 30.6261 12.4049C30.6415 12.14 30.6466 11.8699 30.6226 11.6051C30.5627 10.9492 30.7528 10.576 31.4702 10.6702C32.0901 10.7519 32.251 10.384 32.2356 9.80818C32.2202 9.24832 32.2339 8.68136 32.3007 8.12505C32.5113 6.39749 33.3469 5.5657 35.0198 5.3773C35.2184 5.35419 35.4187 5.35953 35.6191 5.35597C37.8296 5.32753 37.9307 5.45906 37.4906 7.8549C36.5711 8.08417 35.2064 7.44789 35.1568 9.40651C35.0986 11.6548 36.8108 10.2027 37.5899 10.935C37.5334 11.4913 37.4803 12.1596 37.3827 12.8208C37.3656 12.9398 37.1704 13.0785 37.0334 13.1211C36.8485 13.178 36.6379 13.1549 36.4393 13.1584C35.1996 13.1816 35.1979 13.1798 35.1979 14.5057C35.1979 16.4021 35.2013 18.2967 35.2013 20.1931C35.2013 20.513 35.2013 20.8312 35.2013 21.2808Z" fill="#afafaf"/>
<path d="M55.3841 13.2584C54.3122 13.1819 53.3808 13.0717 52.4476 13.0611C50.9528 13.0433 50.5624 13.4468 50.523 14.9859C50.5024 15.8142 50.499 16.646 50.5624 17.4706C50.6377 18.4464 51.0521 18.8623 51.9938 18.8641C53.0691 18.8658 54.1462 18.7699 55.379 18.7094C55.379 19.383 55.415 20.0495 55.3533 20.7072C55.3379 20.8742 55.0177 21.1337 54.8328 21.139C53.3345 21.1888 51.8106 21.3719 50.3449 21.1497C48.9734 20.9418 47.9237 19.9074 47.7731 18.4091C47.6121 16.8095 47.6087 15.1654 47.7679 13.5641C47.9083 12.1582 48.874 11.2713 50.1754 10.8483C51.7524 10.3346 53.3397 10.507 54.9115 10.8661C55.1016 10.9087 55.3345 11.2464 55.3602 11.4704C55.4269 12.0249 55.3841 12.5883 55.3841 13.2584Z" fill="#afafaf"/>
</svg>
