<svg width="98" height="32" viewBox="0 0 98 32" fill="none" xmlns="http://www.w3.org/2000/svg">
<path d="M20.9927 3.36888C20.1832 4.18989 19.4173 4.96577 18.6223 5.77092C17.5142 4.78156 16.2398 4.0313 14.753 3.6641C9.73175 2.42343 4.78581 5.61599 3.8306 10.7251C2.86933 15.8683 6.32482 20.7346 11.4395 21.3616C13.6242 21.6288 15.7094 21.2665 17.5822 19.9953C19.393 18.7668 20.3701 17.0528 20.6225 14.8008C17.9523 14.8008 15.3003 14.8008 12.5998 14.8008C12.5998 13.6334 12.5998 12.5513 12.5998 11.4229C12.777 11.4082 12.9506 11.3814 13.1253 11.3814C16.5432 11.3789 19.9611 11.3899 23.3777 11.368C23.8753 11.3643 24.0319 11.5229 24.0756 12.0109C24.2285 13.731 24.1424 15.4316 23.6326 17.0797C22.3072 21.3592 19.3287 23.7917 15.0236 24.6262C9.44774 25.707 3.78691 22.8878 1.26964 17.8373C-2.29387 10.686 1.98088 1.95132 9.88711 0.308071C13.8147 -0.508063 17.3965 0.275132 20.5 2.9236C20.6687 3.06877 20.8289 3.22126 20.9927 3.36888Z" fill="#afafaf"/>
<path d="M60.6657 27.2896C61.7193 26.8492 62.6866 26.4466 63.694 26.0258C63.8129 26.2368 63.9173 26.4296 64.0278 26.6174C65.1347 28.4912 67.1143 29.2696 69.1922 28.651C70.8319 28.1619 71.7738 26.887 71.9643 24.8327C72.0165 24.2703 71.9728 23.6993 71.9728 23.0857C71.8842 23.1211 71.8029 23.1309 71.7556 23.1772C69.8391 25.0169 67.5998 25.2279 65.2209 24.3801C61.7181 23.1321 59.6644 19.615 60.105 15.7649C60.5104 12.221 63.4379 9.28099 67.0269 8.88573C68.7516 8.69542 70.3137 9.15534 71.6184 10.357C71.7034 10.435 71.7956 10.5046 71.9631 10.6412C71.9886 10.1679 72.0092 9.77872 72.0311 9.36516C73.1283 9.36516 74.1879 9.36516 75.3203 9.36516C75.3203 9.61769 75.3203 9.83484 75.3203 10.0532C75.3203 14.5243 75.3397 18.9965 75.3057 23.4676C75.2984 24.496 75.228 25.5524 74.9865 26.5467C73.8845 31.1043 70.1292 32.2474 66.9881 31.9583C64.2912 31.7106 62.3116 30.3004 60.9825 27.9471C60.8745 27.7556 60.7908 27.5507 60.6657 27.2896ZM72.2496 16.653C72.2216 16.4395 72.2034 16.0284 72.11 15.6368C71.673 13.8204 70.6754 12.487 68.7734 12.1015C66.9929 11.7404 65.551 12.4126 64.4866 13.8569C63.2571 15.5246 63.2304 17.9815 64.3737 19.7065C66.0341 22.211 69.5296 22.3562 71.2749 19.9883C71.9607 19.0563 72.235 17.9901 72.2496 16.653Z" fill="#afafaf"/>
<path d="M33.4757 24.8315C28.9715 24.8241 25.5039 21.3498 25.5039 16.8434C25.5051 12.3052 28.9897 8.83329 33.5303 8.84549C38.0284 8.85769 41.5118 12.3443 41.5166 16.8385C41.5239 21.3461 38.0102 24.8388 33.4757 24.8315ZM29.0189 16.8153C29.0092 19.3833 30.7509 21.4706 33.0545 21.6535C35.3521 21.8353 37.2856 20.4165 37.8487 18.1328C38.4447 15.7198 37.3365 13.2726 35.2368 12.3662C32.2122 11.0597 29.031 13.3361 29.0189 16.8153Z" fill="#afafaf"/>
<path d="M50.7627 24.8314C46.2355 24.8278 42.7472 21.3266 42.7618 16.8006C42.7763 12.3149 46.2767 8.8418 50.7821 8.84546C55.3117 8.8479 58.7866 12.3418 58.7769 16.8811C58.7672 21.3681 55.2729 24.8351 50.7627 24.8314ZM55.2607 16.8458C55.262 14.2046 53.428 12.1149 51.02 12.0124C48.8134 11.9185 46.9212 13.3799 46.4187 15.5648C45.8592 17.9962 46.9285 20.3714 49.0003 21.2985C52.0249 22.6526 55.2595 20.3518 55.2607 16.8458Z" fill="#afafaf"/>
<path d="M86.4053 19.2454C87.3557 21.9366 91.8064 22.8979 94.1671 19.4967C95.047 20.0847 95.9282 20.6739 96.8507 21.29C95.6005 23.0589 94.0093 24.1898 91.9678 24.6497C88.5087 25.4304 84.9913 23.8848 83.3006 20.8557C81.588 17.7876 82.0856 13.6484 84.416 11.1451C87.352 7.99032 93.6088 7.46941 96.3834 13.3251C96.6067 13.7972 96.7803 14.2937 97.0012 14.8402C93.4376 16.3224 89.9203 17.7851 86.4053 19.2454ZM92.832 13.652C92.2931 12.2698 90.4798 11.6025 88.8279 12.1271C86.9054 12.7383 85.4428 14.8854 85.8688 16.5494C88.1955 15.5819 90.5138 14.617 92.832 13.652Z" fill="#afafaf"/>
<path d="M77.4287 0.933105C78.5635 0.933105 79.6316 0.933105 80.7604 0.933105C80.7604 8.71383 80.7604 16.4787 80.7604 24.2936C79.6717 24.2936 78.5733 24.2936 77.4287 24.2936C77.4287 16.5287 77.4287 8.76018 77.4287 0.933105Z" fill="#afafaf"/>
</svg>
