<svg width="131" height="28" viewBox="0 0 131 28" fill="none" xmlns="http://www.w3.org/2000/svg">
<path d="M0.0669451 0.0102603C0.288516 0.0102603 0.441195 0.0102603 0.593873 0.0102603C4.64359 0.0102603 8.69237 0.016777 12.7421 1.96137e-05C13.1778 -0.00184232 13.2904 0.128493 13.2895 0.54836C13.2765 4.58225 13.2755 8.61614 13.2904 12.65C13.2923 13.095 13.161 13.2347 12.7114 13.2328C8.67747 13.2179 4.64359 13.2188 0.6097 13.2319C0.19635 13.2328 0.0557735 13.1304 0.0576354 12.6882C0.0743928 8.63941 0.0669451 4.58969 0.0669451 0.539981C0.0669451 0.387303 0.0669451 0.234624 0.0669451 0.0102603Z" fill="#afafaf"/>
<path d="M21.3157 13.19C19.3141 13.19 17.3125 13.1789 15.311 13.1993C14.8771 13.204 14.7589 13.0616 14.7608 12.6398C14.7738 8.60594 14.7738 4.57112 14.7608 0.537235C14.7589 0.122954 14.8911 0.0140306 15.2942 0.0158925C19.3439 0.0289261 23.3936 0.0289261 27.4434 0.0158925C27.8353 0.0149615 27.9414 0.13878 27.9396 0.520478C27.9275 4.57019 27.9265 8.6199 27.9405 12.6696C27.9424 13.0802 27.8213 13.2012 27.4136 13.1984C25.3813 13.1807 23.349 13.19 21.3157 13.19Z" fill="#afafaf"/>
<path d="M0.00932791 14.7644C0.230898 14.7644 0.383577 14.7644 0.536256 14.7644C4.58597 14.7644 8.63475 14.7709 12.6845 14.7542C13.1202 14.7523 13.2328 14.8826 13.2319 15.3025C13.2188 19.3364 13.2179 23.3703 13.2328 27.4042C13.2347 27.8492 13.1034 27.9888 12.6537 27.987C8.61986 27.9721 4.58597 27.973 0.552083 27.986C0.138733 27.987 -0.00184372 27.8846 1.82181e-05 27.4423C0.0177066 23.3926 0.0102589 19.3438 0.0102589 15.2941C0.00932791 15.1424 0.00932791 14.9888 0.00932791 14.7644Z" fill="#afafaf"/>
<path d="M21.2591 27.9447C19.2575 27.9447 17.2559 27.9335 15.2543 27.954C14.8205 27.9586 14.7023 27.8162 14.7041 27.3945C14.7172 23.3606 14.7172 19.3258 14.7041 15.2919C14.7023 14.8776 14.8345 14.7687 15.2376 14.7705C19.2873 14.7836 23.337 14.7836 27.3867 14.7705C27.7786 14.7696 27.8848 14.8934 27.8829 15.2751C27.8708 19.3248 27.8699 23.3745 27.8838 27.4243C27.8857 27.8348 27.7647 27.9558 27.3569 27.953C25.3246 27.9354 23.2914 27.9447 21.2591 27.9447Z" fill="#afafaf"/>
<path d="M51.4763 9.23916C51.2966 9.67858 51.1132 10.1171 50.9382 10.5583C49.4496 14.3148 47.9572 18.0703 46.4807 21.8314C46.3485 22.1694 46.1903 22.3081 45.8095 22.3025C44.4317 22.282 44.4335 22.2969 43.9178 21.0234C42.3947 17.2632 40.8707 13.5039 39.3449 9.74467C39.2825 9.59106 39.2071 9.44211 39.0404 9.29315C39.0311 9.46352 39.0134 9.63296 39.0134 9.80333C39.0116 13.7599 39.0125 17.7166 39.0125 21.6722C39.0125 22.2913 39.0125 22.2913 38.372 22.2923C37.8441 22.2923 37.3163 22.2792 36.7893 22.2969C36.4896 22.3072 36.3723 22.2103 36.3807 21.9003C36.3983 21.2338 36.3862 20.5663 36.3862 19.8988C36.3862 15.3221 36.3928 10.7445 36.376 6.16789C36.3741 5.71823 36.498 5.58417 36.9476 5.59814C37.9866 5.62979 39.0265 5.61955 40.0654 5.60186C40.3764 5.59628 40.5253 5.69403 40.6408 5.9938C42.107 9.80891 43.5891 13.6175 45.0685 17.428C45.1429 17.6207 45.2267 17.8106 45.3068 18.0014C45.3496 18.0024 45.3915 18.0033 45.4343 18.0042C45.5181 17.8143 45.6066 17.6253 45.6848 17.4335C47.2339 13.6501 48.7867 9.86849 50.3201 6.07852C50.4662 5.7173 50.6422 5.5879 51.0313 5.59907C52.0237 5.627 53.0171 5.61955 54.0095 5.60279C54.3409 5.59721 54.474 5.67727 54.4731 6.04035C54.4629 11.3152 54.4638 16.591 54.4712 21.8659C54.4712 22.1833 54.3865 22.3109 54.0514 22.2997C53.4164 22.2783 52.7787 22.2737 52.1438 22.3006C51.7621 22.3174 51.6327 22.201 51.6383 21.8072C51.6588 20.3028 51.6467 18.7974 51.6467 17.292C51.6467 14.7942 51.6467 12.2965 51.6467 9.79774C51.6467 9.61992 51.6467 9.44304 51.6467 9.26522C51.5899 9.25685 51.5331 9.24754 51.4763 9.23916Z" fill="#afafaf"/>
<path d="M124.197 6.83438C123.835 6.76828 123.522 6.68356 123.204 6.65656C121.597 6.52343 121.162 7.4935 121.056 8.57156C121.01 9.04822 121.051 9.53232 121.042 10.0136C121.037 10.2818 121.17 10.359 121.417 10.3572C122.611 10.3516 123.806 10.3488 125.001 10.3581C125.287 10.36 125.384 10.2408 125.381 9.96895C125.372 9.3331 125.389 8.69631 125.375 8.06046C125.369 7.77372 125.439 7.6108 125.749 7.52702C126.519 7.31848 127.279 7.06898 128.109 6.81576C128.109 7.8482 128.134 8.8071 128.099 9.76413C128.082 10.2305 128.211 10.3972 128.692 10.3655C129.325 10.3236 129.964 10.3674 130.6 10.3506C130.91 10.3423 131.008 10.4586 130.997 10.7593C130.979 11.2397 130.974 11.722 130.998 12.2014C131.016 12.544 130.87 12.6231 130.559 12.6157C129.861 12.5989 129.162 12.6176 128.464 12.6073C128.209 12.6036 128.106 12.6883 128.107 12.9536C128.115 14.8463 128.085 16.7399 128.122 18.6316C128.149 19.9703 129.158 20.6257 130.428 20.1947C130.6 20.137 130.768 20.0709 130.991 19.9899C130.991 20.6835 131.007 21.3175 130.977 21.9487C130.971 22.0687 130.811 22.2484 130.686 22.2866C129.601 22.6255 128.5 22.712 127.399 22.3555C126.169 21.958 125.406 20.8436 125.389 19.3634C125.367 17.3003 125.368 15.2364 125.387 13.1733C125.392 12.7246 125.263 12.5868 124.812 12.5999C123.726 12.6306 122.64 12.6287 121.554 12.6008C121.138 12.5896 121.028 12.7255 121.031 13.1296C121.046 15.9839 121.04 18.8392 121.039 21.6936C121.039 22.2912 121.038 22.2912 120.422 22.2922C119.879 22.2922 119.334 22.2689 118.793 22.2996C118.401 22.322 118.293 22.1823 118.295 21.7997C118.309 18.9919 118.304 16.1832 118.302 13.3754C118.301 12.4844 118.352 12.6222 117.521 12.611C117.211 12.6073 116.895 12.6408 116.592 12.5952C116.47 12.5766 116.288 12.396 116.28 12.2796C116.246 11.7545 116.274 11.2258 116.261 10.6979C116.254 10.427 116.374 10.346 116.625 10.3534C117.028 10.3646 117.433 10.3339 117.834 10.3627C118.219 10.3907 118.305 10.2231 118.309 9.87306C118.317 9.11618 118.278 8.34348 118.412 7.60522C118.747 5.76283 120.397 4.42596 122.281 4.40175C122.805 4.39524 123.331 4.43992 123.852 4.50137C123.976 4.51626 124.174 4.6857 124.179 4.7909C124.211 5.46678 124.197 6.14639 124.197 6.83438Z" fill="#afafaf"/>
<path d="M92.9811 16.2686C92.9737 17.7852 92.6516 19.2002 91.6918 20.4049C90.2115 22.264 88.1894 22.7118 85.9486 22.5331C84.9953 22.4568 84.0923 22.1961 83.2767 21.6831C81.8309 20.7726 81.0573 19.4199 80.8097 17.7656C80.5937 16.3226 80.6868 14.8889 81.2677 13.5306C82.1307 11.5132 83.7106 10.4528 85.8583 10.1577C86.8693 10.019 87.8664 10.0497 88.8514 10.2871C90.9563 10.7936 92.4915 12.4851 92.8229 14.6552C92.9048 15.1887 92.9299 15.7305 92.9811 16.2686ZM90.1594 16.5023C90.0942 15.8888 90.0737 15.4391 89.9955 14.9988C89.7162 13.4115 88.7033 12.4675 87.0872 12.3744C85.6051 12.2896 84.3585 12.9264 83.8493 14.5417C83.4545 15.7919 83.4508 17.0785 83.8874 18.3298C84.3567 19.675 85.4533 20.3397 87.0676 20.3155C88.4306 20.295 89.4332 19.5847 89.8373 18.2562C90.0235 17.6436 90.0737 16.9882 90.1594 16.5023Z" fill="#afafaf"/>
<path d="M103.69 16.4817C103.632 15.0694 103.906 13.739 104.707 12.5502C105.64 11.1649 106.979 10.4359 108.596 10.1753C109.677 10.0012 110.761 10.0235 111.822 10.301C113.679 10.7851 114.927 11.9665 115.51 13.7763C116.081 15.5507 116.075 17.3549 115.357 19.0958C114.529 21.1058 112.964 22.1838 110.83 22.4911C109.724 22.6503 108.636 22.5963 107.566 22.2918C105.346 21.6616 103.781 19.6618 103.69 17.3661C103.68 17.071 103.69 16.7758 103.69 16.4817ZM113.063 16.504C112.998 15.8616 112.981 15.3961 112.899 14.9418C112.625 13.4206 111.597 12.4701 110.035 12.3751C108.584 12.2876 107.368 12.8732 106.823 14.3814C106.345 15.7015 106.343 17.0626 106.819 18.3883C107.296 19.7112 108.417 20.3536 110.041 20.3163C111.362 20.2865 112.367 19.5538 112.753 18.2458C112.935 17.6305 112.983 16.9769 113.063 16.504Z" fill="#afafaf"/>
<path d="M101.67 12.9798C100.915 12.7359 100.229 12.437 99.511 12.3085C99.0167 12.2201 98.4507 12.276 97.9675 12.4286C97.0495 12.7191 96.8792 13.9461 97.6705 14.5028C98.1323 14.8277 98.6815 15.0307 99.1898 15.2904C99.768 15.5856 100.383 15.8257 100.915 16.1888C102.809 17.4847 102.827 20.2618 100.965 21.6154C99.7456 22.5017 98.3399 22.6795 96.8932 22.5352C96.1763 22.4635 95.4744 22.2448 94.7659 22.0893C94.4838 22.0269 94.3721 21.8631 94.3814 21.5577C94.4037 20.8344 94.3888 20.111 94.3888 19.3495C94.9558 19.6101 95.4595 19.8727 95.9864 20.0775C96.8233 20.4024 97.6882 20.529 98.5801 20.3167C98.9925 20.219 99.3518 20.0393 99.4831 19.6073C99.6339 19.113 99.5706 18.6056 99.1526 18.2947C98.6629 17.9297 98.096 17.6663 97.5569 17.3684C96.8959 17.0025 96.1689 16.7251 95.5768 16.2707C94.0909 15.1331 93.9904 12.7982 95.2937 11.4455C96.1102 10.5984 97.138 10.2018 98.2738 10.091C99.2811 9.99229 100.281 10.1105 101.258 10.3917C101.553 10.4764 101.691 10.6105 101.678 10.9437C101.651 11.6215 101.67 12.303 101.67 12.9798Z" fill="#afafaf"/>
<path d="M71.3394 13.232C68.7578 11.9938 67.0113 12.1391 65.7769 13.6454C64.6355 15.0363 64.5787 17.5769 65.6642 18.9985C66.3438 19.8885 67.286 20.2543 68.3705 20.3148C69.4542 20.3754 70.3786 19.9145 71.3366 19.3457C71.3366 20.1612 71.3441 20.9144 71.3273 21.6666C71.3254 21.7588 71.2081 21.8891 71.1132 21.9329C68.6834 23.0519 64.5759 23.0016 62.767 19.6511C61.3929 17.1077 61.958 12.7619 64.8152 11.0219C66.7674 9.83307 68.8547 9.7828 70.9763 10.5462C71.1225 10.5983 71.3199 10.7799 71.3254 10.9083C71.3562 11.6615 71.3394 12.4174 71.3394 13.232Z" fill="#afafaf"/>
<path d="M76.3437 12.1996C76.7123 11.7117 76.9525 11.304 77.2784 10.9818C78.0297 10.2399 78.982 10.0863 79.9921 10.1877C80.3059 10.2194 80.4772 10.3516 80.4595 10.7258C80.425 11.4511 80.4492 12.1791 80.4492 12.949C80.0797 12.8568 79.7613 12.7581 79.4354 12.6986C78.1619 12.4639 77.1006 13.0235 76.6537 14.2328C76.4703 14.7309 76.3651 15.2848 76.3567 15.8154C76.3232 17.8161 76.3353 19.8177 76.3502 21.8183C76.353 22.1805 76.2599 22.3173 75.8801 22.2987C75.2917 22.2689 74.7005 22.2652 74.1121 22.2996C73.6923 22.3238 73.588 22.1702 73.5899 21.7699C73.6038 18.6214 73.5973 15.4719 73.5973 12.3234C73.5973 11.8113 73.6094 11.2993 73.5936 10.7882C73.5843 10.4782 73.6764 10.3385 74.0153 10.3497C74.6661 10.3711 75.3187 10.3655 75.9694 10.3516C76.2524 10.3451 76.3567 10.4493 76.3465 10.7314C76.3325 11.1867 76.3437 11.6428 76.3437 12.1996Z" fill="#afafaf"/>
<path d="M59.9697 16.3245C59.9697 18.1538 59.9632 19.9841 59.9763 21.8135C59.9791 22.1626 59.9009 22.3199 59.5117 22.2994C58.8935 22.2678 58.2717 22.2799 57.6516 22.2957C57.3593 22.3032 57.2383 22.2194 57.2383 21.9038C57.2467 18.1827 57.2467 14.4607 57.2383 10.7396C57.2374 10.4203 57.3649 10.3439 57.6535 10.3505C58.2893 10.3654 58.9252 10.3709 59.5601 10.3486C59.9027 10.3365 59.9763 10.4808 59.9744 10.789C59.9651 12.6341 59.9697 14.4793 59.9697 16.3245Z" fill="#afafaf"/>
<path d="M58.6321 8.42354C57.7048 8.42447 56.9666 7.72996 56.961 6.84927C56.9545 5.9574 57.7132 5.23311 58.6526 5.23683C59.5658 5.23962 60.3162 5.94809 60.3311 6.82134C60.346 7.70483 59.5854 8.42167 58.6321 8.42354Z" fill="#afafaf"/>
</svg>
