<svg width="88" height="24" viewBox="0 0 88 24" fill="none" xmlns="http://www.w3.org/2000/svg">
<path d="M8.37148 13.1908C8.37148 9.97239 8.37148 6.75537 8.37148 3.53699C8.37148 2.54662 8.38343 1.5549 8.36351 0.565875C8.35555 0.164591 8.48432 -0.00159687 8.89453 0.00921212C9.73486 0.029479 10.5765 0.0348835 11.4169 0.00650987C11.8828 -0.00835248 12.0275 0.168645 12.0262 0.634782C12.0129 5.38533 12.0182 10.1345 12.0182 14.8851C12.0182 17.2036 11.9983 19.5235 12.0262 21.842C12.0328 22.3987 11.8576 22.5811 11.3226 22.6135C10.4185 22.6662 9.51316 22.7635 8.61973 22.9162C8.15243 22.9959 7.95728 22.8878 7.80329 22.4284C6.60054 18.8533 5.37124 15.2877 4.14857 11.7207C4.05166 11.4357 3.93484 11.1587 3.82598 10.8776C3.76757 10.8871 3.70916 10.8952 3.65074 10.9047C3.65074 11.4316 3.65074 11.9585 3.65074 12.4855C3.6534 15.9079 3.6388 19.3303 3.67331 22.7513C3.67995 23.3674 3.46356 23.5796 2.90865 23.635C1.98866 23.7282 1.07133 23.8646 0.0624032 23.9944C0.0411625 23.6539 0.00797404 23.3728 0.00797404 23.0918C0.00531896 15.616 0.0119567 8.14162 8.79416e-06 0.667209C-0.00131875 0.168645 0.147366 -0.0151081 0.642538 0.00515875C1.41517 0.0362346 2.19178 0.0308301 2.96441 0.00650987C3.36134 -0.00565024 3.54985 0.149729 3.68261 0.529395C5.09776 4.55304 6.52885 8.57128 7.95596 12.5895C8.03428 12.8098 8.12456 13.0259 8.20952 13.2435C8.26395 13.2259 8.31838 13.2083 8.37148 13.1908Z" fill="#afafaf"/>
<path d="M87.9998 24.0002C86.6099 23.8151 85.3434 23.6652 84.0849 23.4571C83.9176 23.4301 83.741 23.1355 83.6601 22.9288C82.9087 21.0075 82.1785 19.0767 81.4391 17.15C81.3621 16.9487 81.2692 16.7542 81.1271 16.4272C80.9718 16.7353 80.8656 16.919 80.7833 17.1122C80.0624 18.8038 79.327 20.49 78.6366 22.1938C78.4508 22.6545 78.2185 22.7923 77.7419 22.7248C76.7197 22.5802 75.6882 22.4937 74.5664 22.3721C74.6792 22.0546 74.7536 21.8074 74.8532 21.5709C76.2165 18.3485 77.5733 15.1247 78.9606 11.9131C79.1584 11.4564 79.1438 11.0835 78.9712 10.6363C77.71 7.37197 76.4688 4.09955 75.2235 0.829834C75.1373 0.604197 75.0642 0.373155 74.9434 0.0245648C76.2365 0.0245648 77.4405 0.00564911 78.642 0.0475339C78.796 0.0529384 78.9977 0.346132 79.0774 0.547449C79.7332 2.21744 80.3638 3.89823 81.0063 5.57363C81.0833 5.77359 81.1829 5.9641 81.3329 6.29242C82.156 4.36167 82.9472 2.58359 83.6654 0.774438C83.903 0.173188 84.207 -0.0308312 84.8323 0.00429799C85.8412 0.0610451 86.8568 0.0191603 87.9932 0.0191603C87.7914 0.535289 87.64 0.947382 87.4688 1.35137C86.1386 4.49003 84.7924 7.62193 83.4915 10.7727C83.3481 11.12 83.3322 11.6199 83.4623 11.9685C84.8628 15.7314 86.3058 19.4794 87.7356 23.2315C87.8126 23.4395 87.879 23.6517 87.9998 24.0002Z" fill="#afafaf"/>
<path d="M15.6846 0.0138892C16.9271 0.0138892 18.1166 0.0138892 19.3061 0.0138892C21.2748 0.0138892 23.2436 0.0314538 25.2123 0.00172906C25.7686 -0.00637768 25.9385 0.17062 25.9119 0.732687C25.8681 1.69198 25.9 2.65533 25.9 3.70651C25.0743 3.70651 24.3295 3.70651 23.5834 3.70651C22.3448 3.70516 21.1062 3.71597 19.8676 3.69435C19.4362 3.68624 19.2822 3.84162 19.2902 4.28074C19.3114 5.60889 19.3141 6.93704 19.2981 8.2652C19.2928 8.70972 19.4561 8.84888 19.8836 8.84348C21.3186 8.82321 22.7537 8.83537 24.2472 8.83537C24.2472 10.0325 24.2472 11.189 24.2472 12.428C24.0268 12.4388 23.7945 12.4577 23.5622 12.4604C22.3674 12.4699 21.1726 12.4969 19.9792 12.4739C19.4707 12.4645 19.2729 12.6104 19.2862 13.159C19.3207 14.6222 19.3234 16.0855 19.2928 17.5488C19.2822 18.0852 19.476 18.1973 19.9553 18.1568C21.5855 18.0163 23.2184 17.9041 24.8512 17.792C25.1738 17.769 25.4991 17.7893 25.8641 17.7893C25.8641 18.9958 25.8641 20.1537 25.8641 21.367C22.463 21.6251 19.1003 21.8791 15.6872 22.1385C15.6846 14.7519 15.6846 7.42885 15.6846 0.0138892Z" fill="#afafaf"/>
<path d="M50.8559 12.3103C49.1367 12.3103 47.5463 12.3103 45.8603 12.3103C45.8603 15.153 45.8603 17.9525 45.8603 20.8561C44.6695 20.8561 43.573 20.8737 42.4791 20.8277C42.3689 20.8237 42.187 20.4346 42.1844 20.2211C42.1618 18.1052 42.1698 15.9894 42.1711 13.8722C42.1724 9.50397 42.1844 5.13714 42.1631 0.768958C42.1605 0.187975 42.2906 -0.00658646 42.8946 0.00016916C45.8139 0.0339472 48.7344 0.0177338 51.6537 0.0190849C51.8927 0.0190849 52.1316 0.0190849 52.4237 0.0190849C52.4237 1.26212 52.4237 2.43895 52.4237 3.70495C51.4347 3.70495 50.4682 3.70495 49.5018 3.70495C48.4623 3.70495 47.4228 3.71711 46.3834 3.7009C45.9891 3.69414 45.8285 3.82925 45.8324 4.2454C45.847 5.52896 45.8457 6.81253 45.8245 8.09475C45.8178 8.53792 46.0276 8.61628 46.3966 8.61223C47.6578 8.59737 48.919 8.62169 50.1788 8.59196C50.6806 8.5798 50.8944 8.70545 50.8691 9.26752C50.824 10.2511 50.8559 11.2361 50.8559 12.3103Z" fill="#afafaf"/>
<path d="M32.1953 21.0075C32.1953 19.2456 32.1953 17.5162 32.1953 15.7867C32.1953 12.0063 32.182 8.2272 32.2086 4.44676C32.2126 3.84416 32.0294 3.66446 31.4545 3.68743C30.4443 3.72796 29.43 3.69824 28.3268 3.69824C28.3268 2.53627 28.3136 1.44186 28.3468 0.348803C28.3507 0.232607 28.6322 0.0285873 28.7862 0.0272362C32.2789 0.00832043 35.7717 0.00696931 39.2645 0.0326406C39.4251 0.0339918 39.7132 0.316376 39.7225 0.479862C39.7689 1.37701 39.7304 2.27956 39.753 3.17806C39.7636 3.61041 39.5698 3.70905 39.1914 3.70229C38.3524 3.68473 37.5094 3.73607 36.6718 3.68473C36.0425 3.64554 35.8434 3.83605 35.846 4.5008C35.8739 9.44997 35.8606 14.4005 35.8646 19.3496C35.866 20.9291 35.8713 20.9386 34.334 20.9994C33.6543 21.0304 32.9732 21.0075 32.1953 21.0075Z" fill="#afafaf"/>
<path d="M58.5528 17.5161C59.2962 17.5634 59.9547 17.6066 60.6131 17.6472C61.8942 17.7242 63.1753 17.7877 64.4537 17.8931C64.6196 17.9066 64.8984 18.139 64.9037 18.2795C64.9422 19.3307 64.925 20.3845 64.925 21.533C61.5729 21.3654 58.2926 21.2033 54.9512 21.0358C54.9512 14.0815 54.9512 7.1165 54.9512 0.0771484C56.1101 0.0771484 57.2863 0.0771484 58.5541 0.0771484C58.5528 5.85995 58.5528 11.6536 58.5528 17.5161Z" fill="#afafaf"/>
<path d="M68.0393 21.7938C68.0393 21.4844 68.0393 21.2426 68.0393 21.0007C68.0393 14.2708 68.0473 7.54085 68.0274 0.81091C68.026 0.205607 68.1641 -0.0362437 68.7934 0.00834341C69.5421 0.0623883 70.2975 0.0529305 71.0475 0.00969453C71.5905 -0.0213813 71.714 0.197501 71.7113 0.709576C71.6954 4.96291 71.7033 9.2176 71.7047 13.4709C71.7047 16.0137 71.706 18.5579 71.706 21.1007C71.706 21.3885 71.706 21.6777 71.706 22.083C70.4608 21.9857 69.2885 21.8925 68.0393 21.7938Z" fill="#afafaf"/>
</svg>
