<svg width="93" height="26" viewBox="0 0 93 26" fill="none" xmlns="http://www.w3.org/2000/svg">
<path d="M16.5699 4.07697C16.2673 3.4699 15.7886 2.96921 15.1944 2.59324C14.5745 2.21359 13.8427 1.94766 13.0064 1.78993C12.1554 1.63587 11.1723 1.56618 10.0334 1.55518L4.77525 1.55885C4.2287 1.56618 3.69317 1.99167 3.56479 2.51987L0.0269448 17.9294C-0.101437 18.4502 0.241526 18.8867 0.788067 18.8867H3.30619C3.85273 18.8867 4.39377 18.4631 4.51481 17.9294L5.37864 14.188C5.49418 13.6671 6.03339 13.2324 6.58543 13.2324H7.30621C10.3855 13.2288 12.7698 12.5997 14.4828 11.3397C16.2049 10.0779 17.0541 8.41077 17.0541 6.34566C17.0522 5.44148 16.9037 4.68219 16.5699 4.07697ZM11.1393 9.11138C10.3782 9.66892 9.31997 9.94769 7.95545 9.94769H7.33922C6.79084 9.94769 6.45522 9.51486 6.57443 8.98666L7.33188 5.71475C7.43826 5.19022 7.9903 4.75556 8.53134 4.75922L9.35665 4.75372C10.3195 4.75372 11.055 4.92062 11.5465 5.24341C12.0325 5.56253 12.2764 6.07056 12.2728 6.74364C12.2874 7.76703 11.8968 8.55383 11.1393 9.11138Z" fill="#afafaf"/>
<path d="M88.3533 2.76205L88.1956 2.80973L87.9847 2.83908L87.7261 2.79873L87.594 2.67035L87.5335 2.4686L87.5298 2.16599V1.0454H88.3716V0.698762H87.5298V0H87.1135V0.698762H86.8311V1.0454H87.1135V2.34939L87.3079 2.99497L87.8801 3.20038L88.1204 3.1802L88.3753 3.13069V2.76205H88.3533Z" fill="#afafaf"/>
<path d="M92.2584 0.876741L91.6569 0.62915L91.213 0.719017L90.7619 1.02346L90.4996 0.731856L90.0741 0.630983L89.6651 0.72085L89.2781 0.970278V0.69884H88.8691V3.14727H89.2763V1.31874L89.6193 1.10599L89.9604 1.02163L90.2392 1.07115L90.3767 1.21237L90.4372 1.44713L90.4574 1.74974V3.1491H90.8664V1.58284L90.8591 1.45263L90.8517 1.33342L91.2002 1.1115L91.545 1.0253L91.8146 1.07482L91.9613 1.21604L92.0127 1.45263L92.0402 1.75158V3.15094H92.451V1.56084L92.2584 0.876741Z" fill="#afafaf"/>
<path d="M28.7127 6.27938C27.7627 5.74384 26.2624 5.47607 24.212 5.47607C23.1978 5.47607 22.1872 5.55494 21.1657 5.71266C20.4119 5.82821 20.3385 5.85021 19.8745 5.95109C18.9172 6.16016 18.7668 7.11569 18.7668 7.11569L18.4586 8.38301C18.2844 9.19181 18.7503 9.16064 18.9447 9.09278C19.3628 8.96807 19.5957 8.83968 20.4504 8.64894C21.2665 8.46371 22.1267 8.32432 22.809 8.33349C23.8158 8.33349 24.5861 8.43986 25.0997 8.65628C25.6059 8.87636 25.859 9.25417 25.859 9.80071L25.8149 10.1565L25.4518 10.3803C24.0231 10.4701 22.9905 10.6022 21.7379 10.7838C20.5128 10.9543 19.438 11.2533 18.5448 11.6623C17.5856 12.0841 16.874 12.6508 16.377 13.3716C15.8965 14.096 15.6562 14.9745 15.6562 16.0052C15.6562 16.9754 16.0047 17.7769 16.6815 18.3968C17.3619 19.0057 18.2606 19.3028 19.3353 19.3028C20.0157 19.2991 20.5421 19.246 20.9162 19.1561L22.1359 18.7361L23.1684 18.1639L24.1185 17.5366L24.1313 17.555L24.0359 17.9585L24.0304 17.975V17.9786C23.9277 18.4702 24.2248 18.8737 24.7035 18.9213L24.7127 18.9323H24.7567H26.6879H27.0511L27.0841 18.9177C27.5866 18.859 28.058 18.4555 28.168 17.975L30.0039 10.0281L30.0992 9.38072L30.1432 8.77366C30.1506 7.64756 29.6646 6.81308 28.7127 6.27938ZM24.6522 15.2148L24.2597 15.732L23.2693 16.2437C22.8035 16.4326 22.3615 16.5279 21.9525 16.5279C21.3326 16.5279 20.8466 16.4381 20.5183 16.2547L20.0322 15.3101C20.0322 14.7984 20.1496 14.3931 20.4009 14.0813L21.4683 13.3551C21.925 13.201 22.4825 13.0708 23.1281 12.9809C23.704 12.9094 24.8411 12.7792 24.9896 12.7755L25.1639 13.0818C25.129 13.256 24.8062 14.6059 24.6522 15.2148Z" fill="#afafaf"/>
<path d="M74.45 6.29074C73.4945 5.7552 71.9961 5.4856 69.9511 5.4856C68.9369 5.4856 67.9245 5.56446 66.9066 5.72769C66.151 5.83773 66.0758 5.86157 65.61 5.96061C64.6545 6.16786 64.5059 7.12705 64.5059 7.12705L64.1978 8.39253C64.0254 9.20134 64.4802 9.16466 64.693 9.1023C65.113 8.97759 65.3386 8.85471 66.1859 8.65663C66.9984 8.47323 67.8658 8.33751 68.5499 8.34118C69.5532 8.34118 70.3234 8.44939 70.8351 8.6658C71.345 8.88589 71.5944 9.26736 71.5944 9.8084L71.5559 10.1624L71.1964 10.3916C69.7531 10.4778 68.7187 10.6099 67.4789 10.7914C66.2574 10.962 65.179 11.2591 64.284 11.6699C63.3285 12.0936 62.6077 12.6603 62.1162 13.3829C61.6301 14.1074 61.3936 14.984 61.3936 16.0056C61.3936 16.9831 61.7384 17.7846 62.4243 18.4008C63.1084 19.0079 63.9979 19.3123 65.0726 19.3123C65.7494 19.305 66.2757 19.261 66.6517 19.1638L67.8677 18.7493L68.9094 18.1771L69.8521 17.5425L69.8686 17.5627L69.7824 17.9698L69.7732 17.9772L69.7769 17.9845C69.6632 18.476 69.9621 18.8832 70.4463 18.9272L70.45 18.9364H70.494C70.8113 18.9364 71.908 18.9364 72.4307 18.9364H72.7865L72.8251 18.9235C73.3221 18.863 73.7916 18.4595 73.8961 17.9735L75.7375 10.0377L75.8347 9.38658L75.8879 8.77768C75.8897 7.65525 75.4092 6.82444 74.45 6.29074ZM70.3986 15.2261L69.9896 15.7488L69.0084 16.2568C68.5426 16.4439 68.0988 16.5411 67.6971 16.5411C67.057 16.5411 66.5839 16.4494 66.2647 16.266L65.7732 15.3252C65.7732 14.8116 65.8924 14.41 66.1327 14.0927C66.3766 13.7937 66.7489 13.548 67.2111 13.3683C67.6623 13.2142 68.2198 13.0895 68.8691 12.9959C69.4413 12.9244 70.5747 12.7905 70.7214 12.7887L70.8993 13.095C70.8737 13.2692 70.549 14.6136 70.3986 15.2261Z" fill="#afafaf"/>
<path d="M62.2988 4.13397C61.9833 3.52324 61.5102 3.02989 60.9123 2.64474C60.2997 2.26326 59.5734 1.9955 58.7243 1.84144C57.8898 1.69288 56.8939 1.61219 55.7623 1.61035L50.4968 1.61402C49.9484 1.62319 49.4221 2.04868 49.2955 2.57138L45.754 17.9882C45.6256 18.5109 45.9778 18.9438 46.5133 18.9438L49.0351 18.9401C49.5706 18.9438 50.119 18.5146 50.2456 17.9864L51.0984 14.2431C51.2231 13.7223 51.7641 13.2839 52.3088 13.2876H53.0296C56.1126 13.2876 58.5024 12.653 60.2227 11.3967C61.9228 10.1257 62.783 8.46228 62.783 6.39533C62.7738 5.49482 62.6179 4.7337 62.2988 4.13397ZM56.8682 9.17572C56.1089 9.72226 55.0489 10.001 53.6917 10.001H53.0645C52.5234 10.0065 52.1731 9.56637 52.2942 9.04184L53.0571 5.77543C53.169 5.25273 53.7155 4.8144 54.2602 4.8199L55.0764 4.8144C56.0448 4.8199 56.771 4.97946 57.2662 5.30225C57.7596 5.62504 57.9925 6.13123 57.998 6.80249C58.0035 7.82587 57.6239 8.61451 56.8682 9.17572Z" fill="#afafaf"/>
<path d="M83.8912 2.69401C84.0068 2.16765 83.6766 1.74032 83.1356 1.74765H80.8797C80.4176 1.74765 80.0012 2.09061 79.7977 2.51244L79.673 2.70685L79.5592 3.2057L76.4065 17.5368L76.3038 17.977L76.3075 17.988C76.203 18.4593 76.4927 18.8151 76.9402 18.883L76.9788 18.9362H79.3208C79.7793 18.9362 80.2103 18.5877 80.4066 18.1585L80.5276 17.9751L83.8986 2.69584L83.8912 2.69401Z" fill="#afafaf"/>
<path d="M45.8246 5.66891C45.2285 5.67625 42.8058 5.66891 42.8058 5.66891C42.2629 5.66891 41.566 6.10724 41.2212 6.62994C41.2212 6.62994 37.6155 12.818 37.2652 13.4397L36.847 13.4342L35.7246 6.67212C35.5999 6.14025 35.0441 5.68542 34.3527 5.68542L32.0969 5.68908C31.554 5.68908 31.2202 6.12191 31.3431 6.65011C31.3431 6.65011 33.0561 16.398 33.399 18.6923C33.5586 19.9578 33.3788 20.1834 33.3788 20.1834L31.1487 24.0679C30.8185 24.5961 30.9964 25.0271 31.5375 25.0271L34.1455 25.0234C34.6883 25.0234 35.4018 24.5961 35.7246 24.0661L45.7567 7.09762C45.7567 7.09945 46.7214 5.64874 45.8246 5.66891Z" fill="#afafaf"/>
</svg>
