<svg width="198" height="26" viewBox="0 0 198 26" fill="none" xmlns="http://www.w3.org/2000/svg">
<g opacity="0.7" clip-path="url(#clip0_8_3865)">
<path d="M97.8736 10.4522H85.502V0.782406H81.759V25.338H85.502V13.7022H97.8736V25.338H101.577V0.782406H97.8736V10.4522ZM61.3695 0.702161C60.0102 0.662037 57.2522 0.662035 54.8094 0.662035V25.3179H58.5918V15.9691C59.5374 15.9691 61.4877 15.8889 63.0637 15.8488C65.2701 15.8086 71.0225 14.6852 70.9831 7.92438C71.0422 0.300926 62.7485 0.702161 61.3695 0.702161ZM61.1725 12.6991H58.6706V3.81173H60.7982C61.7832 3.81173 67.5947 3.37037 67.772 7.9645C68.0084 12.4784 63.4183 12.6991 61.1725 12.6991ZM26.4611 0.662035L26.5005 25.3179H41.6892V22.108H30.2829V13.7423H38.3599C38.3599 13.0401 38.3205 12.017 38.3599 10.6728H30.2829V3.95216H41.6892C41.6498 2.00617 41.6892 0.662035 41.6892 0.662035H26.4611ZM4.37743 6.68055C4.37743 2.64815 9.61763 2.48765 12.7105 5.07562C13.7743 1.96605 13.8531 1.74537 13.8531 1.74537C4.83053 -2.66821 0.713228 3.16975 0.713228 6.90123C0.713228 15.8287 13.1439 13.9228 11.3512 20.2022C10.7208 22.4892 6.72173 23.7932 2.11193 20.9444C1.77703 21.9074 1.22543 23.071 0.673828 24.2346C6.76113 27.4846 14.6608 25.9198 14.9169 19.2191C15.2715 10.7932 4.37743 11.3951 4.37743 6.68055ZM164.026 7.58333C163.475 0.2608 156.501 0.822527 154.964 0.74228C153.684 0.702157 150.965 0.662035 148.621 0.662035V25.2778H152.403V14.9259C153.684 14.9259 154.097 14.9259 156.028 14.8457L162.923 25.2778H167.513L159.889 14.2037C161.938 13.4414 164.322 11.6559 164.026 7.58333ZM154.748 12.037C153.9 12.037 153.25 12.037 152.403 11.9969V3.67129H154.393C155.339 3.67129 160.303 3.37037 160.736 7.40278C161.268 12.1775 155.772 12.037 154.748 12.037ZM188.986 0.702161H184.613L176.693 25.358H180.436C181.618 20.9043 182.012 19.6404 182.012 19.6404L191.803 19.6003C192.946 22.8904 193.793 25.3981 193.793 25.3981H197.674L188.986 0.702161ZM182.879 16.8117L186.701 4.63425H186.74L190.739 16.7716L182.879 16.8117ZM125.06 0C117.357 0 112.333 5.79784 112.333 13C112.333 20.2022 117.357 26 125.06 26C132.762 26 137.786 20.2022 137.786 13C137.786 5.79784 132.762 0 125.06 0ZM125.06 22.4491C119.406 22.4491 116.214 18.2562 116.214 13C116.214 7.80401 119.406 3.55092 125.06 3.55092C130.674 3.55092 133.905 7.74382 133.905 13C133.905 18.196 130.714 22.4491 125.06 22.4491Z" fill="#afafaf"/>
</g>
<defs>
<clipPath id="clip0_8_3865">
<rect width="197" height="26" fill="#afafaf" transform="translate(0.673828)"/>
</clipPath>
</defs>
</svg>
