<svg width="181" height="40" viewBox="0 0 181 40" fill="none" xmlns="http://www.w3.org/2000/svg">
<g opacity="0.7" clip-path="url(#clip0_8_3845)">
<path d="M19.7503 29.4206C28.6981 31.0732 35.248 22.4047 39.444 14.9035C41.1233 11.8981 43.6736 4.0296 40.8172 1.05609C38.2018 -1.82034 36.1806 1.95446 34.63 3.21449L35.8269 4.63213C38.2172 7.65006 36.1382 13.3842 34.7212 16.4482C32.5947 20.2203 28.5807 25.9284 23.8897 25.1341C22.8716 24.8951 22.0285 23.9079 21.6724 22.87C24.1991 20.3697 27.191 15.9773 28.8726 13.0554C30.28 10.6785 32.722 6.08532 30.4699 4.19315C28.6004 2.89759 24.8565 4.7631 22.8502 6.45684C21.629 7.55595 20.806 8.45596 19.8582 9.73672C17.2763 13.2364 14.8178 19.2374 15.0745 23.8566C13.8359 24.755 12.4192 25.65 10.737 25.1341C9.06959 24.7602 8.76947 23.3413 8.53287 22.2277C7.47062 15.5347 14.1794 7.08307 17.943 2.22727C17.943 2.22727 14.9738 3.03218 12.8069 3.12267C7.82503 3.33591 4.12526 1.01792 1.43081 4.34781C0.619974 5.53281 0.151703 6.77802 0 8.25852C1.10404 7.31474 2.73986 7.54081 4.30263 7.63032C7.00663 7.86692 8.33838 8.19303 10.7758 7.53818C8.60428 10.6009 4.98645 16.6397 4.32139 20.4079C3.96895 22.9082 3.99956 26.8498 6.13721 28.6196C9.67936 30.9771 13.1975 29.3291 16.3398 27.1585C17.2727 28.2392 18.4241 29.1843 19.7503 29.4206ZM25.7602 8.50763C26.7026 8.04627 26.42 9.44582 26.42 9.44582C26.285 11.0336 25.1336 12.9251 24.3132 14.3763C23.4708 15.8601 20.5187 19.3588 19.2327 20.1111C19.2883 17.9938 21.5546 13.3713 22.713 11.6078C23.3059 10.5709 24.819 8.96932 25.7602 8.50763Z" fill="#afafaf"/>
<path d="M168.272 12.6455C167.78 13.2951 166.1 15.1218 165.555 15.692C165.531 15.7147 165.275 15.9596 165.275 15.9596C160.743 20.5057 157.28 23.1436 155.275 23.5687C153.908 23.8688 153.281 23.9485 152.641 22.7151C152.63 22.6921 152.614 22.648 152.614 22.648C152.614 22.6388 152.549 22.0708 152.549 22.0708C152.549 20.4313 154.679 16.7559 157.528 14.2997C158.615 13.3497 158.743 12.9291 158.758 12.8245C158.352 12.1871 158.106 11.8876 157.553 11.6569C156.761 11.6155 155.547 12.4569 154.746 13.0177C154.179 13.4056 152.571 14.8835 150.866 16.4413C149.445 17.7451 147.978 19.0927 147.158 19.7666C147.158 19.7666 146.017 20.7005 145.77 20.9059C145.78 20.6656 145.81 20.1832 145.81 20.1832C145.84 19.3385 146.729 17.9287 148 16.0316C148.46 15.3324 149.595 13.3497 149.731 12.9982L149.749 12.9634L149.728 12.9291C149.36 12.325 148.654 11.8544 148.09 11.8281C148.032 11.8501 147.585 12.2164 147.585 12.2164C146.628 12.9982 144.584 14.8384 142.611 16.624C140.799 18.2628 139.089 19.8055 138.664 20.1141C135.336 22.5841 132.453 24.1946 129.61 25.1963C129.1 25.3444 127.362 25.7617 126.501 24.7935C126.501 24.7935 126.306 24.5757 126.204 24.4506C126.333 24.3927 126.614 24.2729 126.614 24.2729C129.1 23.2146 132.232 21.7595 134.504 19.812C134.538 19.7818 137.99 16.8208 137.99 13.9015C137.99 13.7719 137.982 13.6491 137.972 13.5218C137.757 12.474 136.86 12.1529 135.583 11.988C131.404 12.0153 127.649 14.5877 125.699 16.7796L125.356 17.1551C124.451 18.139 121.7 21.1296 120.582 23.7846C120.582 23.7846 120.534 23.9031 120.518 23.9241C120.512 23.9176 120.416 23.9584 120.416 23.9584C118.532 24.7547 116.486 25.5208 114.21 25.7604C112.982 25.913 111.242 26.0177 110.267 25.1272C110.267 25.1272 110.029 24.9173 109.923 24.8179C110.113 24.7152 114.674 22.2768 114.674 22.2768C118.434 19.995 120.952 16.521 120.952 14.7114C120.875 12.6119 118.91 12.1367 117.273 12.114C114.841 12.1285 112.597 13.0252 109.763 15.1116C108.121 16.3219 104.684 20.249 103.765 24.2802C103.765 24.2802 103.741 24.4125 103.723 24.4717C103.649 24.4941 103.366 24.5599 103.366 24.5599C101.566 25.0074 98.5418 25.7393 97.9844 23.9834C97.0886 21.1296 99.9476 18.3809 102.239 16.1764C102.239 16.1735 103.53 14.9092 103.53 14.9092C103.71 14.7068 103.929 14.2359 103.868 13.8644C103.844 13.6877 103.757 13.556 103.598 13.4616C102.371 12.9216 101.194 13.3378 99.9476 13.7834C99.013 14.1135 98.0442 14.4514 97.0189 14.379C97.0189 14.379 96.8188 14.355 96.6977 14.3468C96.7095 14.2392 96.7273 14.0184 96.7273 14.0184C96.7793 13.4158 97.1301 13.0552 97.444 12.7383C97.4506 12.7356 97.546 12.6313 97.546 12.6313C97.6 12.5658 97.6309 12.4405 97.6309 12.2967C97.6309 12.1706 97.6099 12.0285 97.552 11.9044C97.471 11.7139 97.3479 11.5984 97.1966 11.5868C96.4792 11.4973 95.2392 12.2065 94.1131 13.3428C93.0311 14.4442 92.3513 15.6331 92.3513 16.4496L92.3618 16.618C92.3677 16.6394 92.3651 16.6839 92.3651 16.6839C92.2328 18.5346 90.6204 20.3083 88.3827 22.7678L87.4109 23.8399C87.4165 23.8399 87.0374 24.2256 87.0374 24.2256C85.6961 25.5945 84.8474 26.6206 84.5855 27.1872L84.5068 27.3518L84.6905 27.3031C85.6405 27.0174 88.3741 25.6959 93.2701 19.5343C93.2701 19.5343 93.3431 19.4468 93.374 19.3925C93.4379 19.4 93.555 19.4185 93.555 19.4185C93.7841 19.4468 94.0651 19.3283 94.3613 19.2128C94.8595 19.0144 95.4301 18.7929 95.9685 19.1483C95.9685 19.1483 96.1751 19.2806 96.2633 19.3447C96.1692 19.4599 95.3024 20.5669 95.3024 20.5669C93.9368 22.2788 92.5342 24.036 92.5342 26.1447C92.5342 26.5475 92.5849 26.9648 92.7034 27.3972C92.964 28.6325 94.2277 29.2169 95.2326 29.3473C97.2663 29.6987 99.8166 28.5733 102.068 27.5861L103.208 27.0865C103.844 26.9141 104.025 27.3031 104.16 27.5808C104.318 27.9191 104.542 28.3943 105.523 28.8207C108.809 30.3082 113.632 29.5737 119.862 26.637C119.862 26.637 120.049 26.5475 120.165 26.4929C120.21 26.6034 120.292 26.8206 120.292 26.8206C120.741 28.027 121.585 28.7727 122.963 29.1715C128.329 29.8856 132.754 26.8154 137.03 23.8491C137.035 23.8465 138.982 22.3643 139.302 22.1202C139.381 22.1985 139.729 22.5776 139.778 22.6388C139.708 22.7421 137.898 25.2872 137.898 25.2872C137.266 26.2125 136.675 27.0826 136.305 28.0586C136.305 28.0507 136.198 28.468 136.198 28.468L136.244 28.6832C136.338 28.8497 136.566 28.9636 136.902 29.0129C140.159 28.5621 143.297 25.9038 145.367 24.1518L145.988 23.6266C146.877 22.85 147.73 22.1228 148.067 22.0484C148.067 22.0484 148.197 22.0116 148.263 21.9938C148.311 22.0484 148.412 22.1656 148.412 22.1656C148.423 22.1774 148.423 22.1972 148.423 22.2143C148.423 22.3749 148.184 22.7513 148.011 23.0146L147.684 23.5411C147.407 24.1229 146.853 25.2641 146.853 26.275C146.853 26.6423 146.928 26.9996 147.131 27.3044C148.105 28.8135 148.956 28.8602 149.873 28.9122L150.201 28.93C154.043 28.6832 157.816 25.3484 161.47 22.1202L164.189 19.7666C164.189 19.7666 166.386 17.8438 166.832 17.4467C166.894 17.5835 166.986 17.8438 166.986 17.8438C167.26 18.5464 167.319 19.1871 167.319 19.5988L167.25 20.3636C167.21 20.7005 166.603 23.0692 165.771 23.7412C165.769 23.7412 165.598 23.8373 165.598 23.8373C165.592 23.8373 165.069 23.9689 165.069 23.9689C163.059 24.4842 160.783 25.0621 159.935 27.0674C159.932 27.0753 159.859 27.5242 159.859 27.5242C159.859 27.794 159.961 28.181 160.416 28.4838C161.834 28.8497 163.304 28.4982 164.6 28.1876L166.266 27.8309C167.625 27.8388 168.947 28 170.224 28.1527C172.004 28.3653 173.678 28.5693 175.457 28.3864C177.76 27.7861 179.593 25.1746 180.161 23.0146L180.212 22.8362L180.041 22.9224C177.185 24.3348 173.888 24.3954 171.214 23.087C171.214 23.087 171.029 22.9942 170.943 22.9488C170.979 22.8599 171.062 22.6552 171.062 22.6552C171.083 22.6131 172.712 18.634 172.712 13.4784C172.712 13.2441 172.709 13.0052 172.702 12.7666H172.712C172.678 12.6419 172.664 12.525 172.664 12.4099C172.664 11.9353 172.904 11.5457 173.124 11.1923C173.344 10.8399 173.534 10.5322 173.534 10.1666C173.534 10.1113 173.53 10.0606 173.528 10.001C173.517 9.99578 173.517 9.98097 173.517 9.96978C173.517 9.92634 173.53 9.86711 173.53 9.86711C173.534 9.86053 173.534 9.85296 173.534 9.84539C173.534 9.71771 173.334 9.65321 173.237 9.62623C171.002 9.06253 169.733 10.7217 168.272 12.6455ZM109.412 21.543C109.555 20.3241 111.379 17.963 112.352 16.9767C113.238 16.0843 114.39 15.3607 115.501 14.9934C116.09 14.8536 116.561 14.9671 116.808 15.3083C116.904 15.4521 116.957 15.6183 116.957 15.796C116.957 16.0155 116.878 16.2488 116.735 16.4789C115.517 18.3901 112.377 21.0836 109.815 21.8938C109.815 21.8938 109.518 21.9885 109.347 22.0484C109.368 21.8852 109.412 21.543 109.412 21.543ZM126.63 21.0809C126.889 19.2585 129.545 16.5483 129.571 16.521C130.456 15.6308 131.609 14.9092 132.725 14.5353C133.183 14.3379 133.626 14.3797 133.897 14.6416C134 14.7506 134.142 14.95 134.142 15.2833C134.142 15.4709 134.097 15.6947 133.982 15.977C133.699 16.6839 131.558 18.7593 130.95 19.2888C130.272 19.9331 128.416 21.2205 126.995 21.4528C126.995 21.4528 126.728 21.4962 126.563 21.5193C126.585 21.3797 126.63 21.0809 126.63 21.0809Z" fill="#afafaf"/>
<path d="M74.4077 4.13625H74.4031C71.5119 4.40181 68.7914 6.01296 65.5794 9.35338C64.2673 10.595 58.2012 18.1413 57.2015 23.8797C57.2015 23.8797 57.1844 23.9896 57.1742 24.0363C57.1314 24.0574 57.0363 24.1087 57.0363 24.1087C56.157 24.5812 53.5106 25.7185 51.8343 25.2953C51.3318 25.1696 50.9563 24.9103 50.7303 24.526C50.4719 24.0258 50.3479 23.5164 50.3479 22.978C50.3479 21.7262 51.0399 20.6087 51.6375 19.6083C51.6434 19.6057 51.9593 19.0788 51.9811 19.0426C51.9916 19.0535 52.0956 19.0206 52.0956 19.0206C53.6472 18.5773 56.0784 15.6153 56.697 13.8084L56.7151 13.7567L56.6687 13.7254C54.8582 12.6171 52.4279 12.6421 50.7145 12.855C47.8881 13.1835 44.671 14.4287 42.1033 16.1797C39.0149 18.2897 36.3461 22.5844 35.7877 25.2716C35.4863 26.8084 35.2872 28.3669 36.3504 29.0895C38.5595 30.3736 42.9013 28.0424 45.8659 25.2052C45.8659 25.2052 46.2535 24.8359 46.4839 24.6141C46.4612 24.9281 46.3878 25.7725 46.3878 25.7725C46.3503 26.1397 46.3161 26.5596 46.3161 26.9756C46.3161 27.7594 46.4474 28.5479 46.965 29.0356C49.409 30.9745 54.4412 28.85 57.2192 26.9512C57.2192 26.9512 57.3812 26.8374 57.4661 26.7834C57.5338 26.8644 57.6549 27.0203 57.6549 27.0203C58.5385 28.1122 59.581 29.287 60.7673 29.4871C63.8692 29.9208 66.2964 28.1333 68.4558 26.1378C68.4558 26.1378 68.7371 25.8791 68.878 25.7448C68.9214 25.9726 69.0879 26.7433 69.0879 26.7433C69.2462 27.5416 69.3903 28.2971 70.0097 28.7947C71.5764 30.007 75.0859 28.3583 77.0607 26.9552C77.0607 26.9552 77.5168 26.636 77.7791 26.4445C77.7129 26.7215 77.5616 27.2961 77.5616 27.2961C77.2239 28.6012 76.5997 29.8517 75.9939 31.06L75.4522 32.1657L75.362 32.3118L75.2011 32.5725C74.3594 33.919 72.7999 36.4437 71.2802 36.6648L71.1749 36.6806C70.7833 36.5371 70.5345 36.318 70.4029 36.0271L70.2907 35.4617C70.2907 34.7812 70.6487 34.0059 70.9623 33.3214L71.0281 33.1858L70.8814 33.1964C70.1752 33.3043 69.5447 33.6031 68.8517 33.9559C67.4465 34.7884 65.9999 36.6688 65.9999 38.3589C65.9999 38.7103 66.0572 39.0407 66.1783 39.3481C66.4688 39.9924 67.2333 40.0135 67.5531 39.9963C77.1831 39.096 82.5845 28.1741 86.5308 20.1954L87.3054 18.6211C87.5437 18.3065 87.5825 18.1159 87.5825 18.0057L87.5753 17.9109C87.5598 17.9004 87.4288 17.7316 87.4288 17.7316C87.439 17.7431 87.3311 17.1587 87.3311 17.1587C87.4923 16.3873 89.3585 14.7656 89.3779 14.7466C89.3779 14.7508 89.6152 14.5698 89.6152 14.5698C89.806 14.4458 89.9248 14.3181 89.9295 14.2148C89.9295 14.1039 89.8044 13.9568 89.6152 13.8367C89.2364 13.5938 88.8261 13.4191 87.261 12.9834C84.3681 12.1729 79.3919 12.7833 74.878 17.1524C74.4051 17.6065 73.5324 18.7066 72.8213 19.5899L71.9084 20.7271C69.7086 23.2939 67.4419 25.9555 63.6941 25.2117C63.2015 25.009 62.6828 24.597 62.4834 24.0903C62.3758 23.8 62.3834 23.5085 62.5061 23.2452L62.5525 23.1517C64.6303 21.694 66.766 19.8018 68.9593 17.5062C72.6423 13.5698 77.1525 6.94785 76.5605 5.30315C76.1199 4.15731 74.8052 4.11717 74.4077 4.13625ZM43.9648 17.0698C46.0064 16.0708 48.5574 16.1428 50.4594 17.2541C50.4594 17.2541 50.6779 17.3798 50.7875 17.4469C50.6987 17.573 49.3867 19.4003 49.3867 19.4003C47.2269 22.025 43.0599 24.6247 41.2799 24.4628V24.4588C40.4497 24.3871 39.8692 23.9797 39.7244 23.3604L39.6954 22.8385C39.6954 21.0628 42.0565 18.3183 43.2942 17.4789C43.2807 17.4877 43.9648 17.0698 43.9648 17.0698ZM68.1221 10.7164C69.1126 9.50179 70.7372 8.42967 71.223 8.20228C71.5968 8.02524 71.7965 8.2365 71.8495 8.30199C71.9314 8.40236 71.9588 8.53958 71.9588 8.67647C71.9588 8.83772 71.9104 8.99699 71.8541 9.0661L71.8722 9.06906C71.0061 12.0903 65.5306 18.5006 62.3808 20.7469C62.3808 20.7469 62.0033 21.0121 61.7779 21.174C61.8101 20.9338 61.8743 20.4494 61.8743 20.4494C62.1422 18.2999 66.2155 13.0587 68.1221 10.7164ZM74.28 24.4318L74.2271 24.3983C73.3767 23.7836 73.1085 22.9161 73.4607 21.8967C73.7792 20.7113 77.0709 17.0731 79.6749 16.5663C82.0383 16.1079 82.9827 16.9086 83.4385 17.2893C83.4385 17.2962 83.6863 17.491 83.8054 17.593C83.705 17.7003 82.526 18.9646 82.526 18.9646C80.7888 21.4149 76.4417 25.4381 74.28 24.4318Z" fill="#afafaf"/>
</g>
<defs>
<clipPath id="clip0_8_3845">
<rect width="180.211" height="40" fill="#afafaf"/>
</clipPath>
</defs>
</svg>
