<svg width="167" height="40" viewBox="0 0 167 40" fill="none" xmlns="http://www.w3.org/2000/svg">
<g opacity="0.7" clip-path="url(#clip0_8_3869)">
<path d="M96.8182 21.2861C96.8182 17.3359 95.1273 13.8457 89.4085 13.8457C86.4744 13.8457 84.1437 14.682 82.88 15.4139L83.8062 18.5831C84.9697 17.8532 86.8261 17.252 88.5783 17.252C91.4736 17.248 91.9479 18.8857 91.9479 19.9387V20.1922C85.628 20.182 81.6328 22.3657 81.6328 26.8127C81.6328 29.53 83.6611 32.0776 87.2065 32.0776C89.3697 32.0776 91.1975 31.2046 92.2893 29.8265H92.3957C92.3957 29.8265 93.1155 32.8382 97.0963 31.6871C96.8939 30.4256 96.8182 29.0966 96.8182 27.4813V21.2861ZM92.1034 25.4571C92.1034 25.7761 92.0768 26.1073 91.9827 26.3915C91.6187 27.6081 90.3634 28.6263 88.8012 28.6263C87.4825 28.6263 86.4479 27.88 86.4479 26.3159C86.4479 23.9237 89.0895 23.2653 92.1034 23.2816" fill="#afafaf"/>
<path d="M0.0605469 8.47119C0.0605469 8.47119 4.18861 25.3598 4.84496 28.0955C5.61781 31.2933 7.00202 32.4751 10.9972 31.6879L13.5775 21.2153C14.2298 18.6207 14.6734 16.7601 15.0947 14.1164H15.1662C15.4586 16.7867 15.8798 18.6207 16.4134 21.2235C16.4134 21.2235 17.4664 25.9814 18.0123 28.4737C18.5439 30.9661 20.0406 32.5385 23.9601 31.6879L30.1022 8.47119H25.1439L23.036 18.5144C22.4778 21.4239 21.9707 23.7159 21.5761 26.3821H21.5045C21.1488 23.7445 20.6969 21.5466 20.1162 18.6964L17.9326 8.47119H12.7597L10.4288 18.4346C9.76427 21.477 9.14274 23.9163 8.7522 26.4986H8.68474C8.28197 24.0758 7.73606 20.9904 7.15739 18.0625C7.15739 18.0625 5.77318 10.9288 5.28455 8.47119" fill="#afafaf"/>
<path d="M43.9199 21.2861C43.9199 17.3359 42.2249 13.8457 36.5061 13.8457C33.5803 13.8457 31.2453 14.682 29.9818 15.4139L30.9079 18.5831C32.0673 17.8532 33.9218 17.252 35.6801 17.252C38.5753 17.248 39.0496 18.8857 39.0496 19.9387V20.1922C32.7297 20.182 28.7305 22.3657 28.7305 26.8127C28.7305 29.53 30.7669 32.0776 34.2959 32.0776C36.4795 32.0776 38.2911 31.2046 39.3829 29.8265H39.4933C39.4933 29.8265 40.2171 32.8382 44.1939 31.6871C43.9895 30.4256 43.9199 29.0966 43.9199 27.4813V21.2861ZM39.201 25.4571C39.201 25.7761 39.1744 26.1073 39.0844 26.3915C38.7163 27.6081 37.461 28.6263 35.8948 28.6263C34.5842 28.6263 33.5455 27.88 33.5455 26.3159C33.5455 23.9237 36.1871 23.2653 39.201 23.2816" fill="#afafaf"/>
<path d="M46.4922 8.47119V31.6797H51.2111V26.7583V8.47119H46.4922Z" fill="#afafaf"/>
<path d="M111.301 8.47119V25.5949C111.301 27.9585 111.744 29.6065 112.699 30.6165C113.538 31.5018 114.909 32.0784 116.543 32.0784C117.946 32.0784 119.318 31.8085 119.966 31.5734L119.909 27.8869C119.424 27.9994 118.87 28.0955 118.109 28.0955C116.498 28.0955 115.967 27.0752 115.967 24.9529V18.3978H120.076V13.9631H115.967V8.47119" fill="#afafaf"/>
<path d="M99.1045 14.2483V31.6869H103.983V22.756C103.983 22.2755 104.014 21.8605 104.089 21.4761C104.453 19.593 105.882 18.401 107.941 18.401C108.516 18.401 108.906 18.4644 109.34 18.5318V13.9601C108.976 13.8946 108.728 13.8599 108.281 13.8599C106.455 13.8599 104.386 15.0192 103.513 17.5443H103.392V14.2483" fill="#afafaf"/>
<path d="M53.9521 14.2483V31.6869H58.7058V21.4516C58.7058 20.9711 58.759 20.4804 58.9287 20.0367C59.3152 19 60.2741 17.7999 61.8137 17.7999C63.7274 17.7999 64.6311 19.4151 64.6311 21.746V31.6869H69.3727V21.3289C69.3727 20.877 69.4361 20.3229 69.5689 19.9222C69.9492 18.7465 70.9879 17.7999 72.4233 17.7999C74.3575 17.7999 75.2939 19.3803 75.2939 22.1283V31.6869H80.0312V21.4045C80.0312 16.0026 77.2832 13.8599 74.1632 13.8599C72.7913 13.8599 71.6995 14.1972 70.718 14.8024C69.8878 15.3115 69.16 16.0292 68.5077 16.9677H68.4362C67.6858 15.0907 65.9234 13.8599 63.6211 13.8599C60.6687 13.8599 59.3274 15.3504 58.5382 16.6099H58.4666V14.2483" fill="#afafaf"/>
<path d="M145.607 13.4659C146.54 13.4659 147.325 12.9793 147.427 12.3536L148.351 1.88514C148.351 0.848521 147.131 0 145.607 0C144.076 0 142.863 0.848521 142.863 1.88515L143.796 12.3536C143.894 12.9793 144.675 13.4659 145.607 13.4659Z" fill="#afafaf"/>
<path d="M139.937 16.7416C140.399 15.9238 140.372 15.016 139.874 14.6111L131.245 8.57745C130.348 8.05403 129.004 8.67764 128.236 9.99847C127.469 11.3172 127.624 12.7976 128.503 13.3108L138.056 17.7394C138.667 17.9684 139.467 17.5431 139.937 16.7335" fill="#afafaf"/>
<path d="M151.277 16.7328C151.765 17.5425 152.565 17.9678 153.16 17.751L162.712 13.3101C163.6 12.7867 163.733 11.3207 162.982 10.0019C162.215 8.68109 160.864 8.06158 159.968 8.57478L151.338 14.6023C150.86 15.0133 150.825 15.9252 151.287 16.741" fill="#afafaf"/>
<path d="M145.607 26.5425C146.54 26.5425 147.325 27.0291 147.427 27.6548L148.351 38.1232C148.351 39.1599 147.131 40.0002 145.607 40.0002C144.076 40.0002 142.863 39.1599 142.863 38.1232L143.796 27.6548C143.894 27.0291 144.675 26.5425 145.607 26.5425Z" fill="#afafaf"/>
<path d="M151.277 23.2759C151.765 22.4642 152.565 22.0307 153.16 22.2658L162.712 26.6986C163.6 27.2118 163.733 28.69 162.982 30.0109C162.215 31.3215 160.864 31.9451 159.968 31.4319L151.338 25.3962C150.86 24.9893 150.825 24.0815 151.287 23.2759" fill="#afafaf"/>
<path d="M139.937 23.2667C140.399 24.0825 140.372 24.9883 139.874 25.3972L131.245 31.4227C130.348 31.9461 129.004 31.3205 128.236 30.0099C127.469 28.6911 127.624 27.2108 128.503 26.6976L138.056 22.2648C138.667 22.0317 139.467 22.4611 139.937 23.2667Z" fill="#afafaf"/>
<path d="M165.508 30.5133H165.627C165.789 30.5133 165.854 30.5644 165.873 30.6933C165.907 30.8364 165.926 30.9325 165.96 30.9734H166.267C166.241 30.9427 166.206 30.865 166.187 30.6851C166.153 30.5297 166.073 30.4418 165.96 30.4111V30.3825C166.116 30.3477 166.206 30.2434 166.206 30.1146C166.206 29.9981 166.153 29.9143 166.099 29.8611C165.997 29.812 165.899 29.7732 165.682 29.7732C165.49 29.7732 165.349 29.7895 165.237 29.8161V30.9734H165.508V30.5133ZM165.517 29.9858L165.656 29.9674C165.819 29.9674 165.907 30.0431 165.907 30.1494C165.907 30.268 165.789 30.3232 165.637 30.3232H165.517V29.9858ZM165.691 29.2007C165.02 29.2007 164.488 29.7241 164.488 30.3661C164.488 31.0245 165.02 31.5479 165.691 31.5479C166.369 31.5479 166.885 31.0245 166.885 30.3661C166.885 29.7241 166.369 29.2007 165.691 29.2007ZM165.691 29.4358C166.206 29.4358 166.588 29.8529 166.588 30.3661C166.588 30.8834 166.206 31.3128 165.691 31.3046C165.175 31.3046 164.785 30.8834 164.785 30.3661C164.785 29.8529 165.175 29.4358 165.682 29.4358" fill="#afafaf"/>
</g>
<defs>
<clipPath id="clip0_8_3869">
<rect width="166.823" height="40" fill="#afafaf" transform="translate(0.0605469)"/>
</clipPath>
</defs>
</svg>
