<svg width="59" height="40" viewBox="0 0 59 40" fill="none" xmlns="http://www.w3.org/2000/svg">
<g opacity="0.7" clip-path="url(#clip0_8_3853)">
<path d="M26.6482 4.08611C26.9095 4.08611 27.0761 3.82212 27.2416 3.41399C27.4553 2.90938 28.4531 1.97363 29.8285 1.97363C30.8729 1.97363 31.8936 2.62239 32.7243 3.29452C33.5076 3.94268 34.1483 3.9664 34.1483 4.25531C34.1483 4.35034 33.9824 4.42259 33.7928 4.42259C33.0096 4.42259 31.6336 3.24683 30.1616 3.24683C28.4998 3.24683 27.1464 4.68658 27.1464 5.50298C27.1464 5.74325 27.2417 5.93545 27.55 5.93545C27.9069 5.93545 28.3106 5.07027 29.2358 5.07027C30.0898 5.07027 30.8023 5.88679 31.9888 5.71903C32.1315 5.69507 32.1784 5.91052 32.0824 5.95965C29.7094 7.30307 27.1945 8.57614 27.1945 12.8253C27.1945 16.09 29.022 19.2358 33.0562 19.2358C37.2582 19.2358 39.275 16.4987 39.275 12.8253C39.275 9.65641 37.3543 6.72824 34.7661 6.72824C34.6712 6.72824 34.5767 6.72824 34.4808 6.75173C34.3142 6.79894 34.1718 6.94261 34.1718 7.15951C34.1718 7.42289 34.2437 7.49623 34.4099 7.61474C36.0719 8.79231 36.6426 9.94484 36.6426 13.1379C36.6426 15.394 35.7158 17.9002 33.3885 17.9002C30.873 17.9002 29.8047 15.2021 29.8047 12.7781C29.8047 9.96857 30.5173 8.64743 32.2744 7.32835C34.1718 5.88679 36.4285 5.21455 36.4285 3.89402C36.4285 3.2467 35.7394 3.12615 35.288 3.10243C34.8846 3.07822 34.3142 2.93358 34.0295 2.5258C32.8671 1.30138 31.5136 0.0293922 29.9004 0.0293922C27.598 0.0293922 26.2441 2.47811 26.2441 3.39026C26.2441 3.75119 26.3151 4.08611 26.6482 4.08611Z" fill="#afafaf"/>
<path d="M49.6274 7.69H49.9919C50.1003 7.69 50.2453 7.80007 50.2819 7.9653C50.3362 8.11283 50.3543 8.20436 50.3543 8.68307V16.9006C50.3543 17.3953 50.3363 17.489 50.2819 17.6345C50.2452 17.7636 50.1187 17.8736 49.9919 17.8736H49.6274C49.374 17.8736 49.1737 18.0944 49.1737 18.3707C49.1737 18.7743 49.374 18.9038 49.9919 18.9038H57.1161L57.4628 18.8843C57.751 18.8664 57.8433 18.7937 57.9693 18.4805L58.4971 17.2498C58.6061 16.9922 58.6435 16.8264 58.6435 16.7345C58.6435 16.4768 58.4612 16.2938 58.1704 16.2938C57.9334 16.2938 57.8433 16.3666 57.6257 16.697C57.2618 17.2315 56.9167 17.5065 56.4972 17.5785C56.1886 17.6345 55.7153 17.6536 54.8082 17.6536C53.844 17.6536 53.4825 17.6159 53.2441 17.5244C52.9535 17.4146 52.8994 17.2128 52.8994 16.2382V13.3328C52.8994 12.9285 52.9535 12.7446 53.063 12.6709C53.1547 12.6166 53.2811 12.5986 53.8073 12.5986H55.2263C55.6992 12.5986 55.933 12.3779 55.933 11.954C55.933 11.5131 55.7521 11.3486 55.2263 11.3486H52.8994V8.99415C52.8994 8.0207 53.0097 7.89268 54.0079 7.89268H55.2263C56.3709 7.89268 56.7157 8.0207 57.081 8.55337C57.2078 8.71968 57.2794 8.82963 57.2981 8.86709C57.3705 8.93971 57.463 9.01329 57.5524 9.04978C57.6062 9.08676 57.6794 9.10639 57.751 9.10639C58.0255 9.10639 58.2436 8.90286 58.2436 8.68295C58.2436 8.62804 58.2065 8.51688 58.152 8.37032L57.6257 7.0104C57.5167 6.73281 57.3704 6.64225 56.99 6.64225H49.992C49.3741 6.64225 49.1553 6.77123 49.1553 7.17491C49.1553 7.45046 49.374 7.69 49.6274 7.69Z" fill="#afafaf"/>
<path d="M39.9033 7.69H40.25C40.3759 7.69 40.5221 7.78225 40.5578 7.92918C40.6116 8.07574 40.6326 8.14968 40.6326 8.64502V16.9552C40.6326 17.4144 40.6116 17.5063 40.5578 17.6345C40.5221 17.7636 40.3759 17.8736 40.25 17.8736H39.9033C39.6491 17.8736 39.45 18.0944 39.45 18.3707C39.45 18.7743 39.649 18.9038 40.25 18.9038H47.2478C47.8099 18.9038 47.9558 18.8122 48.1374 18.3521L48.7005 16.9552L48.7737 16.7529C48.8102 16.6784 48.8286 16.6057 48.8286 16.5324C48.8286 16.3117 48.6093 16.128 48.3373 16.128C48.1199 16.128 48.0095 16.2018 47.792 16.5137C47.3558 17.1396 47.1196 17.3775 46.8111 17.5063C46.5017 17.6343 46.3016 17.6343 45.2115 17.6343C43.9578 17.6343 43.6121 17.6159 43.4304 17.4889C43.2129 17.3604 43.1769 17.1752 43.1769 16.3666V8.64502C43.1769 8.16751 43.1769 8.05719 43.2305 7.92918C43.2842 7.78213 43.4486 7.69 43.6121 7.69H44.0125C44.2654 7.69 44.4842 7.46901 44.4842 7.17516C44.4842 6.77147 44.2654 6.64249 43.6121 6.64249H40.25C39.632 6.64249 39.4141 6.77147 39.4141 7.17516C39.4141 7.46901 39.632 7.69 39.9033 7.69Z" fill="#afafaf"/>
<path d="M36.9589 30.7218C36.9406 31.1435 36.9045 31.1798 36.341 31.2731C36.0317 31.3095 35.8516 31.4931 35.8516 31.7686C35.8516 31.9158 35.9422 32.082 36.0686 32.1726C36.706 32.6705 38.8676 33.0928 40.7572 33.0928C42.776 33.0928 44.1748 32.6873 45.248 31.8237C46.5923 30.74 47.3372 28.9015 47.3372 26.6775C47.3372 24.6913 46.7566 23.0181 45.6838 21.9343C44.5753 20.7939 43.0831 20.2975 40.9041 20.2975C38.8497 20.2975 36.7231 20.6844 36.0872 21.1808C35.9425 21.2904 35.8518 21.4559 35.8518 21.6205C35.8518 21.8974 36.0515 22.0809 36.3965 22.0981C36.8872 22.136 36.9409 22.2092 36.9592 22.6884L36.9777 23.0921V30.3171L36.9589 30.7218ZM39.5223 23.3312C39.5223 22.2832 39.5584 22.0631 39.7942 21.8796C40.0675 21.6581 40.5945 21.5107 41.158 21.5107C43.3201 21.5107 44.6104 23.4231 44.6104 26.6581C44.6104 29.8949 43.3201 31.7688 41.085 31.7688C40.3948 31.7688 39.8477 31.5853 39.6497 31.3096C39.5407 31.1258 39.5223 30.9772 39.5223 30.2436V23.3312Z" fill="#afafaf"/>
<path d="M48.7915 25.1879C49.3546 25.8499 49.5172 25.9598 51.2437 27.1725C52.28 27.9085 52.7718 28.3126 53.1706 28.755C53.5526 29.1949 53.7518 29.6364 53.7518 30.1332C53.7518 31.1058 52.953 31.7686 51.7716 31.7686C50.7362 31.7686 49.7172 31.2162 49.0827 30.317L48.8273 29.9487C48.7173 29.8021 48.5541 29.7095 48.3726 29.7095C48.0467 29.7095 47.792 29.9487 47.792 30.28C47.792 30.3709 47.8081 30.5369 47.8453 30.6471L48.2995 32.4857C48.4079 32.9275 48.5541 33.0927 48.8627 33.0927C49.0258 33.0927 49.1173 33.0557 49.2808 32.9275C49.4454 32.7804 49.5173 32.7433 49.6628 32.7433C49.7721 32.7433 49.8079 32.7621 50.0622 32.8347C50.5901 33.0009 51.2989 33.0928 51.9712 33.0928C54.3707 33.0928 55.9327 31.6948 55.9327 29.5631C55.9327 28.626 55.5702 27.7063 54.9516 27.0627C54.3708 26.4546 53.898 26.0894 52.4623 25.0769C52.0812 24.8015 51.7886 24.5999 51.5702 24.4333C51.2081 24.1579 50.9161 23.8637 50.7364 23.5881C50.5902 23.3851 50.5351 23.1097 50.5351 22.8349C50.5351 22.0808 51.0816 21.6032 51.917 21.6032C52.5161 21.6032 53.1335 21.8041 53.626 22.1912C54.0076 22.4851 54.0796 22.5593 54.4986 23.1836C54.6616 23.4229 54.7707 23.4958 54.9707 23.4958C55.2791 23.4958 55.4977 23.2936 55.4977 23.0544C55.4977 23.0002 55.4977 22.8906 55.4612 22.7979L55.0248 20.8128C54.9516 20.4809 54.7887 20.2973 54.5154 20.2973C54.3708 20.2973 54.3155 20.3153 54.1337 20.4447C53.9716 20.5543 53.8438 20.6089 53.7166 20.6089C53.6435 20.6089 53.5528 20.5922 53.4614 20.5735C53.208 20.5182 53.0627 20.4809 53.007 20.4635C52.4803 20.3536 51.9529 20.2973 51.444 20.2973C49.4455 20.2973 48.1009 21.4742 48.1009 23.2572C48.1009 23.9933 48.3362 24.6541 48.7915 25.1879Z" fill="#afafaf"/>
<path d="M8.50411 21.8041C10.3955 21.8041 10.6136 21.8795 11.1228 22.651C11.3045 22.926 11.4309 23.0362 11.631 23.0362C11.9041 23.0362 12.1026 22.8348 12.1026 22.5951C12.1026 22.5216 12.0858 22.4481 12.0314 22.3013L11.5592 21.0514C11.4683 20.8299 11.3771 20.6842 11.2686 20.6296C11.1767 20.5734 11.1228 20.5543 10.8311 20.5543H4.16173C3.56186 20.5543 3.36218 20.6842 3.36218 21.0873C3.36218 21.364 3.54319 21.6032 3.79802 21.6032H4.16184C4.28865 21.6032 4.41571 21.6951 4.47026 21.8411C4.50676 21.9712 4.52506 22.0808 4.52506 22.5593V30.8126C4.52506 31.3095 4.50676 31.4012 4.47026 31.5295C4.41571 31.678 4.28865 31.7685 4.16184 31.7685H3.79802C3.54319 31.7685 3.32617 32.0072 3.32617 32.2834C3.32617 32.6871 3.54331 32.8164 4.16184 32.8164H7.50524C8.17821 32.8164 8.39631 32.6871 8.39631 32.2834C8.39631 32.0072 8.19604 31.7685 7.92363 31.7685H7.50524C7.36037 31.7685 7.19718 31.678 7.12396 31.5295C7.0688 31.4012 7.0688 31.3095 7.0688 30.8126V27.1544C7.0688 26.7692 7.08711 26.658 7.21453 26.604C7.28763 26.5672 7.37808 26.5477 7.46924 26.5477H9.3234C9.83234 26.5477 10.1045 26.3277 10.1045 25.9222C10.1045 25.5 9.85065 25.2983 9.3234 25.2983H7.0688V22.5593C7.0688 21.8411 7.17864 21.8041 8.50411 21.8041Z" fill="#afafaf"/>
<path d="M55.063 34.2954H4.42079C2.87109 34.2954 1.61523 35.5652 1.61523 37.1331C1.61523 38.6992 2.87121 39.9707 4.42079 39.9707H55.063C56.6126 39.9707 57.8688 38.6992 57.8688 37.1331C57.8688 35.5652 56.6126 34.2954 55.063 34.2954ZM11.304 38.1616C11.309 38.2137 11.3741 38.2464 11.4295 38.2464H11.5456C11.6428 38.2464 11.7261 38.3453 11.7261 38.4532C11.7261 38.5926 11.6518 38.649 11.4296 38.649H10.1218C9.88969 38.649 9.80201 38.5926 9.80201 38.4532C9.80201 38.3453 9.88969 38.2464 9.99699 38.2464H10.1218C10.1772 38.2464 10.2291 38.2137 10.2517 38.1616C10.2743 38.1059 10.2743 38.0728 10.2743 37.8801V36.4085L9.10134 37.5657C9.03126 37.6408 8.94888 37.6829 8.86554 37.6829C8.77714 37.6829 8.73957 37.6549 8.65202 37.5657L7.54803 36.3752V37.88C7.54803 38.0625 7.54803 38.1058 7.56717 38.1615C7.58524 38.2179 7.63582 38.2463 7.69254 38.2463H7.83153C7.94317 38.2463 8.02554 38.3451 8.02554 38.453C8.02554 38.5925 7.95099 38.6489 7.69254 38.6489H6.75547C6.52846 38.6489 6.43573 38.5925 6.43573 38.453C6.43573 38.3451 6.52846 38.2463 6.63058 38.2463H6.75547C6.81171 38.2463 6.85771 38.2136 6.88083 38.1615C6.90432 38.1141 6.90854 38.0489 6.90854 37.88V36.2337C6.90854 36.0425 6.9043 35.9946 6.88083 35.9431C6.85771 35.8875 6.81171 35.845 6.75547 35.845H6.63058C6.52834 35.845 6.43573 35.7604 6.43573 35.6483C6.43573 35.5021 6.52846 35.4465 6.75547 35.4465H7.81743C7.92931 35.4465 7.99338 35.4748 8.14669 35.6437L9.14879 36.7557L10.316 35.596C10.4372 35.479 10.5109 35.4465 10.6134 35.4465H11.4295C11.6518 35.4465 11.726 35.5021 11.726 35.6483C11.726 35.7604 11.6427 35.845 11.5455 35.845H11.3958C11.3404 35.845 11.3137 35.8779 11.2896 35.9287C11.2667 35.9759 11.2667 36.0425 11.2667 36.2337V37.88C11.2667 38.0625 11.2667 38.1059 11.304 38.1616ZM20.0258 38.649H18.5565C18.417 38.649 18.3426 38.5699 18.3426 38.4532C18.3426 38.3113 18.4214 38.2737 18.6068 38.2425C18.7645 38.2137 18.7777 38.129 18.7185 37.9791L18.6996 37.9319C18.6628 37.8379 18.6111 37.8291 18.4498 37.8291H17.3834C17.276 37.8291 17.2207 37.8378 17.1921 37.852C17.1602 37.8666 17.1373 37.8799 17.1224 37.9081L17.1098 37.9417C17.0632 38.0489 17.1143 38.2135 17.304 38.2365C17.4845 38.2607 17.5589 38.311 17.5589 38.4423C17.5589 38.5732 17.4623 38.6487 17.3179 38.6487H16.1588C15.9871 38.6487 15.9083 38.5924 15.9083 38.466C15.9083 38.345 15.9682 38.2932 16.1032 38.2607C16.2004 38.2365 16.2331 38.2134 16.2746 38.1613C16.3069 38.1196 16.3718 37.9924 16.4376 37.8665L17.5267 35.6852C17.6523 35.4367 17.8884 35.3801 18.1063 35.3801C18.3052 35.3801 18.5567 35.451 18.6719 35.6852L19.7243 37.7825C19.8864 38.1058 19.937 38.1748 20.0444 38.2135L20.1421 38.2461C20.2112 38.269 20.2676 38.3302 20.2676 38.4286C20.2676 38.5697 20.1833 38.649 20.0258 38.649ZM28.6042 38.649H27.7371C27.5423 38.649 27.4485 38.5888 27.3138 38.4426L26.3356 37.3321C26.2392 37.2231 26.2021 37.1578 26.2021 37.111C26.2021 37.0177 26.2809 36.9757 26.4752 36.9566C26.9673 36.9144 27.2118 36.7363 27.2118 36.3601C27.2118 35.939 26.8731 35.7463 26.4517 35.7463C26.289 35.7463 26.1274 35.779 26.0436 35.8394C25.9707 35.896 25.9419 35.9903 25.9269 36.1923L25.9142 36.4218V37.8666C25.9142 38.049 25.9142 38.1015 25.9328 38.1429C25.9559 38.2034 26.0161 38.2424 26.0675 38.2424H26.2113C26.3085 38.2424 26.3875 38.3303 26.3875 38.4424C26.3875 38.5925 26.3084 38.6489 26.0674 38.6489H24.7648C24.5372 38.6489 24.4437 38.5925 24.4437 38.4424C24.4437 38.3303 24.5372 38.2424 24.6386 38.2424H24.7648C24.8331 38.2424 24.8758 38.2034 24.8992 38.1429C24.9168 38.0913 24.9168 38.049 24.9168 37.8666V36.2576C24.9168 36.0654 24.8849 36.033 24.7038 36.0219C24.5648 36.0145 24.4869 35.9489 24.4869 35.8262C24.4869 35.765 24.5239 35.6943 24.5648 35.6519C24.7924 35.4701 25.6722 35.3802 26.3723 35.3802C27.5692 35.3802 28.2282 35.6903 28.2282 36.2803C28.2282 36.688 28.0471 37.0261 27.4029 37.139L28.0244 37.8241C28.2555 38.0817 28.4224 38.171 28.6171 38.2034C28.756 38.2424 28.7752 38.2462 28.8164 38.2693C28.8577 38.2935 28.9012 38.3533 28.9012 38.4287C28.9012 38.5697 28.798 38.649 28.6042 38.649ZM34.8405 38.649H33.5366C33.3094 38.649 33.2179 38.5926 33.2179 38.4426C33.2179 38.3304 33.3094 38.2425 33.4118 38.2425H33.5364C33.6059 38.2425 33.6479 38.2035 33.6705 38.143C33.6895 38.0914 33.6895 38.0491 33.6895 37.8668V36.2339C33.6895 36.0507 33.6858 35.9858 33.6705 35.9531C33.6478 35.9013 33.6059 35.8549 33.5364 35.8549H33.4118C33.3093 35.8549 33.2179 35.7695 33.2179 35.6484C33.2179 35.5022 33.3094 35.4466 33.5366 35.4466H34.8405C35.0801 35.4466 35.1603 35.5022 35.1603 35.6484C35.1603 35.7695 35.0801 35.8549 34.9791 35.8549H34.8405C34.7837 35.8549 34.7423 35.8912 34.7197 35.9531C34.6956 36.0147 34.687 36.0426 34.687 36.2339V37.8668C34.687 37.9885 34.6919 38.1059 34.7272 38.1616C34.7616 38.2137 34.7937 38.2425 34.8403 38.2425H34.979C35.0667 38.2425 35.1602 38.3304 35.1602 38.4426C35.1602 38.5926 35.067 38.649 34.8405 38.649ZM37.6159 38.649H36.736C36.5455 38.649 36.4857 38.5838 36.3472 38.4426L35.0705 37.1669C35.0112 37.1064 34.9871 37.0737 34.9871 37.035C34.9871 36.9985 35.0245 36.9515 35.0705 36.9144L35.9947 36.1267C36.1287 36.0097 36.0499 35.8669 35.9755 35.8669C35.8916 35.8669 35.8424 35.7892 35.8424 35.6484C35.8424 35.5215 35.906 35.4466 36.0643 35.4466H37.5427C37.696 35.4466 37.7793 35.5072 37.7793 35.6439C37.7793 35.7606 37.7195 35.8227 37.5427 35.8451C37.3808 35.867 37.3171 35.867 37.2039 35.8962C37.0987 35.9246 36.9636 36.0043 36.875 36.0792L36.0316 36.8112L37.0746 37.8476C37.3492 38.1199 37.5063 38.2035 37.6443 38.2425C37.8014 38.2833 37.877 38.3113 37.877 38.4426C37.877 38.5697 37.7848 38.649 37.6159 38.649ZM45.8798 37.9319L45.6388 38.5416C45.6011 38.6214 45.5746 38.6402 45.4535 38.6402L45.3135 38.6489H42.4623C42.2217 38.6489 42.1427 38.5925 42.1427 38.4425C42.1427 38.3304 42.2217 38.2463 42.3184 38.2463H42.4623C42.5042 38.2463 42.559 38.2034 42.5689 38.1466C42.5967 38.1016 42.6024 38.0489 42.6024 37.8667V36.2484C42.6024 36.0653 42.5967 36.0146 42.5689 35.9666C42.5589 35.9013 42.5042 35.8547 42.4623 35.8547H42.3184C42.2217 35.8547 42.1295 35.7604 42.1295 35.6483C42.1295 35.5021 42.2218 35.4464 42.4624 35.4464H45.2859C45.4345 35.4464 45.4855 35.4699 45.5135 35.5403L45.7265 36.0932C45.7355 36.1212 45.7587 36.1583 45.7544 36.1731C45.7413 36.2303 45.625 36.2802 45.5228 36.2802C45.4855 36.2802 45.4587 36.2802 45.4392 36.2662C45.4023 36.2574 45.3747 36.2382 45.351 36.2249C45.3376 36.2063 45.3243 36.1825 45.2815 36.1362C45.1663 35.9995 44.9632 35.8546 44.5059 35.8546H44.0349C43.6407 35.8546 43.598 35.891 43.598 36.145V36.675H44.5059C44.7245 36.675 44.7859 36.7917 44.7859 36.9142C44.7859 37.045 44.702 37.1636 44.5059 37.1636H43.9514C43.8071 37.1636 43.6962 37.1532 43.6589 37.1808C43.6216 37.2096 43.5978 37.2604 43.5978 37.3683V37.8707C43.5978 38.1231 43.6176 38.1747 43.7387 38.2033C43.8159 38.2224 43.9736 38.2423 44.3493 38.2423C44.7018 38.2423 44.8875 38.2315 45.0027 38.2179C45.1608 38.1997 45.3938 37.9318 45.5091 37.7871C45.5784 37.6969 45.6063 37.6828 45.7041 37.6828C45.825 37.6828 45.8894 37.7304 45.9039 37.7913C45.9118 37.8242 45.9073 37.8563 45.8798 37.932V37.9319ZM53.8223 36.3421C53.7482 36.3421 53.6883 36.3141 53.6289 36.2339C53.5943 36.1923 53.587 36.1827 53.5722 36.1694C53.5041 36.0838 53.386 35.9195 53.303 35.8911C53.2253 35.8627 53.1214 35.8547 52.8583 35.8547C52.5247 35.8547 52.4828 35.8779 52.4828 36.0837V37.8666C52.4828 38.049 52.4828 38.0913 52.5009 38.1429C52.5247 38.2034 52.5798 38.2424 52.6409 38.2424H52.8343C52.9426 38.2424 53.0242 38.3303 53.0242 38.4424C53.0242 38.5925 52.9426 38.6489 52.6826 38.6489H51.2765C51.0264 38.6489 50.9392 38.5925 50.9392 38.4424C50.9392 38.3303 51.0264 38.2424 51.1195 38.2424H51.3282C51.3751 38.2424 51.4298 38.2034 51.4527 38.1429C51.4719 38.0913 51.4852 38.049 51.4852 37.8666V36.0837C51.4852 35.8838 51.4527 35.8547 51.0365 35.8547C50.6785 35.8547 50.5034 35.9996 50.3771 36.1776L50.3398 36.2304C50.2769 36.323 50.2201 36.3421 50.126 36.3421C50.0251 36.3421 49.8854 36.2899 49.8773 36.2304C49.8773 36.2161 49.8855 36.1635 49.9 36.1267L50.1142 35.5682C50.1553 35.451 50.1883 35.4465 50.3544 35.4465H53.609C53.7158 35.4465 53.7209 35.451 53.7676 35.47C53.7903 35.479 53.8071 35.5125 53.8312 35.5681L54.063 36.1539C54.0727 36.1824 54.0858 36.2159 54.0823 36.2302C54.073 36.286 53.9329 36.3421 53.8223 36.3421Z" fill="#afafaf"/>
<path d="M18.0175 36.4554C17.9619 36.3325 17.9388 36.2339 17.9256 36.1585H17.8973C17.879 36.2305 17.8318 36.3371 17.7804 36.4554L17.4289 37.2438L17.3594 37.354L17.4802 37.3421H18.338L18.4356 37.354L18.375 37.2438L18.0175 36.4554Z" fill="#afafaf"/>
<path d="M5.25619 18.2569C5.5103 18.9552 5.76513 19.1738 6.29237 19.1738C6.52902 19.1738 6.76458 19.0839 6.90982 18.9728C7.0547 18.826 7.10974 18.6967 7.27352 18.2569L9.05458 13.2195L10.7265 18.2569C10.944 18.9357 11.217 19.1738 11.7619 19.1738C12.3072 19.1738 12.5439 18.9182 12.8161 18.0172L15.7051 8.58794C15.9076 7.94195 16.0341 7.76828 16.4128 7.68735H16.5121C16.6404 7.68735 16.767 7.77912 16.822 7.92581C16.876 8.05382 16.876 8.14595 16.876 8.64333V16.8963C16.876 17.3908 16.876 17.4825 16.822 17.6301C16.7847 17.7588 16.6404 17.8512 16.5121 17.8512H16.1489C15.8951 17.8512 15.6767 18.0906 15.6767 18.3656C15.6767 18.7704 15.8951 18.8988 16.5121 18.8988H19.82C20.4021 18.8988 20.6019 18.7705 20.6019 18.3842C20.6019 18.0905 20.4203 17.8512 20.1663 17.8512H19.82C19.6742 17.8512 19.5291 17.7588 19.4752 17.6301C19.438 17.4825 19.4201 17.3741 19.4201 16.8963V13.5321C19.4201 12.6869 19.4933 12.613 20.1663 12.613H22.637C22.9995 12.613 23.1821 12.6684 23.2721 12.7795C23.3642 12.8891 23.3642 12.9632 23.3642 13.6432V16.8967C23.3642 17.3745 23.3642 17.4829 23.3095 17.6305C23.2552 17.7591 23.1086 17.8516 22.9822 17.8516H22.637C22.3817 17.8516 22.1642 18.0909 22.1642 18.366C22.1642 18.7707 22.3647 18.8991 22.9822 18.8991H26.2891C26.9265 18.8991 27.1254 18.7709 27.1254 18.366C27.1254 18.0909 26.9265 17.8516 26.6536 17.8516H26.289C26.1616 17.8516 26.0173 17.7591 25.9795 17.6305C25.9258 17.4829 25.9089 17.3745 25.9089 16.8967V8.64369C25.9089 8.18389 25.9259 8.05419 25.9795 7.92617C26.0172 7.79731 26.1616 7.68772 26.289 7.68772H26.6536C26.9073 7.68772 27.1254 7.46697 27.1254 7.17336C27.1254 6.76859 26.9073 6.63948 26.2891 6.63948H22.9822C22.3647 6.63948 22.1455 6.76847 22.1455 7.17336C22.1455 7.46697 22.3647 7.68772 22.6371 7.68772H22.9823C23.1087 7.68772 23.2553 7.77949 23.3096 7.92617C23.3643 8.05419 23.3643 8.16534 23.3643 8.64369V11.3629H19.4202V8.64369C19.4202 8.18389 19.4381 8.05419 19.4753 7.92617C19.5292 7.79731 19.6743 7.68772 19.8201 7.68772H20.1664C20.4204 7.68772 20.6192 7.46697 20.6192 7.17336C20.6192 6.76859 20.4204 6.63948 19.8201 6.63948H13.8157C13.3254 6.63948 13.1251 6.78678 13.1251 7.15421C13.1251 7.4483 13.3068 7.63256 13.7061 7.66845C14.1425 7.72252 14.3423 7.87065 14.3423 8.14631C14.3423 8.25711 14.324 8.40308 14.2697 8.58818L12.1256 15.6282L9.96323 8.89998C9.81726 8.45932 9.78137 8.29409 9.78137 8.12838C9.78137 7.79731 9.9082 7.68772 10.3986 7.63268C10.7988 7.57716 10.9811 7.42939 10.9811 7.1353C10.9811 6.80532 10.7808 6.6396 10.3633 6.6396H6.80132C6.38306 6.6396 6.16411 6.84061 6.16411 7.18986C6.16411 7.46697 6.30983 7.59559 6.69136 7.68772C7.10974 7.79731 7.25545 7.88931 7.36384 8.16547C7.40034 8.23857 7.43755 8.38465 7.50933 8.5883L8.345 11.0512L6.65559 15.8114L4.20241 8.89985L4.05669 8.47762C4.00249 8.32973 3.98359 8.20075 3.98359 8.07383C3.98359 7.77925 4.14762 7.64978 4.54733 7.61341C5.01977 7.57691 5.20199 7.4483 5.20199 7.13506C5.20199 6.80508 5.01978 6.63936 4.60237 6.63936H0.857566C0.439789 6.63936 0.240234 6.80508 0.240234 7.11711C0.240234 7.41133 0.367653 7.53994 0.749783 7.61341C1.33038 7.74299 1.42131 7.83464 1.69444 8.58806L5.25619 18.2569Z" fill="#afafaf"/>
<path d="M17.7133 33.0928C20.7875 33.0928 22.9221 31.3409 23.5507 28.4819C24.1629 31.3173 26.2909 33.0928 29.3086 33.0928C32.9986 33.0928 35.3417 30.5735 35.3417 26.64C35.3417 22.7788 32.9986 20.2975 29.344 20.2975C26.3032 20.2975 24.1874 22.0343 23.5618 24.8858C22.9498 22.0451 20.8126 20.2975 17.7506 20.2975C14.0972 20.2975 11.7705 22.7981 11.7705 26.7317C11.7705 30.5735 14.1153 33.0928 17.7133 33.0928ZM29.3266 21.6033C31.3442 21.6033 32.6159 23.569 32.6159 26.7316C32.6159 29.8199 31.3617 31.7686 29.3639 31.7686C27.31 31.7686 26.0911 29.8947 26.0911 26.7494C26.0911 23.5519 27.3101 21.6033 29.3266 21.6033ZM17.7312 21.6033C19.7488 21.6033 21.0206 23.569 21.0206 26.7316C21.0206 29.8199 19.7669 31.7686 17.7679 31.7686C15.7141 31.7686 14.4962 29.8947 14.4962 26.7494C14.4962 23.5519 15.7141 21.6033 17.7312 21.6033Z" fill="#afafaf"/>
</g>
<defs>
<clipPath id="clip0_8_3853">
<rect width="58.4619" height="40" fill="#afafaf" transform="translate(0.210938)"/>
</clipPath>
</defs>
</svg>
