<svg width="110" height="31" viewBox="0 0 110 31" fill="none" xmlns="http://www.w3.org/2000/svg">
<path d="M55.0275 24.5317C53.4551 24.5317 51.7125 24.5317 49.653 24.5317C49.653 21.696 49.657 18.9553 49.6491 16.2146C49.6491 15.5571 49.8827 12.4996 47.4193 12.7055C45.9697 12.8085 45.5261 13.8858 45.4351 14.6383C45.1578 16.9829 45.2846 19.3751 45.2727 21.7474C45.2608 24.6703 45.2687 24.6782 42.4013 24.6624C41.5577 24.6584 40.7141 24.5911 39.7715 24.5515C39.7715 16.373 39.7715 8.34894 39.7715 0.0318152C41.3042 0.0318152 42.8053 -0.0751193 44.2746 0.103105C44.6627 0.150631 45.1974 1.0774 45.2212 1.61999C45.3281 3.90918 45.2648 6.20233 45.2648 8.54301C46.746 8.07566 47.9975 7.49743 49.3045 7.30732C52.4135 6.85978 54.7225 8.33706 54.9443 11.4104C55.2572 15.7155 55.0275 20.0602 55.0275 24.5317Z" fill="#afafaf"/>
<path d="M36.2384 24.6227C34.5472 24.6069 32.9155 25.2762 31.6402 23.9415C31.3828 23.6722 30.9748 23.5851 30.6263 23.7237C26.3172 25.4069 23.5251 24.9118 21.1369 22.0721C18.5546 19.0027 18.3011 14.2263 20.5349 10.7965C22.7528 7.39041 26.5905 6.32503 30.1907 8.17856C30.8996 8.54293 31.2521 8.30134 31.9531 8.07163C33.3789 7.60428 35.0463 7.82211 36.6107 7.8736C36.8285 7.88152 37.2048 8.54689 37.2087 8.91126C37.2444 13.7194 37.2364 18.5274 37.2364 23.6643C37.2325 24.2029 36.781 24.6267 36.2384 24.6227ZM31.763 16.0165C31.7551 14.0164 30.1035 12.4441 28.0757 12.4955C26.1667 12.547 24.5667 14.1629 24.5825 16.0283C24.5984 17.9888 26.3133 19.6364 28.2896 19.5809C30.1867 19.5295 31.7709 17.9056 31.763 16.0165Z" fill="#afafaf"/>
<path d="M20.1869 7.72702C16.8877 15.6323 13.7549 23.1454 10.6301 30.6308C8.54684 30.6308 6.58637 30.6308 4.38035 30.6308C4.90314 29.3397 5.24375 28.1317 5.85367 27.0782C6.88737 25.292 6.66162 23.6959 5.83387 21.882C4.00806 17.87 2.38424 13.7668 0.685173 9.69541C0.463383 9.16866 0.29704 8.61418 0 7.76267C1.99215 7.76267 3.75063 7.67157 5.4893 7.82603C5.93684 7.86564 6.4636 8.59438 6.70123 9.11717C7.77849 11.5054 8.76863 13.9332 10.0202 16.8917C11.1251 14.2698 12.1232 12.1826 12.8836 10.0123C13.4935 8.26961 14.4401 7.4379 16.3531 7.6993C17.4462 7.8498 18.5749 7.72702 20.1869 7.72702Z" fill="#afafaf"/>
<path d="M84.9094 24.8087C80.0498 24.7968 76.1368 20.8719 76.1328 16.0044C76.1289 11.1766 80.0973 7.22393 84.9529 7.21997C89.7491 7.21601 93.7414 11.2162 93.7651 16.052C93.7849 20.8244 89.7491 24.8166 84.9094 24.8087ZM88.458 15.9688C88.4224 13.9766 86.9015 12.4835 84.9173 12.4914C82.941 12.4994 81.3647 14.0361 81.3449 15.9728C81.329 17.9649 83.044 19.6481 85.0282 19.5808C86.9886 19.5174 88.4937 17.9332 88.458 15.9688Z" fill="#afafaf"/>
<path d="M74.5332 16.0563C74.5451 20.9595 70.6954 24.8091 65.7804 24.8052C60.8773 24.8012 57.087 20.9674 57.0791 16.0009C57.0751 11.0977 60.9129 7.24414 65.824 7.21642C70.636 7.19265 74.5174 11.1334 74.5332 16.0563ZM65.7844 12.4958C63.8397 12.5117 62.2278 14.0959 62.2238 15.9969C62.2199 17.9812 63.9427 19.6525 65.9309 19.5852C67.8518 19.5178 69.4241 17.8623 69.3766 15.9573C69.3251 14.0127 67.733 12.48 65.7844 12.4958Z" fill="#afafaf"/>
<path d="M97.1758 15.2522C99.2511 10.2263 101.16 5.55682 103.136 0.919032C103.299 0.53882 103.901 0.134845 104.313 0.115043C106.138 0.0279108 107.972 0.0754373 110 0.0754373C109.849 0.697242 109.798 1.12894 109.64 1.51707C107.941 5.64791 106.198 9.75895 104.538 13.9056C104.134 14.9116 103.6 15.3354 102.499 15.276C100.863 15.1888 99.2194 15.2522 97.1758 15.2522Z" fill="#afafaf"/>
<path d="M98.7841 16.975C100.955 16.9908 102.618 18.7334 102.559 20.9236C102.503 22.9673 100.756 24.6386 98.6931 24.6267C96.5544 24.6148 94.8593 22.8168 94.9226 20.6385C94.986 18.5552 96.6692 16.9591 98.7841 16.975Z" fill="#afafaf"/>
</svg>
