<svg width="305" height="377" viewBox="0 0 305 377" fill="none" xmlns="http://www.w3.org/2000/svg">
<g id="Scene 17">
<g id="Path 142">
<path id="Mask" d="M25.8965 164.267C25.8965 132.372 51.7523 106.516 83.647 106.516H238.13C270.024 106.516 295.88 132.372 295.88 164.267V318.75C295.88 350.644 270.024 376.5 238.13 376.5H83.647C51.7523 376.5 25.8965 350.644 25.8965 318.75V164.267Z" fill="#39C4FF" fill-opacity="0.15"/>
<mask id="mask0" mask-type="alpha" maskUnits="userSpaceOnUse" x="25" y="106" width="271" height="271">
<path id="Mask_2" d="M25.8965 164.267C25.8965 132.372 51.7523 106.516 83.647 106.516H238.13C270.024 106.516 295.88 132.372 295.88 164.267V318.75C295.88 350.644 270.024 376.5 238.13 376.5H83.647C51.7523 376.5 25.8965 350.644 25.8965 318.75V164.267Z" fill="white"/>
</mask>
<g mask="url(#mask0)">
<path id="Path 142 (Stroke)" fill-rule="evenodd" clip-rule="evenodd" d="M18.8725 324.016C18.8727 324.015 18.8732 324.015 15.0679 318.749C11.2626 313.483 11.2635 313.483 11.2647 313.482L11.3191 313.443C11.3528 313.418 11.4013 313.384 11.464 313.339C11.5896 313.249 11.7724 313.118 12.0089 312.951C12.4819 312.615 13.1701 312.131 14.045 311.525C15.7941 310.313 18.2936 308.611 21.3162 306.634C27.3435 302.693 35.5288 297.609 44.0295 293.145C52.4049 288.748 61.5944 284.677 69.5064 283.136C73.4433 282.369 77.6924 282.096 81.5738 283.213C85.7937 284.427 89.3206 287.237 91.1463 291.785C92.1947 294.397 94.1676 296.187 98.5285 297.231C103.248 298.361 109.981 298.373 119.122 297.457C127.361 296.632 136.943 295.129 147.961 293.4C149.032 293.233 150.116 293.062 151.214 292.891C163.53 290.964 177.39 288.851 192.516 287.241C207.704 285.624 217.539 285.656 224.92 286.794C232.175 287.913 236.788 290.076 241.102 292.099C241.296 292.19 241.489 292.28 241.681 292.371C245.925 294.356 250.357 296.357 258.244 297.856C266.292 299.385 278.11 300.416 296.958 300.086L297.186 313.078C277.843 313.417 265.059 312.377 255.819 310.621C246.417 308.835 240.873 306.338 236.175 304.14C236.035 304.075 235.897 304.01 235.76 303.946C231.515 301.958 228.333 300.468 222.94 299.636C217.171 298.747 208.615 298.594 193.892 300.162C179.106 301.736 165.514 303.805 153.223 305.728C152.106 305.903 150.998 306.077 149.9 306.249C138.994 307.96 129.039 309.522 120.417 310.386C111.029 311.327 102.463 311.534 95.5037 309.868C88.1849 308.116 82.0963 304.12 79.0877 296.626C78.885 296.121 78.7015 295.907 77.9813 295.7C76.9226 295.396 75.0018 295.304 71.9912 295.89C66.0084 297.056 58.1927 300.385 50.0701 304.65C42.0727 308.849 34.2671 313.691 28.4279 317.509C25.5172 319.413 23.1147 321.049 21.4451 322.206C20.6106 322.784 19.9601 323.242 19.5219 323.552C19.3028 323.708 19.1369 323.826 19.0276 323.904L18.9065 323.991L18.8732 324.015L18.8725 324.016Z" fill="white"/>
</g>
</g>
<g id="Group 11">
<g id="Dashboard">
<path id="Rectangle" d="M170.286 17.9338C170.286 13.1496 174.165 9.27124 178.949 9.27124H283.37C288.154 9.27124 292.032 13.1496 292.032 17.9338V85.9039C292.032 90.6881 288.154 94.5665 283.37 94.5665H178.949C174.164 94.5665 170.286 90.6881 170.286 85.9039V17.9338Z" fill="#006CFB"/>
<path id="Rectangle_2" d="M158.484 8.66258C158.484 3.87838 162.363 0 167.147 0H271.568C276.352 0 280.231 3.87837 280.231 8.66258V76.6327C280.231 81.4169 276.352 85.2952 271.568 85.2952H167.147C162.363 85.2952 158.484 81.4169 158.484 76.6327V8.66258Z" fill="#E5E9F3"/>
<path id="Oval" fill-rule="evenodd" clip-rule="evenodd" d="M164.696 8.03527C165.726 8.03527 166.56 7.2051 166.56 6.18103C166.56 5.15696 165.726 4.32678 164.696 4.32678C163.667 4.32678 162.833 5.15696 162.833 6.18103C162.833 7.2051 163.667 8.03527 164.696 8.03527Z" fill="white"/>
<path id="Oval_2" fill-rule="evenodd" clip-rule="evenodd" d="M170.286 8.03527C171.315 8.03527 172.15 7.2051 172.15 6.18103C172.15 5.15696 171.315 4.32678 170.286 4.32678C169.257 4.32678 168.423 5.15696 168.423 6.18103C168.423 7.2051 169.257 8.03527 170.286 8.03527Z" fill="#FE9C9A"/>
<path id="Oval_3" fill-rule="evenodd" clip-rule="evenodd" d="M176.498 8.03527C177.527 8.03527 178.362 7.2051 178.362 6.18103C178.362 5.15696 177.527 4.32678 176.498 4.32678C175.469 4.32678 174.635 5.15696 174.635 6.18103C174.635 7.2051 175.469 8.03527 176.498 8.03527Z" fill="#00B77E"/>
<path id="Path 118 (Stroke)" fill-rule="evenodd" clip-rule="evenodd" d="M280.231 12.4138H158.484V11.6919H280.231V12.4138Z" fill="#CBD2DD"/>
</g>
<g id="Card 2">
<path id="Rectangle_3" d="M96.1094 25.9877C96.1094 23.9943 97.7254 22.3783 99.7188 22.3783H245.11C247.104 22.3783 248.72 23.9943 248.72 25.9877V69.3006C248.72 71.294 247.104 72.91 245.11 72.91H99.7188C97.7254 72.91 96.1094 71.294 96.1094 69.3006V25.9877Z" fill="#006CFB"/>
<path id="Rectangle_4" d="M89.9033 25.9848C89.9033 23.9914 91.5193 22.3754 93.5127 22.3754H238.904C240.898 22.3754 242.514 23.9914 242.514 25.9848V69.2977C242.514 71.2911 240.898 72.9071 238.904 72.9071H93.5127C91.5193 72.9071 89.9033 71.2911 89.9033 69.2977V25.9848Z" fill="white"/>
<path id="Rectangle (Stroke)" fill-rule="evenodd" clip-rule="evenodd" d="M89.5449 25.9873C89.5449 23.7946 91.3225 22.017 93.5153 22.017H238.907C241.099 22.017 242.877 23.7946 242.877 25.9873V69.3002C242.877 71.493 241.099 73.2705 238.907 73.2705H93.5153C91.3225 73.2705 89.5449 71.493 89.5449 69.3002V25.9873ZM93.5153 22.7388C91.7212 22.7388 90.2668 24.1932 90.2668 25.9873V69.3002C90.2668 71.0943 91.7212 72.5487 93.5153 72.5487H238.907C240.701 72.5487 242.155 71.0943 242.155 69.3002V25.9873C242.155 24.1932 240.701 22.7388 238.907 22.7388H93.5153Z" fill="#393E46"/>
<g id="Man - Top 1">
<path id="Mask_3" fill-rule="evenodd" clip-rule="evenodd" d="M121.235 66.1308C131.685 66.1308 140.156 57.7159 140.156 47.3355C140.156 36.9551 131.685 28.5402 121.235 28.5402C110.785 28.5402 102.313 36.9551 102.313 47.3355C102.313 57.7159 110.785 66.1308 121.235 66.1308Z" fill="#E5E9F3"/>
<mask id="mask1" mask-type="alpha" maskUnits="userSpaceOnUse" x="102" y="28" width="39" height="39">
<path id="Mask_4" fill-rule="evenodd" clip-rule="evenodd" d="M121.235 66.1308C131.685 66.1308 140.156 57.7159 140.156 47.3355C140.156 36.9551 131.685 28.5402 121.235 28.5402C110.785 28.5402 102.313 36.9551 102.313 47.3355C102.313 57.7159 110.785 66.1308 121.235 66.1308Z" fill="white"/>
</mask>
<g mask="url(#mask1)">
<g id="Man - Top 7">
<g id="man - body 2">
<path id="Path 56" fill-rule="evenodd" clip-rule="evenodd" d="M135.145 74.6104L137.471 79.2283C138.647 81.563 141.038 83.0359 143.652 83.0359C145.809 83.0359 147.842 82.0305 149.152 80.3167L159.003 67.4227L155.431 65.5405L143.696 74.6104L142.423 70.8668L135.145 74.6104Z" fill="#FE9C9A"/>
<path id="Path 14" fill-rule="evenodd" clip-rule="evenodd" d="M114.475 53.1079L109.672 53.5633C103.179 54.1789 99.1556 60.9256 101.7 66.9305L105.102 74.9598L105.77 80.3648C106.058 82.6874 107.125 84.8438 108.797 86.4815H131.236C132.526 84.1845 133.16 81.5776 133.07 78.9449L132.777 70.3762L135.234 75.6634L142.955 71.8938L141.136 65.1704C139.204 58.0313 132.721 53.0776 125.325 53.0899L114.475 53.1079Z" fill="#006CFB"/>
<path id="Path 57" fill-rule="evenodd" clip-rule="evenodd" d="M107.085 74.6103L114.367 69.813L116.482 72.3467L134.979 63.08C135.286 62.9257 135.61 62.8039 135.943 62.7166L141.512 61.2578C141.838 61.1724 142.157 61.4182 142.157 61.755C142.157 61.9504 142.046 62.1289 141.871 62.2156L139.032 63.6218V65.1139C139.032 66.3835 138.281 67.5328 137.118 68.0424L136.68 68.234C135.913 68.5703 135.025 68.4751 134.346 67.9838L122.646 79.3079C121.423 80.4917 119.846 81.244 118.157 81.4506C115.765 81.743 113.372 80.9163 111.671 79.2098L107.085 74.6103Z" fill="#FE9C9A"/>
</g>
<g id="Man - face 1">
<path id="Path 5" fill-rule="evenodd" clip-rule="evenodd" d="M126.715 39.4891L126.526 46.9794C126.479 48.8342 124.962 50.3136 123.107 50.3136V52.9193C123.107 52.9193 125.193 56.6032 122.659 57.6412C120.124 58.6792 116.482 53.7356 116.482 53.7356L117.474 40.6175L122.659 37.9738L126.715 39.4891Z" fill="#FE9C9A"/>
<path id="Path 12" fill-rule="evenodd" clip-rule="evenodd" d="M125.293 46.4464L123.707 46.1451C123.707 46.1451 123.959 47.1565 124.515 47.1468C125.071 47.1371 125.293 46.4464 125.293 46.4464Z" fill="white"/>
<path id="Path 10" d="M125.716 42.7428C125.71 42.6808 125.755 42.6257 125.817 42.6199C125.879 42.614 125.935 42.6596 125.94 42.7216L126.191 45.3765H125.174C125.112 45.3765 125.062 45.326 125.062 45.2637C125.062 45.2013 125.112 45.1508 125.174 45.1508H125.943L125.716 42.7428Z" fill="#393E46"/>
<path id="Rectangle_5" fill-rule="evenodd" clip-rule="evenodd" d="M123.755 41.3215C123.76 41.1658 123.891 41.044 124.047 41.0494L124.836 41.077C124.992 41.0824 125.114 41.213 125.109 41.3688C125.103 41.5245 124.972 41.6463 124.817 41.6408L124.027 41.6133C123.871 41.6078 123.749 41.4772 123.755 41.3215Z" fill="#393E46"/>
<path id="Rectangle_6" fill-rule="evenodd" clip-rule="evenodd" d="M125.899 41.4348C125.905 41.2791 126.035 41.1573 126.191 41.1627L126.981 41.1903C127.137 41.1957 127.259 41.3263 127.253 41.482C127.248 41.6377 127.117 41.7595 126.961 41.7541L126.171 41.7265C126.016 41.7211 125.894 41.5905 125.899 41.4348Z" fill="#393E46"/>
<path id="Path 11 (Stroke)" fill-rule="evenodd" clip-rule="evenodd" d="M119.995 42.2199C120.087 42.1843 120.133 42.0817 120.099 41.9891C120.065 41.8956 119.961 41.8478 119.867 41.8823L119.93 42.0516C119.867 41.8823 119.867 41.8824 119.867 41.8824L119.867 41.8825L119.866 41.8827L119.865 41.8832L119.862 41.8844L119.854 41.8879C119.847 41.8906 119.839 41.8943 119.829 41.8991C119.81 41.9087 119.785 41.9227 119.757 41.9422C119.7 41.981 119.63 42.0433 119.573 42.1371C119.455 42.3361 119.431 42.6237 119.621 43.0134C119.665 43.103 119.773 43.1403 119.863 43.0966C119.952 43.053 119.989 42.945 119.946 42.8554C119.793 42.5427 119.843 42.3889 119.883 42.3222C119.907 42.2831 119.937 42.2564 119.961 42.2394C119.974 42.231 119.984 42.2254 119.99 42.2224C119.993 42.221 119.994 42.2202 119.995 42.2199Z" fill="#393E46"/>
<path id="Oval_4" fill-rule="evenodd" clip-rule="evenodd" d="M121.956 42.2812C121.956 43.216 122.714 43.9738 123.649 43.9738C124.584 43.9738 125.343 43.216 125.343 42.2812C125.343 41.3464 124.584 40.5886 123.649 40.5886C122.714 40.5886 121.956 41.3464 121.956 42.2812ZM125.117 42.2812C125.117 43.0914 124.46 43.7481 123.649 43.7481C122.839 43.7481 122.182 43.0914 122.182 42.2812C122.182 41.4711 122.839 40.8143 123.649 40.8143C124.46 40.8143 125.117 41.4711 125.117 42.2812Z" fill="white"/>
<g id="Group 4">
<path id="Oval_5" fill-rule="evenodd" clip-rule="evenodd" d="M125.964 42.3949C125.964 43.3296 126.722 44.0874 127.657 44.0874C128.592 44.0874 129.35 43.3296 129.35 42.3949C129.35 41.4601 128.592 40.7023 127.657 40.7023C126.722 40.7023 125.964 41.4601 125.964 42.3949ZM129.125 42.3949C129.125 43.205 128.468 43.8618 127.657 43.8618C126.847 43.8618 126.19 43.205 126.19 42.3949C126.19 41.5847 126.847 40.9279 127.657 40.9279C128.468 40.9279 129.125 41.5847 129.125 42.3949Z" fill="white"/>
<path id="Path" d="M126.554 43.6775C126.507 43.6368 126.501 43.5656 126.542 43.5183C126.583 43.4711 126.654 43.4657 126.701 43.5064C126.966 43.7337 127.302 43.8608 127.658 43.8608C128.468 43.8608 129.125 43.204 129.125 42.3939C129.125 41.5837 128.468 40.927 127.658 40.927C127.595 40.927 127.533 40.9309 127.472 40.9386C127.41 40.9464 127.353 40.9026 127.346 40.8408C127.338 40.779 127.382 40.7225 127.443 40.7147C127.514 40.7058 127.586 40.7013 127.658 40.7013C128.593 40.7013 129.351 41.4591 129.351 42.3939C129.351 43.3287 128.593 44.0865 127.658 44.0865C127.247 44.0865 126.859 43.9397 126.554 43.6775Z" fill="#393E46"/>
</g>
<path id="Oval_6" fill-rule="evenodd" clip-rule="evenodd" d="M126.568 42.5064C126.692 42.5064 126.793 42.4054 126.793 42.2807C126.793 42.1561 126.692 42.0551 126.568 42.0551C126.443 42.0551 126.342 42.1561 126.342 42.2807C126.342 42.4054 126.443 42.5064 126.568 42.5064Z" fill="#19243D"/>
<path id="Oval_7" fill-rule="evenodd" clip-rule="evenodd" d="M124.224 42.5064C124.348 42.5064 124.45 42.4054 124.45 42.2807C124.45 42.1561 124.348 42.0551 124.224 42.0551C124.099 42.0551 123.998 42.1561 123.998 42.2807C123.998 42.4054 124.099 42.5064 124.224 42.5064Z" fill="#19243D"/>
<path id="Path 6" fill-rule="evenodd" clip-rule="evenodd" d="M117.008 47.2276L119.651 43.5121L119.051 42.8464C118.763 42.5269 118.726 42.0535 118.961 41.6929C119.207 41.3143 119.687 41.162 120.106 41.3288L120.262 41.3907C120.532 41.4979 120.727 41.7369 120.779 42.0227L120.964 43.0527C120.995 43.2261 121.145 43.3522 121.322 43.3522C121.513 43.3522 121.672 43.2041 121.689 43.0131C121.742 42.4218 121.872 41.2456 122.094 41.042C122.392 40.768 123.123 40.9744 123.266 39.1088C124.256 39.7441 126.714 39.4891 126.714 39.4891L126.649 41.6659C126.649 41.6659 128.465 39.9088 128.465 38.2526C128.465 36.5964 127.008 37.1301 127.008 37.1301C127.008 37.1301 127.628 34.0514 125.576 34.57C123.524 35.0886 119.868 34.3022 117.474 37.1301C114.706 37.8631 115.175 39.2344 115.462 40.6341C115.748 42.0339 117.008 47.2276 117.008 47.2276Z" fill="#393E46"/>
<path id="Path 7" fill-rule="evenodd" clip-rule="evenodd" d="M123.107 50.314H120.012L123.107 51.6656V50.314Z" fill="#393E46"/>
</g>
</g>
</g>
</g>
<g id="Group 3">
<path id="Path 98 (Stroke)" fill-rule="evenodd" clip-rule="evenodd" d="M154.349 43.9043C154.349 43.7049 154.51 43.5433 154.71 43.5433H205.445C205.644 43.5433 205.806 43.7049 205.806 43.9043C205.806 44.1036 205.644 44.2652 205.445 44.2652H154.71C154.51 44.2652 154.349 44.1036 154.349 43.9043Z" fill="#393E46"/>
<path id="Path 98 (Stroke)_2" fill-rule="evenodd" clip-rule="evenodd" d="M154.349 50.0663C154.349 49.8669 154.51 49.7053 154.71 49.7053H186.834C187.033 49.7053 187.195 49.8669 187.195 50.0663C187.195 50.2656 187.033 50.4272 186.834 50.4272H154.71C154.51 50.4272 154.349 50.2656 154.349 50.0663Z" fill="#393E46"/>
<path id="Path 98 (Stroke)_3" fill-rule="evenodd" clip-rule="evenodd" d="M154.349 56.2291C154.349 56.0298 154.51 55.8682 154.71 55.8682H217.852C218.051 55.8682 218.213 56.0298 218.213 56.2291C218.213 56.4284 218.051 56.59 217.852 56.59H154.71C154.51 56.59 154.349 56.4284 154.349 56.2291Z" fill="#393E46"/>
<path id="Rectangle_7" d="M154.425 36.7627C154.425 35.9654 155.071 35.319 155.869 35.319H190.203C191 35.319 191.647 35.9654 191.647 36.7627V36.9564C191.647 37.7538 191 38.4002 190.203 38.4002H155.869C155.071 38.4002 154.425 37.7538 154.425 36.9564V36.7627Z" fill="#393E46"/>
</g>
</g>
<g id="Man 8">
<g id="Man - Low 8">
<path id="Path 53" fill-rule="evenodd" clip-rule="evenodd" d="M159.174 196.593L281.485 300.583L262.338 316.783L109.177 196.593H159.174Z" fill="#39C4FF"/>
<path id="Path 25" fill-rule="evenodd" clip-rule="evenodd" d="M229.228 316.858L231.871 328.034L244.552 334.809C246.505 335.852 245.819 338.806 243.607 338.884L219.76 339.715L211.971 317.46L229.228 316.858Z" fill="#393E46"/>
<path id="Path 25_2" fill-rule="evenodd" clip-rule="evenodd" d="M280.272 301.369L287.403 306.643L301.576 304.183C303.756 303.804 305.034 306.555 303.337 307.976L285.059 323.297L267.044 312.457L280.272 301.369Z" fill="#393E46"/>
<g id="Path 62">
<path id="Mask_5" fill-rule="evenodd" clip-rule="evenodd" d="M108.155 196.593L107.536 204.878C106.33 221.003 115.995 235.962 131.191 241.489L184.787 260.985L206.139 320.139L229.8 317.498L214.808 250.361C211.874 237.224 201.874 226.81 188.865 223.348L151.987 213.532L147.906 196.593H108.155Z" fill="#39C4FF"/>
<mask id="mask2" mask-type="alpha" maskUnits="userSpaceOnUse" x="107" y="196" width="123" height="125">
<path id="Mask_6" fill-rule="evenodd" clip-rule="evenodd" d="M108.155 196.593L107.536 204.878C106.33 221.003 115.995 235.962 131.191 241.489L184.787 260.985L206.139 320.139L229.8 317.498L214.808 250.361C211.874 237.224 201.874 226.81 188.865 223.348L151.987 213.532L147.906 196.593H108.155Z" fill="white"/>
</mask>
<g mask="url(#mask2)">
<path id="Path 63 (Stroke)" fill-rule="evenodd" clip-rule="evenodd" d="M167.802 229.649C165.247 230.602 162.464 232.311 161.086 233.496C159.021 235.271 155.434 239.637 152.342 243.592C150.801 245.563 149.391 247.422 148.366 248.788C147.854 249.471 147.438 250.031 147.15 250.419C147.049 250.555 146.964 250.67 146.897 250.762L154.897 257.918C154.98 257.866 155.083 257.8 155.205 257.721C155.544 257.5 156.028 257.173 156.6 256.753C157.746 255.911 159.244 254.696 160.657 253.204C163.5 250.2 165.909 246.169 164.63 241.815C163.942 239.469 164.205 237.831 165.048 236.632C165.872 235.458 167.209 234.775 168.497 234.229C168.805 234.099 169.115 233.974 169.417 233.853L169.465 233.834C169.784 233.706 170.094 233.582 170.39 233.454C170.987 233.198 171.512 232.937 171.929 232.633C172.343 232.331 172.634 231.999 172.786 231.605C172.937 231.213 172.967 230.72 172.788 230.066C172.684 229.685 172.491 229.429 172.235 229.257C171.972 229.081 171.618 228.976 171.17 228.95C170.267 228.898 169.084 229.17 167.802 229.649ZM154.857 258.366C155.041 258.677 155.041 258.677 155.041 258.676L155.044 258.675L155.051 258.67L155.08 258.653C155.106 258.638 155.142 258.615 155.19 258.586C155.285 258.527 155.424 258.44 155.598 258.326C155.948 258.098 156.443 257.764 157.028 257.334C158.197 256.476 159.73 255.233 161.181 253.7C164.066 250.652 166.716 246.356 165.323 241.611C164.676 239.407 164.958 238.014 165.638 237.047C166.335 236.054 167.498 235.436 168.778 234.894C169.08 234.766 169.384 234.644 169.688 234.522L169.734 234.504C170.052 234.376 170.369 234.249 170.676 234.117C171.285 233.855 171.87 233.569 172.354 233.216C172.84 232.862 173.242 232.428 173.459 231.865C173.678 231.298 173.694 230.643 173.485 229.876C173.338 229.34 173.048 228.933 172.638 228.658C172.235 228.388 171.743 228.26 171.212 228.23C170.158 228.168 168.862 228.483 167.55 228.972C164.919 229.954 162.061 231.705 160.615 232.948C158.485 234.78 154.852 239.21 151.774 243.148C150.229 245.124 148.816 246.986 147.789 248.355C147.275 249.039 146.858 249.6 146.57 249.99C146.425 250.185 146.313 250.337 146.237 250.441L146.121 250.598C146.121 250.599 146.12 250.599 146.411 250.812L146.12 250.599L145.927 250.863L154.813 258.811L155.041 258.676L154.857 258.366Z" fill="white"/>
<path id="Path 62 (Stroke)" fill-rule="evenodd" clip-rule="evenodd" d="M161.949 213.656C158.687 220.983 154.07 230.682 144.024 233.569C134.007 236.447 124.257 232.262 117.06 227.421C113.454 224.995 110.47 222.393 108.388 220.398C107.347 219.4 106.53 218.553 105.973 217.955C105.695 217.656 105.481 217.419 105.337 217.256C105.265 217.175 105.21 217.112 105.173 217.07L105.131 217.021L105.12 217.008L105.117 217.005L105.116 217.004C105.116 217.004 105.116 217.004 105.391 216.77L105.415 216.749C105.666 216.536 105.666 216.536 105.666 216.536L105.666 216.537L105.669 216.539L105.678 216.551L105.718 216.596C105.753 216.637 105.806 216.698 105.877 216.777C106.018 216.936 106.227 217.168 106.502 217.463C107.05 218.053 107.857 218.89 108.888 219.877C110.949 221.852 113.9 224.426 117.462 226.822C124.6 231.623 134.118 235.664 143.825 232.875C153.504 230.094 158.008 220.735 161.289 213.363C161.422 213.066 161.552 212.772 161.68 212.482C162.345 210.983 162.965 209.585 163.572 208.381C164.294 206.95 165.017 205.753 165.808 204.971C166.612 204.177 167.527 203.774 168.588 204.042C169.605 204.3 170.675 205.158 171.864 206.644C173.103 208.191 173.548 209.901 173.369 211.709C173.192 213.503 172.402 215.378 171.202 217.284C168.804 221.091 164.704 225.12 160.272 229.019C158.052 230.971 155.741 232.898 153.509 234.753C153.365 234.872 153.222 234.991 153.078 235.11C150.999 236.838 148.998 238.501 147.208 240.066C145.294 241.739 143.63 243.294 142.375 244.69C141.111 246.096 140.299 247.302 140.033 248.278C139.496 250.247 140.231 252.454 142.024 254.276C143.813 256.095 146.637 257.502 150.184 257.83C157.264 258.485 167.263 254.835 177.511 241.493C187.84 228.047 198.285 221.833 204.837 220.187C206.476 219.775 207.889 219.644 209.004 219.769C210.109 219.893 210.985 220.277 211.45 220.961C211.926 221.661 211.895 222.563 211.438 223.541C210.982 224.516 210.08 225.622 208.704 226.819C206.053 229.124 202.885 231.465 199.786 233.756L199.516 233.956C196.324 236.315 193.225 238.617 190.822 240.786C189.621 241.87 188.603 242.914 187.837 243.906C187.069 244.902 186.572 245.826 186.385 246.673C186.201 247.506 186.316 248.27 186.79 248.983C187.273 249.709 188.149 250.41 189.542 251.058C192.21 252.299 194.849 251.39 197.469 249.308C200.091 247.223 202.604 244.028 204.957 240.891C205.273 240.47 205.586 240.05 205.897 239.633C207.881 236.972 209.747 234.468 211.429 232.955C212.398 232.084 213.369 231.48 214.319 231.422C215.316 231.36 216.176 231.899 216.893 233.029C218.309 235.262 218.451 238.007 217.703 240.825C216.954 243.644 215.309 246.567 213.097 249.21C208.683 254.483 201.93 258.727 195.33 258.727C188.923 258.727 185.465 256.712 182.808 255.164C182.747 255.128 182.687 255.093 182.627 255.058C181.284 254.276 180.192 253.669 179.015 253.487C177.861 253.309 176.582 253.536 174.873 254.54C171.524 256.507 170.573 260.075 171.335 263.754C172.098 267.442 174.579 271.171 177.989 273.314C181.383 275.448 186.05 276.494 193.293 274.375C200.553 272.251 210.384 266.95 224.057 256.402C227.484 253.758 230.03 252.072 231.845 251.166C232.751 250.714 233.497 250.445 234.093 250.357C234.685 250.27 235.205 250.354 235.551 250.713C235.889 251.063 235.968 251.579 235.922 252.124C235.875 252.679 235.693 253.345 235.413 254.088C234.85 255.576 233.859 257.451 232.609 259.513C230.104 263.642 226.523 268.578 223.125 272.786C221.426 274.89 219.769 276.815 218.313 278.368C216.862 279.916 215.593 281.113 214.671 281.744C211.081 284.2 204.773 286.883 199.395 288.944C196.699 289.977 194.227 290.858 192.428 291.48C191.528 291.792 190.797 292.038 190.29 292.207C190.124 292.263 189.983 292.31 189.867 292.348L194.08 302.931C194.266 302.803 194.519 302.629 194.831 302.414C195.551 301.916 196.588 301.197 197.855 300.309C200.39 298.534 203.846 296.086 207.53 293.393C214.911 287.998 223.172 281.651 226.811 277.768C227.759 276.755 228.704 276.181 229.628 276.016C230.564 275.849 231.427 276.11 232.182 276.667C233.663 277.76 234.758 280.014 235.369 282.616C235.983 285.237 236.126 288.29 235.635 291.067C235.145 293.838 234.014 296.384 232.032 297.923C230.087 299.432 226.945 300.582 223.387 301.587C221.02 302.256 218.435 302.869 215.856 303.48C214.55 303.79 213.246 304.1 211.972 304.416C208.166 305.36 204.632 306.364 202.052 307.622C199.445 308.894 197.97 310.347 197.97 312.121C197.97 312.542 198.097 312.879 198.329 313.159C198.566 313.445 198.931 313.689 199.432 313.885C200.442 314.278 201.924 314.44 203.756 314.408C207.411 314.344 212.304 313.513 217.223 312.425C222.135 311.339 227.05 310.002 230.738 308.936C232.582 308.403 234.118 307.939 235.194 307.607C235.731 307.441 236.154 307.309 236.441 307.218C236.585 307.172 236.695 307.137 236.769 307.114L236.853 307.087L236.88 307.078L236.881 307.078C236.881 307.078 236.881 307.078 236.992 307.421C237.103 307.765 237.103 307.765 237.103 307.765L237.101 307.765L236.989 307.801C236.914 307.825 236.803 307.861 236.659 307.906C236.37 307.998 235.946 308.131 235.406 308.297C234.328 308.63 232.787 309.096 230.939 309.63C227.243 310.698 222.312 312.039 217.379 313.13C212.451 314.22 207.499 315.065 203.769 315.13C201.909 315.163 200.314 315.003 199.17 314.557C198.595 314.333 198.113 314.029 197.774 313.62C197.429 313.205 197.248 312.703 197.248 312.121C197.248 309.887 199.107 308.256 201.735 306.974C204.392 305.678 207.995 304.659 211.798 303.715C213.088 303.395 214.401 303.084 215.711 302.773C218.28 302.164 220.837 301.557 223.19 300.892C226.751 299.887 229.767 298.766 231.589 297.352C233.374 295.967 234.451 293.621 234.924 290.941C235.397 288.268 235.26 285.314 234.666 282.781C234.067 280.23 233.024 278.186 231.753 277.247C231.131 276.788 230.465 276.6 229.755 276.726C229.036 276.855 228.222 277.317 227.337 278.261C223.643 282.204 215.323 288.592 207.956 293.976C204.267 296.672 200.807 299.123 198.269 300.901C197.001 301.789 195.962 302.51 195.241 303.008C194.881 303.257 194.599 303.45 194.408 303.582L194.117 303.781L194.116 303.782C194.116 303.782 194.116 303.782 193.912 303.484L194.116 303.782L193.743 304.036L188.912 291.9L189.278 291.781L189.29 291.816C189.278 291.781 189.278 291.781 189.278 291.781L189.279 291.781L189.282 291.78L189.291 291.777L189.329 291.765L189.481 291.715C189.57 291.686 189.687 291.647 189.831 291.6C189.901 291.576 189.978 291.55 190.062 291.523C190.566 291.354 191.295 291.108 192.191 290.798C193.985 290.177 196.45 289.299 199.137 288.27C204.522 286.206 210.753 283.549 214.263 281.148C215.116 280.565 216.339 279.418 217.786 277.875C219.227 276.338 220.872 274.426 222.564 272.332C225.948 268.142 229.509 263.232 231.991 259.139C233.234 257.09 234.198 255.259 234.737 253.833C235.008 253.117 235.164 252.523 235.202 252.064C235.242 251.594 235.153 251.34 235.032 251.214C234.919 251.098 234.688 250.999 234.198 251.071C233.712 251.143 233.046 251.374 232.168 251.812C230.416 252.686 227.915 254.338 224.498 256.973C210.797 267.543 200.883 272.906 193.495 275.068C186.089 277.234 181.203 276.187 177.605 273.926C174.024 271.675 171.43 267.776 170.628 263.901C169.823 260.017 170.814 256.087 174.507 253.918C176.319 252.853 177.766 252.564 179.125 252.773C180.46 252.98 181.667 253.664 182.99 254.434C183.051 254.47 183.112 254.505 183.174 254.541C185.795 256.068 189.118 258.005 195.33 258.005C201.644 258.005 208.212 253.921 212.544 248.746C214.706 246.164 216.29 243.332 217.005 240.64C217.72 237.948 217.559 235.427 216.283 233.415C215.653 232.422 215.01 232.102 214.363 232.142C213.669 232.185 212.854 232.644 211.912 233.492C210.288 234.952 208.472 237.387 206.48 240.059C206.169 240.476 205.854 240.899 205.535 241.324C203.187 244.453 200.623 247.722 197.918 249.873C195.21 252.025 192.271 253.123 189.237 251.713C187.78 251.035 186.774 250.261 186.189 249.383C185.596 248.492 185.458 247.524 185.68 246.518C185.899 245.525 186.466 244.503 187.266 243.465C188.068 242.425 189.12 241.35 190.338 240.251C192.773 238.053 195.902 235.73 199.087 233.375L199.346 233.184C202.454 230.887 205.601 228.56 208.23 226.274C209.568 225.111 210.388 224.082 210.784 223.235C211.179 222.39 211.134 221.78 210.852 221.366C210.559 220.935 209.935 220.6 208.923 220.487C207.921 220.374 206.6 220.488 205.013 220.887C198.664 222.483 188.346 228.573 178.084 241.933C167.741 255.396 157.525 259.234 150.117 258.549C146.42 258.207 143.431 256.736 141.509 254.783C139.59 252.832 138.714 250.371 139.336 248.088C139.649 246.938 140.563 245.626 141.838 244.207C143.122 242.778 144.812 241.201 146.733 239.522C148.53 237.951 150.537 236.283 152.615 234.557C152.759 234.437 152.903 234.318 153.047 234.198C155.28 232.342 157.584 230.422 159.795 228.477C164.224 224.581 168.253 220.611 170.591 216.899C171.759 215.044 172.489 213.279 172.651 211.638C172.812 210.009 172.416 208.489 171.3 207.095C170.136 205.64 169.192 204.94 168.411 204.742C167.673 204.556 167.006 204.802 166.316 205.484C165.613 206.179 164.933 207.285 164.216 208.707C163.618 209.893 163.007 211.27 162.342 212.77C162.213 213.061 162.082 213.356 161.949 213.656Z" fill="white"/>
</g>
</g>
</g>
<g id="Man - Top 8">
<g id="Man - body 1">
<g id="Group 3_2">
<path id="Path 15" fill-rule="evenodd" clip-rule="evenodd" d="M184.79 117.764C184.79 117.764 197.391 79.1393 198.7 75.0891C200.01 71.0388 203.59 65.7251 205.215 63.5911C206.438 61.9854 207.726 62.7919 206.569 66.4021C206.188 67.5896 204.912 70.6057 204.116 71.9219C207.775 71.2101 207.573 73.4562 207.573 73.4562C207.573 73.4562 211.325 73.047 211.325 75.0891C213.369 74.9671 213.766 76.8796 213.766 77.8433C213.766 78.807 214.788 83.0124 213.766 83.0124C212.744 83.0124 211.826 80.7187 211.826 80.7187C211.826 80.7187 209.469 86.6073 206.569 85.995C206.221 91.1416 203.876 104.201 201.835 114.913C199.937 124.88 193.003 133.113 183.562 136.827L181 137.835L184.79 117.764Z" fill="#FF9A9F"/>
<path id="Path 16" d="M203.988 84.555C203.967 84.7251 203.811 84.8457 203.641 84.8244C203.471 84.8031 203.35 84.6479 203.371 84.4778C203.609 82.5832 202.832 80.9859 201.007 79.6512L200.759 79.4705L200.937 79.221C201.824 77.9725 202.99 77.4863 204.379 77.7952L204.424 77.8051L204.464 77.8275C206.509 78.9741 208.067 79.2156 209.15 78.6018C209.405 78.4572 209.549 78.3294 209.597 78.23C209.673 78.0721 209.424 77.7883 208.636 77.3121C208.186 77.0401 205.741 75.7344 205.08 75.3592C202.826 74.0796 200.774 74.0796 198.873 75.3475C198.73 75.4427 198.537 75.4043 198.442 75.2617C198.347 75.1191 198.385 74.9263 198.528 74.8311C200.632 73.4279 202.935 73.4279 205.387 74.8194C206.035 75.1872 208.491 76.4986 208.958 76.781C210.019 77.4228 210.442 77.9045 210.157 78.498C210.044 78.7345 209.812 78.9403 209.457 79.1418C208.153 79.8806 206.397 79.6142 204.201 78.3918C203.173 78.177 202.328 78.4852 201.626 79.3413C203.447 80.7691 204.244 82.517 203.988 84.555Z" fill="white"/>
<path id="Path 17" d="M206.047 81.9777C205.363 81.8178 204.843 81.2625 204.728 80.5703L204.385 78.4999C204.357 78.3308 204.472 78.171 204.641 78.143C204.81 78.115 204.97 78.2295 204.998 78.3986L205.341 80.4689C205.415 80.9137 205.749 81.2705 206.189 81.3732C206.539 81.4552 206.891 81.2419 206.98 80.8934L207.413 79.204C207.499 78.8674 207.989 78.9047 208.023 79.2504L208.222 81.2661C208.265 81.6963 208.59 82.0449 209.017 82.1169C209.392 82.1802 209.752 81.9404 209.837 81.5701L211.357 74.9514C211.396 74.7843 211.563 74.6799 211.73 74.7183C211.897 74.7566 212.002 74.9232 211.963 75.0902L210.442 81.709C210.284 82.3998 209.613 82.8472 208.914 82.7291C208.21 82.6104 207.674 82.036 207.604 81.327L207.578 81.0649C207.398 81.7303 206.721 82.1353 206.047 81.9777Z" fill="white"/>
<path id="Path 18" d="M207.989 76.0952C207.975 76.2661 207.826 76.3938 207.655 76.3805C207.484 76.3671 207.356 76.2178 207.369 76.0468L207.574 73.4315C207.587 73.2606 207.736 73.1329 207.908 73.1462C208.079 73.1596 208.207 73.3089 208.193 73.4799L207.989 76.0952Z" fill="white"/>
<path id="Path 19" d="M204.177 73.0116C204.116 73.1719 203.937 73.2524 203.777 73.1914C203.616 73.1304 203.536 72.9511 203.597 72.7909L204.021 71.6767C204.082 71.5164 204.262 71.436 204.422 71.4969C204.582 71.5579 204.663 71.7372 204.602 71.8975L204.177 73.0116Z" fill="white"/>
</g>
<path id="Path 14_2" fill-rule="evenodd" clip-rule="evenodd" d="M119.56 123.731C119.56 123.731 99.1628 125.475 91.5556 131.277C83.9485 137.078 78.3555 170.254 78.3555 170.254L98.9577 171.938L100.429 183.876C101.06 188.992 103.404 193.743 107.079 197.356L156.664 196.428C159.32 191.977 160.634 186.853 160.447 181.673L159.203 147.219L184.789 137.835V117.68L119.56 123.731Z" fill="#006CFB"/>
<g id="Path 50">
<path id="Mask_7" fill-rule="evenodd" clip-rule="evenodd" d="M119.56 123.731C119.56 123.731 99.1628 125.475 91.5556 131.277C83.9485 137.078 78.3555 170.254 78.3555 170.254L98.9577 171.938L100.429 183.876C101.06 188.992 103.404 193.743 107.079 197.356L156.664 196.428C159.32 191.977 160.634 186.853 160.447 181.673L159.203 147.219L184.789 137.835V117.68L119.56 123.731Z" fill="#006CFB"/>
<mask id="mask3" mask-type="alpha" maskUnits="userSpaceOnUse" x="78" y="117" width="107" height="81">
<path id="Mask_8" fill-rule="evenodd" clip-rule="evenodd" d="M119.56 123.731C119.56 123.731 99.1628 125.475 91.5556 131.277C83.9485 137.078 78.3555 170.254 78.3555 170.254L98.9577 171.938L100.429 183.876C101.06 188.992 103.404 193.743 107.079 197.356L156.664 196.428C159.32 191.977 160.634 186.853 160.447 181.673L159.203 147.219L184.789 137.835V117.68L119.56 123.731Z" fill="white"/>
</mask>
<g mask="url(#mask3)">
<path id="Path 50 (Stroke)" fill-rule="evenodd" clip-rule="evenodd" d="M170.595 126.48C162.163 138.104 149.838 151.483 128.923 157.247C108.252 162.944 85.4203 162.838 73.5523 160.537C70.6025 159.965 68.1807 159.231 66.6282 158.33C65.87 157.89 65.1197 157.298 64.7353 156.482C64.2808 155.517 64.4621 154.522 65.0584 153.718C65.5857 153.007 66.4269 152.44 67.4006 151.962C68.4033 151.47 69.6894 151.003 71.2589 150.56C74.4001 149.672 78.8219 148.837 84.7023 148.101C107.924 145.192 129.5 137.824 143.019 130.424C149.838 126.692 154.375 123.074 156.177 120.18C157.06 118.76 157.132 117.772 156.863 117.087C156.58 116.365 155.733 115.493 153.685 114.745C149.421 113.187 146.102 112.838 143.272 113.252C140.441 113.666 137.966 114.862 135.409 116.615C133.481 117.938 131.577 119.525 129.452 121.296C128.716 121.909 127.953 122.544 127.154 123.198C124.082 125.712 120.565 128.418 116.194 130.93C107.346 136.015 99.3763 136.608 93.5954 135.902C90.713 135.549 88.3831 134.876 86.7642 134.285C85.9543 133.99 85.3206 133.714 84.8828 133.509C84.6638 133.407 84.4936 133.321 84.3747 133.26C84.3152 133.229 84.2685 133.204 84.2349 133.186C84.218 133.177 84.2045 133.17 84.1943 133.164L84.1814 133.157L84.1769 133.154L84.175 133.153C84.1743 133.153 84.1735 133.153 84.8818 131.894C85.59 130.636 85.5894 130.636 85.5888 130.636L85.589 130.636L85.6072 130.646C85.6257 130.656 85.657 130.672 85.7006 130.695C85.7878 130.74 85.9244 130.808 86.1081 130.895C86.4757 131.067 87.0306 131.309 87.7538 131.573C89.2012 132.101 91.3156 132.714 93.9455 133.035C99.1892 133.676 106.516 133.161 114.755 128.427C118.927 126.029 122.306 123.435 125.325 120.964C126.07 120.354 126.798 119.747 127.515 119.15C129.674 117.351 131.726 115.64 133.776 114.234C136.546 112.334 139.437 110.894 142.854 110.395C146.272 109.895 150.084 110.355 154.676 112.032C157.057 112.902 158.827 114.189 159.551 116.032C160.289 117.911 159.757 119.891 158.628 121.705C156.404 125.279 151.279 129.195 144.405 132.957C130.538 140.548 108.608 148.017 85.0612 150.966C79.2493 151.694 74.9876 152.507 72.0441 153.339C70.5712 153.755 69.4648 154.165 68.6734 154.554C67.9619 154.904 67.6009 155.189 67.4388 155.365C67.4561 155.383 67.4763 155.403 67.4999 155.425C67.6222 155.538 67.8085 155.676 68.0778 155.833C69.1983 156.483 71.2291 157.145 74.102 157.702C85.5252 159.917 107.907 160.044 128.156 154.463C148.162 148.95 159.999 136.169 168.258 124.785C170.325 121.935 172.163 119.18 173.856 116.64L173.916 116.551C175.578 114.057 177.114 111.753 178.569 109.817C180.034 107.869 181.484 106.202 182.984 105.061C184.503 103.906 186.193 103.204 188.07 103.429C191.221 103.808 194.992 105.809 198.429 108.643C201.9 111.505 205.204 115.357 207.369 119.675C209.535 123.993 210.605 128.874 209.424 133.706C208.235 138.567 204.825 143.141 198.496 146.924C186.099 154.334 166.799 158.723 147.891 162.979L147.291 163.114C128.41 167.364 109.987 171.511 98.3479 178.285C92.3435 181.779 88.4445 184.271 86.1806 186.108C85.0376 187.035 84.421 187.71 84.1378 188.179C84.0167 188.379 83.9866 188.494 83.9794 188.535C84.0284 188.608 84.2433 188.846 84.9479 189.173C85.6631 189.504 86.6597 189.829 87.9514 190.181C89.0819 190.489 90.3788 190.803 91.8361 191.155C92.0326 191.202 92.232 191.25 92.4344 191.299C94.1276 191.709 96.0038 192.169 98.004 192.719C98.4159 192.832 98.992 192.828 99.8046 192.604C100.615 192.38 101.566 191.965 102.673 191.366C104.63 190.308 106.876 188.791 109.448 187.053C109.802 186.814 110.162 186.571 110.529 186.324C116.495 182.304 123.94 177.467 132.249 175.627C143.33 173.173 153.778 174.291 161.427 176.005C165.258 176.864 168.402 177.875 170.594 178.674C171.69 179.073 172.55 179.42 173.139 179.669C173.434 179.794 173.662 179.894 173.817 179.964C173.895 179.999 173.955 180.026 173.997 180.046L174.046 180.068L174.059 180.075L174.064 180.077L174.065 180.077C174.066 180.078 174.066 180.078 173.448 181.383C172.829 182.687 172.83 182.687 172.83 182.687L172.829 182.687L172.822 182.684L172.787 182.667C172.754 182.652 172.703 182.629 172.635 182.598C172.498 182.537 172.29 182.445 172.016 182.329C171.467 182.098 170.653 181.768 169.605 181.387C167.509 180.623 164.485 179.65 160.796 178.823C153.408 177.167 143.412 176.112 132.873 178.446C125.168 180.153 118.142 184.676 112.142 188.719C111.78 188.962 111.422 189.205 111.066 189.445C108.518 191.167 106.139 192.775 104.046 193.907C102.847 194.555 101.679 195.082 100.572 195.387C99.4669 195.692 98.3269 195.802 97.2394 195.503C95.2843 194.966 93.444 194.515 91.7552 194.106C91.5543 194.057 91.3553 194.009 91.1582 193.962C89.7083 193.611 88.3664 193.287 87.1922 192.967C85.8671 192.606 84.6774 192.23 83.7327 191.792C82.8354 191.376 81.8908 190.785 81.4052 189.845C80.8419 188.755 81.0931 187.634 81.6666 186.685C82.2124 185.782 83.143 184.854 84.3611 183.866C86.8195 181.871 90.8988 179.279 96.8955 175.789C108.924 168.788 127.697 164.564 146.279 160.382C146.605 160.309 146.931 160.236 147.257 160.162C166.338 155.867 185.104 151.564 197.014 144.445C202.839 140.964 205.653 136.968 206.619 133.02C207.591 129.043 206.747 124.875 204.788 120.969C202.83 117.063 199.801 113.517 196.592 110.871C193.348 108.196 190.09 106.58 187.725 106.296C186.843 106.19 185.889 106.48 184.731 107.36C183.555 108.254 182.297 109.663 180.877 111.553C179.471 113.422 177.973 115.669 176.285 118.202L176.259 118.242C174.568 120.778 172.701 123.578 170.595 126.48Z" fill="white"/>
</g>
</g>
<g id="Group 5">
<path id="Path 27" fill-rule="evenodd" clip-rule="evenodd" d="M136.619 208.528C136.619 208.528 136.506 206.388 134.957 205.464C133.408 204.54 129.453 206.996 129.453 206.996L136.619 208.528Z" fill="#393E46"/>
<path id="Path 20" fill-rule="evenodd" clip-rule="evenodd" d="M79.5928 170.429C77.8082 180.575 82.3657 190.788 91.1089 196.235L119.267 213.78C123.533 216.437 128.612 217.472 133.577 216.694L138.931 215.856L145.932 217.347C146.651 217.5 147.112 216.605 146.569 216.108L144.93 214.608C145.449 213.747 145.191 212.629 144.346 212.083L139.018 208.641C137.658 207.763 136.118 207.2 134.511 206.995L125.88 205.896L97.6316 175.357L98.3225 171.877L79.5928 170.429Z" fill="#FF9A9F"/>
<path id="Path 26 (Stroke)" fill-rule="evenodd" clip-rule="evenodd" d="M139.135 210.854C139.244 210.686 139.467 210.639 139.634 210.747L145.126 214.305C145.293 214.413 145.341 214.637 145.233 214.804C145.124 214.971 144.901 215.019 144.734 214.911L139.242 211.353C139.075 211.244 139.027 211.021 139.135 210.854Z" fill="white"/>
</g>
<path id="Path 21" d="M99.2603 172.011C99.22 172.178 99.0521 172.28 98.8853 172.24C98.7184 172.2 98.6159 172.032 98.6562 171.865L104.332 148.417C104.373 148.25 104.541 148.148 104.707 148.188C104.874 148.228 104.977 148.396 104.936 148.563L99.2603 172.011Z" fill="white"/>
</g>
<g id="Man - face 2">
<path id="Path 5_2" fill-rule="evenodd" clip-rule="evenodd" d="M142.354 93.4339L141.94 110.004C141.838 114.069 138.514 117.311 134.448 117.311V123.059L135.314 137.924L119.929 124.86L122.101 95.923L133.465 90.0913L142.354 93.4339Z" fill="#FF9A9F"/>
<path id="Path 13" d="M134.487 127.114C134.599 127.035 134.753 127.063 134.831 127.175C134.91 127.288 134.883 127.443 134.771 127.522L133.02 128.758C132.909 128.837 132.754 128.809 132.676 128.697C132.597 128.584 132.624 128.429 132.736 128.35L134.487 127.114Z" fill="#393E46"/>
<path id="Path 13_2" d="M125.801 129.279C125.665 129.259 125.54 129.353 125.521 129.489C125.502 129.625 125.597 129.751 125.732 129.771L127.853 130.077C127.989 130.097 128.114 130.002 128.133 129.866C128.151 129.73 128.057 129.604 127.921 129.585L125.801 129.279Z" fill="#393E46"/>
<path id="Path 10_2" fill-rule="evenodd" clip-rule="evenodd" d="M140.912 99.2372C140.776 99.2501 140.676 99.3715 140.689 99.5084L141.198 104.946L140.421 105.475C140.308 105.552 140.278 105.707 140.355 105.821C140.432 105.935 140.586 105.964 140.699 105.887L141.718 105.192L141.181 99.4616C141.169 99.3248 141.048 99.2243 140.912 99.2372ZM141.198 104.946L141.32 104.863L141.212 105.092L141.198 104.946Z" fill="#393E46"/>
<path id="Rectangle_8" fill-rule="evenodd" clip-rule="evenodd" d="M136.03 97.4763C136.042 97.1327 136.33 96.8639 136.674 96.876L138.397 96.9365C138.74 96.9486 139.009 97.2366 138.997 97.58C138.985 97.9235 138.697 98.1923 138.353 98.1803L136.63 98.1197C136.287 98.1077 136.018 97.8196 136.03 97.4763Z" fill="#393E46"/>
<path id="Rectangle_9" fill-rule="evenodd" clip-rule="evenodd" d="M140.731 97.7256C140.743 97.3821 141.031 97.1133 141.375 97.1254L143.098 97.1859C143.442 97.198 143.71 97.486 143.698 97.8294C143.686 98.1729 143.398 98.4417 143.054 98.4297L141.331 98.3691C140.988 98.357 140.719 98.069 140.731 97.7256Z" fill="#393E46"/>
<path id="Path 11" d="M127.562 98.8527C127.691 98.805 127.833 98.8709 127.88 98.9999C127.928 99.1288 127.862 99.272 127.734 99.3196C127.186 99.5234 127.106 100.007 127.55 100.924C127.609 101.048 127.558 101.197 127.435 101.257C127.313 101.317 127.165 101.266 127.105 101.142C126.549 99.9938 126.683 99.1795 127.562 98.8527Z" fill="#393E46"/>
<path id="Oval_8" fill-rule="evenodd" clip-rule="evenodd" d="M142.194 100.09C142.467 100.09 142.689 99.8676 142.689 99.5927C142.689 99.3177 142.467 99.0948 142.194 99.0948C141.921 99.0948 141.699 99.3177 141.699 99.5927C141.699 99.8676 141.921 100.09 142.194 100.09Z" fill="#393E46"/>
<path id="Oval_9" fill-rule="evenodd" clip-rule="evenodd" d="M137.988 100.09C138.261 100.09 138.483 99.8676 138.483 99.5927C138.483 99.3177 138.261 99.0948 137.988 99.0948C137.715 99.0948 137.493 99.3177 137.493 99.5927C137.493 99.8676 137.715 100.09 137.988 100.09Z" fill="#393E46"/>
<path id="Path 6_2" fill-rule="evenodd" clip-rule="evenodd" d="M121.08 110.504C121.08 110.504 123.412 109.858 124.488 108.336C125.563 106.815 126.874 102.308 126.874 102.308L125.553 100.834C124.924 100.131 124.843 99.0949 125.355 98.3033C125.898 97.4644 126.958 97.127 127.886 97.498L128.209 97.6272C128.803 97.8646 129.232 98.3915 129.344 99.0208L129.751 101.299C129.818 101.679 130.149 101.955 130.535 101.955C130.955 101.955 131.303 101.631 131.34 101.212C131.455 99.9097 131.741 97.309 132.227 96.8594C132.881 96.255 134.482 96.7102 134.796 92.5951C136.966 93.9964 142.354 93.4339 142.354 93.4339L142.211 98.2355C142.211 98.2355 142.867 95.2437 142.867 91.5903C142.867 87.9369 139.144 83.9116 133.753 83.9116C128.363 83.9116 123.244 83.9116 119.929 90.0913C116.613 96.2709 121.08 110.504 121.08 110.504Z" fill="#393E46"/>
<path id="Path 8" fill-rule="evenodd" clip-rule="evenodd" d="M131.378 100.846C131.378 100.846 131.378 103.169 131.378 104.311C131.378 105.453 134.274 105.241 134.621 107.957C134.968 110.673 135.646 111.306 137.374 111.5C139.102 111.694 141.716 111.867 141.957 110.346C141.957 110.346 143.778 116.261 140.019 117.311C136.259 118.361 131.906 118.141 129.166 114.322C126.427 110.504 129.713 104.898 129.713 100.846C129.713 96.7936 131.378 100.846 131.378 100.846Z" fill="#393E46"/>
<path id="Path 9" fill-rule="evenodd" clip-rule="evenodd" d="M136.504 106.126C136.504 106.126 136.9 107.442 138.304 107.292C139.708 107.142 140.66 106.358 140.66 106.358C140.66 106.358 141.437 107.292 142.109 107.292C142.781 107.292 142.867 106.358 142.867 106.358C142.867 106.358 141.992 104.612 140.831 105.361C139.154 104.512 136.504 106.126 136.504 106.126Z" fill="#393E46"/>
</g>
</g>
<g id="Group 15">
<path id="Rectangle_10" d="M119.997 214.908H182.149V218.633H119.997V214.908Z" fill="#393E46"/>
<path id="Rectangle_11" fill-rule="evenodd" clip-rule="evenodd" d="M148.155 177.036H200.794L195.009 218.632H142.371L148.155 177.036Z" fill="white"/>
<path id="Rectangle_12" fill-rule="evenodd" clip-rule="evenodd" d="M149.71 177.036H202.348L196.564 218.632H143.926L149.71 177.036Z" fill="#393E46"/>
<path id="Oval_10" fill-rule="evenodd" clip-rule="evenodd" d="M174.691 199.697C176.407 199.697 177.798 198.307 177.798 196.593C177.798 194.879 176.407 193.489 174.691 193.489C172.974 193.489 171.583 194.879 171.583 196.593C171.583 198.307 172.974 199.697 174.691 199.697Z" fill="white"/>
</g>
</g>
<g id="Group 10">
<path id="Path 41" fill-rule="evenodd" clip-rule="evenodd" d="M150.143 314.1C150.143 314.1 123.302 268.095 140.364 261.185C157.426 254.275 155.423 314.1 155.423 314.1H150.143Z" fill="#006CFB"/>
<path id="Path 41_2" fill-rule="evenodd" clip-rule="evenodd" d="M167.689 249.974C182.249 255.931 178.077 278.741 155.173 318.404H148.414C146.704 266.826 153.13 244.017 167.689 249.974ZM152.55 262.782C149.384 274.022 148.202 292.364 149.017 317.782H154.812C177.373 278.633 181.425 256.266 167.453 250.55C160.59 247.742 155.675 251.689 152.55 262.782Z" fill="white"/>
<path id="Path 42" fill-rule="evenodd" clip-rule="evenodd" d="M143.373 313.459C143.373 313.459 136.253 283.571 129.034 283.571C121.816 283.571 116.498 292.948 134.358 313.821L143.373 313.459Z" fill="#39C4FF"/>
<path id="Path 42_2" fill-rule="evenodd" clip-rule="evenodd" d="M160.291 313.771C160.291 313.771 167.411 283.882 174.63 283.882C181.848 283.882 187.166 293.259 169.306 314.132L160.291 313.771Z" fill="#39C4FF"/>
<path id="Path 39" fill-rule="evenodd" clip-rule="evenodd" d="M132.131 327.712H170.112L176.274 320.107C178.951 316.804 176.6 311.873 172.348 311.873H131.063C127.036 311.873 124.627 316.351 126.846 319.711L132.131 327.712Z" fill="#393E46"/>
</g>
</g>
<path id="Shape" fill-rule="evenodd" clip-rule="evenodd" d="M3.20204 286.532C1.4336 286.532 0 285.131 0 283.403C0 281.674 1.4336 280.273 3.20204 280.273C4.97048 280.273 6.40409 281.674 6.40409 283.403C6.40409 285.131 4.97048 286.532 3.20204 286.532ZM48.0306 286.532C46.2622 286.532 44.8286 285.131 44.8286 283.403C44.8286 281.674 46.2622 280.273 48.0306 280.273C49.7991 280.273 51.2327 281.674 51.2327 283.403C51.2327 285.131 49.7991 286.532 48.0306 286.532ZM33.0878 286.532C31.3193 286.532 29.8857 285.131 29.8857 283.403C29.8857 281.674 31.3193 280.273 33.0878 280.273C34.8562 280.273 36.2898 281.674 36.2898 283.403C36.2898 285.131 34.8562 286.532 33.0878 286.532ZM18.1449 286.532C16.3765 286.532 14.9429 285.131 14.9429 283.403C14.9429 281.674 16.3765 280.273 18.1449 280.273C19.9133 280.273 21.347 281.674 21.347 283.403C21.347 285.131 19.9133 286.532 18.1449 286.532ZM3.20204 302.18C1.4336 302.18 0 300.779 0 299.051C0 297.322 1.4336 295.921 3.20204 295.921C4.97048 295.921 6.40409 297.322 6.40409 299.051C6.40409 300.779 4.97048 302.18 3.20204 302.18ZM48.0306 302.18C46.2622 302.18 44.8286 300.779 44.8286 299.051C44.8286 297.322 46.2622 295.921 48.0306 295.921C49.7991 295.921 51.2327 297.322 51.2327 299.051C51.2327 300.779 49.7991 302.18 48.0306 302.18ZM33.0878 302.18C31.3193 302.18 29.8857 300.779 29.8857 299.051C29.8857 297.322 31.3193 295.921 33.0878 295.921C34.8562 295.921 36.2898 297.322 36.2898 299.051C36.2898 300.779 34.8562 302.18 33.0878 302.18ZM18.1449 302.18C16.3765 302.18 14.9429 300.779 14.9429 299.051C14.9429 297.322 16.3765 295.921 18.1449 295.921C19.9133 295.921 21.347 297.322 21.347 299.051C21.347 300.779 19.9133 302.18 18.1449 302.18ZM3.20204 318.871C1.4336 318.871 0 317.47 0 315.742C0 314.013 1.4336 312.612 3.20204 312.612C4.97048 312.612 6.40409 314.013 6.40409 315.742C6.40409 317.47 4.97048 318.871 3.20204 318.871ZM48.0306 318.871C46.2622 318.871 44.8286 317.47 44.8286 315.742C44.8286 314.013 46.2622 312.612 48.0306 312.612C49.7991 312.612 51.2327 314.013 51.2327 315.742C51.2327 317.47 49.7991 318.871 48.0306 318.871ZM33.0878 318.871C31.3193 318.871 29.8857 317.47 29.8857 315.742C29.8857 314.013 31.3193 312.612 33.0878 312.612C34.8562 312.612 36.2898 314.013 36.2898 315.742C36.2898 317.47 34.8562 318.871 33.0878 318.871ZM18.1449 318.871C16.3765 318.871 14.9429 317.47 14.9429 315.742C14.9429 314.013 16.3765 312.612 18.1449 312.612C19.9133 312.612 21.347 314.013 21.347 315.742C21.347 317.47 19.9133 318.871 18.1449 318.871ZM3.20204 334.519C1.4336 334.519 0 333.118 0 331.39C0 329.661 1.4336 328.26 3.20204 328.26C4.97048 328.26 6.40409 329.661 6.40409 331.39C6.40409 333.118 4.97048 334.519 3.20204 334.519ZM48.0306 334.519C46.2622 334.519 44.8286 333.118 44.8286 331.39C44.8286 329.661 46.2622 328.26 48.0306 328.26C49.7991 328.26 51.2327 329.661 51.2327 331.39C51.2327 333.118 49.7991 334.519 48.0306 334.519ZM33.0878 334.519C31.3193 334.519 29.8857 333.118 29.8857 331.39C29.8857 329.661 31.3193 328.26 33.0878 328.26C34.8562 328.26 36.2898 329.661 36.2898 331.39C36.2898 333.118 34.8562 334.519 33.0878 334.519ZM18.1449 334.519C16.3765 334.519 14.9429 333.118 14.9429 331.39C14.9429 329.661 16.3765 328.26 18.1449 328.26C19.9133 328.26 21.347 329.661 21.347 331.39C21.347 333.118 19.9133 334.519 18.1449 334.519Z" fill="#AEE8E6"/>
</g>
</svg>
