<svg width="352" height="335" viewBox="0 0 352 335" fill="none" xmlns="http://www.w3.org/2000/svg">
<g id="Scene 14">
<g id="Path 121">
<path id="Mask" d="M280.982 44.3197C280.982 24.9585 296.678 9.26318 316.039 9.26318C335.4 9.26318 351.095 24.9585 351.095 44.3197V47.2411C351.095 66.6022 335.4 82.2975 316.039 82.2975C296.678 82.2975 280.982 66.6022 280.982 47.2411V44.3197Z" fill="#39C4FF"/>
<mask id="mask0" mask-type="alpha" maskUnits="userSpaceOnUse" x="280" y="9" width="72" height="74">
<path id="Mask_2" d="M280.982 44.3197C280.982 24.9585 296.678 9.26318 316.039 9.26318C335.4 9.26318 351.095 24.9585 351.095 44.3197V47.2411C351.095 66.6022 335.4 82.2975 316.039 82.2975C296.678 82.2975 280.982 66.6022 280.982 47.2411V44.3197Z" fill="white"/>
</mask>
<g mask="url(#mask0)">
<path id="Path 121 (Stroke)" fill-rule="evenodd" clip-rule="evenodd" d="M283.781 18.1888C283.781 18.1889 283.781 18.1889 283.657 17.7179C283.534 17.2468 283.534 17.2468 283.535 17.2467L283.626 17.2229C283.686 17.2073 283.776 17.1841 283.893 17.1541C284.126 17.094 284.47 17.0064 284.908 16.8958C285.786 16.6748 287.045 16.3621 288.575 15.9956C291.633 15.2627 295.773 14.3138 300.096 13.451C304.417 12.5886 308.932 11.8101 312.736 11.4203C314.637 11.2254 316.372 11.1265 317.822 11.1649C319.255 11.2029 320.472 11.3758 321.295 11.7661C321.687 11.9518 322.011 12.1678 322.219 12.4357C322.447 12.7286 322.525 13.0747 322.418 13.4282C322.322 13.7448 322.094 14.0117 321.839 14.2347C321.577 14.4638 321.24 14.6861 320.855 14.9036C319.551 15.6406 317.476 16.4402 315.225 17.3078C314.849 17.4526 314.469 17.5992 314.086 17.7477C311.38 18.7984 308.532 19.9561 306.364 21.2564C305.28 21.9064 304.392 22.5773 303.779 23.2681C303.167 23.9573 302.859 24.6324 302.859 25.3051C302.859 25.9563 303.143 26.4603 303.738 26.864C304.359 27.2851 305.315 27.5904 306.609 27.762C309.191 28.1042 312.915 27.8904 317.415 27.2617C326.402 26.0064 338.323 23.1219 350.031 19.923C355.926 18.3124 360.998 17.7762 365.031 18.022C369.047 18.2668 372.093 19.2921 373.865 20.8714C374.759 21.6677 375.337 22.6135 375.529 23.6698C375.721 24.7258 375.519 25.844 374.937 26.9702C373.784 29.2041 371.115 31.5212 366.831 33.6525C358.326 37.8841 341.116 45.8856 324.254 52.3351C315.824 55.5595 307.47 58.4004 300.328 60.1873C296.758 61.0808 293.481 61.7132 290.643 61.9968C287.814 62.2796 285.384 62.2197 283.526 61.7002C282.619 61.4465 281.907 61.1608 281.393 60.8349C280.884 60.5119 280.507 60.1089 280.398 59.6012C280.287 59.0832 280.482 58.5961 280.804 58.1767C281.125 57.7588 281.61 57.3533 282.205 56.9582C284.572 55.3866 289.181 53.6634 294.591 51.9628C301.82 49.6908 310.63 47.4165 317.754 45.5774C321.318 44.6575 324.459 43.8466 326.77 43.1993C330.234 42.229 332.175 41.1201 333.05 40.0755C333.476 39.5664 333.633 39.0925 333.62 38.6604C333.606 38.2226 333.416 37.7614 333.025 37.2887C332.231 36.3299 330.692 35.4266 328.655 34.7636C326.632 34.1055 324.176 33.7035 321.614 33.7035C318.212 33.7035 312.403 34.2881 305.796 34.9528C302.315 35.3032 298.612 35.6758 294.923 35.9969C289.597 36.4604 284.314 36.8146 279.816 36.8305C275.343 36.8463 271.564 36.5298 269.298 35.6047C268.403 35.239 267.235 35.3915 265.864 36.0792C264.504 36.7622 263.019 37.9379 261.555 39.4731C258.627 42.5425 255.853 46.9712 254.362 51.501C252.868 56.044 252.695 60.5835 254.802 63.9665C256.894 67.3254 261.343 69.7099 269.482 69.7099C285.868 69.7099 310.135 65.6051 331.975 59.8843C342.891 57.0251 353.187 53.7658 361.574 50.4211C369.982 47.068 376.408 43.6537 379.645 40.5078C381.312 38.8883 382.702 37.9716 383.73 37.7367C384.254 37.617 384.778 37.6559 385.167 37.9919C385.55 38.3221 385.676 38.8308 385.664 39.3556C385.641 40.3996 385.072 41.8846 383.986 43.6332C382.889 45.4008 381.228 47.4956 378.937 49.7719C369.775 58.8776 350.458 70.9706 316.444 76.6848L316.283 75.7245C350.14 70.0366 369.258 58.0178 378.251 49.0812C380.499 46.8469 382.109 44.8105 383.159 43.1196C384.22 41.4098 384.673 40.1091 384.691 39.3336C384.7 38.9487 384.601 38.7891 384.531 38.7294C384.469 38.6754 384.313 38.6025 383.947 38.686C383.197 38.8575 381.97 39.6067 380.324 41.2061C376.937 44.4981 370.349 47.9703 361.935 51.3256C353.5 54.6892 343.164 57.9602 332.222 60.8264C310.346 66.5566 285.987 70.6837 269.482 70.6837C261.177 70.6837 256.32 68.2457 253.975 64.4813C251.646 60.7411 251.904 55.8566 253.437 51.1966C254.975 46.5235 257.827 41.9705 260.85 38.8009C262.361 37.2167 263.934 35.9586 265.428 35.2089C266.912 34.4638 268.396 34.1845 269.666 34.7032C271.732 35.5468 275.331 35.8725 279.812 35.8567C284.269 35.841 289.52 35.4897 294.839 35.0267C298.473 34.7104 302.145 34.341 305.614 33.9921C312.264 33.3232 318.164 32.7297 321.614 32.7297C324.272 32.7297 326.83 33.1461 328.956 33.8376C331.066 34.5243 332.81 35.5018 333.775 36.6678C334.263 37.2576 334.571 37.9198 334.593 38.6305C334.615 39.347 334.344 40.0467 333.797 40.7005C332.724 41.9816 330.537 43.1552 327.033 44.137C324.687 44.794 321.523 45.6107 317.945 46.5342C310.836 48.3691 302.092 50.626 294.883 52.8918C289.453 54.5986 284.978 56.2864 282.744 57.7695C282.188 58.1381 281.803 58.4739 281.576 58.7696C281.351 59.0637 281.321 59.2622 281.35 59.3962C281.381 59.5407 281.51 59.7562 281.915 60.0126C282.314 60.2661 282.924 60.5207 283.788 60.7624C285.475 61.234 287.764 61.3059 290.546 61.0279C293.321 60.7506 296.548 60.1294 300.092 59.2427C307.179 57.4693 315.493 54.6437 323.906 51.4256C340.732 44.99 357.913 37.0022 366.397 32.7807C370.609 30.6854 373.058 28.4863 374.072 26.5234C374.574 25.551 374.718 24.6506 374.571 23.844C374.424 23.0377 373.979 22.2768 373.218 21.5984C371.68 20.2285 368.891 19.2328 364.971 18.994C361.068 18.756 356.104 19.2733 350.288 20.8624C338.574 24.063 326.602 26.9617 317.55 28.2262C313.031 28.8574 309.2 29.0877 306.481 28.7273C305.125 28.5475 303.995 28.2148 303.191 27.6699C302.363 27.1076 301.885 26.3174 301.885 25.3051C301.885 24.3144 302.343 23.4187 303.05 22.6217C303.756 21.8264 304.739 21.0959 305.863 20.4213C308.113 19.0723 311.035 17.8877 313.734 16.8399C314.123 16.6886 314.508 16.5403 314.885 16.3949C317.148 15.5224 319.14 14.7543 320.376 14.0558C320.732 13.8546 321.006 13.6695 321.198 13.5015C321.398 13.3273 321.467 13.2073 321.486 13.1462L321.487 13.1441C321.494 13.1208 321.501 13.0979 321.45 13.0328C321.379 12.9406 321.213 12.8048 320.878 12.646C320.248 12.3474 319.204 12.1757 317.796 12.1384C316.404 12.1015 314.715 12.1963 312.835 12.389C309.076 12.7742 304.596 13.5459 300.287 14.406C295.98 15.2656 291.853 16.2114 288.801 16.9426C287.276 17.3081 286.02 17.6198 285.146 17.8401C284.709 17.9503 284.367 18.0375 284.135 18.0972C284.019 18.1271 283.93 18.1501 283.87 18.1655L283.781 18.1888Z" fill="white"/>
</g>
</g>
<g id="Oval + Path 143 Mask">
<path id="Mask_3" fill-rule="evenodd" clip-rule="evenodd" d="M60.0342 80.8246C60.0342 59.85 75.2437 42.8467 94.0055 42.8467L318.028 42.8467C336.79 42.8467 352 59.85 352 80.8246V172.73C352 193.705 336.79 210.708 318.028 210.708H94.0055C75.2436 210.708 60.0342 193.705 60.0342 172.73V80.8246Z" fill="#39C4FF" fill-opacity="0.15"/>
<mask id="mask1" mask-type="alpha" maskUnits="userSpaceOnUse" x="60" y="42" width="292" height="169">
<path id="Mask_4" fill-rule="evenodd" clip-rule="evenodd" d="M60.0342 80.8246C60.0342 59.85 75.2437 42.8467 94.0055 42.8467L318.028 42.8467C336.79 42.8467 352 59.85 352 80.8246V172.73C352 193.705 336.79 210.708 318.028 210.708H94.0055C75.2436 210.708 60.0342 193.705 60.0342 172.73V80.8246Z" fill="white"/>
</mask>
<g mask="url(#mask1)">
<path id="Path 144 (Stroke)" fill-rule="evenodd" clip-rule="evenodd" d="M53.4377 173.814C53.4346 173.812 53.4317 173.81 56.8236 165.909C60.2156 158.008 60.2132 158.006 60.211 158.005L60.208 158.004L60.2203 158.01C60.2374 158.019 60.2701 158.036 60.318 158.061C60.414 158.111 60.5712 158.192 60.7885 158.302C61.2232 158.52 61.8978 158.852 62.8022 159.276C64.6111 160.122 67.3373 161.334 70.8986 162.737C78.0237 165.542 88.4742 169.103 101.596 172.03C127.847 177.886 164.682 181.184 206.958 170.927C229.275 165.513 245.493 165.212 257.187 168.666C269.309 172.246 276.528 179.893 279.961 189.235C283.191 198.028 282.649 207.188 281.615 213.525C281.083 216.79 280.377 219.565 279.8 221.538C279.51 222.53 279.248 223.333 279.051 223.91C278.952 224.199 278.869 224.433 278.806 224.606C278.774 224.693 278.748 224.765 278.727 224.821L278.699 224.894L278.685 224.933C278.683 224.938 278.681 224.943 271.477 221.486C264.273 218.029 264.271 218.033 264.27 218.037L264.267 218.045L264.263 218.055L264.261 218.059C264.263 218.055 264.27 218.037 264.281 218.005C264.305 217.94 264.347 217.822 264.405 217.654C264.52 217.317 264.694 216.785 264.897 216.092C265.305 214.695 265.812 212.703 266.191 210.381C266.98 205.542 267.054 200.241 265.457 195.895C264.062 192.097 261.011 187.925 253.182 185.612C244.925 183.174 231.513 182.906 210.283 188.057C165.464 198.931 126.401 195.437 98.5274 189.219C84.5865 186.109 73.4181 182.312 65.6898 179.269C61.8244 177.747 58.8153 176.412 56.7456 175.443C55.7107 174.959 54.9102 174.565 54.3545 174.286C54.0767 174.146 53.86 174.035 53.7058 173.955C53.6286 173.915 53.5671 173.882 53.5214 173.858L53.4647 173.828L53.4452 173.818L53.4377 173.814Z" fill="white"/>
<path id="Path 143 (Stroke)" fill-rule="evenodd" clip-rule="evenodd" d="M38.7778 157.156C38.778 157.156 38.7785 157.155 34.642 149.71C30.5055 142.266 30.5065 142.265 30.5079 142.264L30.5721 142.219L30.7455 142.1C30.8961 141.996 31.116 141.845 31.4015 141.65C31.9722 141.261 32.8052 140.696 33.8697 139.984C35.9983 138.56 39.0557 136.546 42.7965 134.165C50.2671 129.409 60.515 123.159 71.5629 117.228C82.5637 111.322 94.5901 105.605 105.57 102.041C111.062 100.258 116.494 98.9461 121.534 98.4763C126.491 98.0142 131.638 98.3093 136.208 100.314C143.062 103.319 148.058 107.288 150.635 113.02C153.122 118.553 152.487 124.035 152.146 126.984L152.131 127.113C152.107 127.317 152.085 127.51 152.063 127.692C151.902 129.077 151.809 129.875 151.793 130.651C151.782 131.193 151.824 131.43 151.84 131.498C152.035 131.8 152.93 132.835 156.027 134.147C157.243 134.662 159.737 135.155 163.892 135.223C167.881 135.288 172.78 134.961 178.412 134.314C189.678 133.018 203.224 130.52 217.126 127.778C221.011 127.011 224.928 126.225 228.822 125.443C238.741 123.452 248.51 121.491 257.21 119.968C269.049 117.896 280.029 116.413 287.062 117.113C295.024 117.905 300.033 121.379 303.796 125.741C305.144 127.304 306.368 129.037 307.307 130.365C307.494 130.631 307.67 130.88 307.834 131.108C308.935 132.649 309.778 133.729 310.705 134.617C313.423 137.225 320.377 141.698 350.72 132.252L354.927 149.137C324.304 158.671 309.852 156.895 300.495 147.92C298.403 145.913 296.81 143.764 295.587 142.053C295.314 141.671 295.064 141.319 294.832 140.991C293.921 139.706 293.274 138.794 292.51 137.909C291.122 136.3 289.533 134.956 285.672 134.572C280.882 134.095 271.827 135.152 259.635 137.286C251.12 138.776 241.624 140.682 231.779 142.659C227.845 143.448 223.856 144.249 219.851 145.039C205.945 147.782 191.903 150.383 180.016 151.75C174.073 152.433 168.504 152.828 163.663 152.749C158.987 152.672 154.285 152.154 150.469 150.537C144.151 147.859 139.394 143.983 137.262 137.955C135.544 133.097 136.179 128.067 136.499 125.528C136.53 125.284 136.558 125.062 136.581 124.866C136.94 121.762 136.768 121.208 136.625 120.891C136.535 120.689 135.677 118.909 130.482 116.631C129.028 115.993 126.572 115.596 122.837 115.944C119.184 116.284 114.834 117.286 109.942 118.874C100.156 122.051 89.0131 127.304 78.3504 133.029C67.7348 138.728 57.8253 144.769 50.5545 149.397C46.9246 151.707 43.9652 153.658 41.9197 155.026C40.8972 155.71 40.1038 156.248 39.57 156.612C39.3031 156.794 39.1011 156.933 38.9679 157.024L38.8202 157.126L38.7788 157.155L38.7778 157.156ZM151.794 131.408C151.797 131.407 151.814 131.434 151.836 131.492C151.801 131.438 151.791 131.409 151.794 131.408Z" fill="white"/>
</g>
</g>
<g id="Dashboard 4">
<g id="Dashboard">
<path id="Rectangle" d="M57.9463 27.7249C57.9463 21.2712 63.1781 16.0394 69.6318 16.0394H255.766C262.22 16.0394 267.452 21.2712 267.452 27.7249V151.912C267.452 158.366 262.22 163.597 255.766 163.597H69.6318C63.1781 163.597 57.9463 158.366 57.9463 151.912V27.7249Z" fill="#006CFB"/>
<path id="Rectangle_2" d="M37.6367 11.6855C37.6367 5.23178 42.8685 0 49.3222 0H235.457C241.91 0 247.142 5.23178 247.142 11.6855V135.873C247.142 142.326 241.911 147.558 235.457 147.558H49.3222C42.8685 147.558 37.6367 142.326 37.6367 135.873V11.6855Z" fill="#E5E9F3"/>
<path id="Rectangle_3" d="M65.4287 76.9865H163.768V88.7483H65.4287V76.9865Z" fill="#39C4FF"/>
<path id="Rectangle_4" d="M65.4287 55.6016H131.701V67.3634H65.4287V55.6016Z" fill="#39C4FF"/>
<path id="Rectangle_5" d="M65.4287 98.3721H99.6337V110.134H65.4287V98.3721Z" fill="#39C4FF"/>
<path id="Oval" fill-rule="evenodd" clip-rule="evenodd" d="M48.3259 13.9004C50.0969 13.9004 51.5326 12.4643 51.5326 10.6926C51.5326 8.92104 50.0969 7.48486 48.3259 7.48486C46.5548 7.48486 45.1191 8.92104 45.1191 10.6926C45.1191 12.4643 46.5548 13.9004 48.3259 13.9004Z" fill="white"/>
<path id="Oval_2" fill-rule="evenodd" clip-rule="evenodd" d="M57.946 13.9004C59.717 13.9004 61.1527 12.4643 61.1527 10.6926C61.1527 8.92104 59.717 7.48486 57.946 7.48486C56.175 7.48486 54.7393 8.92104 54.7393 10.6926C54.7393 12.4643 56.175 13.9004 57.946 13.9004Z" fill="#39C4FF"/>
<path id="Oval_3" fill-rule="evenodd" clip-rule="evenodd" d="M68.6354 13.9004C70.4065 13.9004 71.8421 12.4643 71.8421 10.6926C71.8421 8.92104 70.4065 7.48486 68.6354 7.48486C66.8644 7.48486 65.4287 8.92104 65.4287 10.6926C65.4287 12.4643 66.8644 13.9004 68.6354 13.9004Z" fill="#006CFB"/>
<path id="Path 118 (Stroke)" fill-rule="evenodd" clip-rule="evenodd" d="M247.142 21.3379H37.6367V20.3641H247.142V21.3379Z" fill="#393E46"/>
</g>
<g id="Group 26">
<path id="Oval_4" fill-rule="evenodd" clip-rule="evenodd" d="M178.565 125.192C199.727 125.192 216.882 107.893 216.882 86.5536C216.882 65.2139 199.727 47.9147 178.565 47.9147C157.402 47.9147 140.247 65.2139 140.247 86.5536C140.247 107.893 157.402 125.192 178.565 125.192Z" fill="#006CFB"/>
<g id="Group 25">
<path id="Rectangle_6" d="M186.187 125.191C185.766 124.201 186.228 123.057 187.219 122.637L193.431 120C194.421 119.58 195.564 120.042 195.984 121.032L209.14 152.026C209.561 153.016 209.099 154.159 208.109 154.58L201.897 157.216C200.906 157.637 199.763 157.175 199.343 156.185L186.187 125.191Z" fill="white"/>
<path id="Rectangle_7" d="M191.092 143.683C190.041 141.208 191.196 138.35 193.671 137.299L199.404 134.866C201.879 133.815 204.738 134.97 205.788 137.445L224.63 181.832C225.68 184.308 224.525 187.166 222.05 188.217L216.317 190.65C213.842 191.701 210.984 190.546 209.933 188.071L191.092 143.683Z" fill="#393E46"/>
</g>
<path id="Oval_5" fill-rule="evenodd" clip-rule="evenodd" d="M174.307 123.046C195.469 123.046 212.624 105.747 212.624 84.4075C212.624 63.0678 195.469 45.7686 174.307 45.7686C153.145 45.7686 135.989 63.0678 135.989 84.4075C135.989 105.747 153.145 123.046 174.307 123.046Z" fill="white"/>
<g id="$">
<path id="Mask (Stroke)" fill-rule="evenodd" clip-rule="evenodd" d="M140.824 83.8707C140.824 65.5262 155.573 50.6481 173.775 50.6481C191.976 50.6481 206.725 65.5262 206.725 83.8707C206.725 102.215 191.976 117.093 173.775 117.093C155.573 117.093 140.824 102.215 140.824 83.8707ZM173.775 51.6219C156.118 51.6219 141.798 66.0563 141.798 83.8707C141.798 101.685 156.118 116.12 173.775 116.12C191.431 116.12 205.751 101.685 205.751 83.8707C205.751 66.0563 191.431 51.6219 173.775 51.6219Z" fill="#393E46"/>
<mask id="mask2" mask-type="alpha" maskUnits="userSpaceOnUse" x="141" y="51" width="66" height="66">
<path id="Mask_5" fill-rule="evenodd" clip-rule="evenodd" d="M173.775 116.606C191.704 116.606 206.239 101.95 206.239 83.8707C206.239 65.7913 191.704 51.135 173.775 51.135C155.846 51.135 141.312 65.7913 141.312 83.8707C141.312 101.95 155.846 116.606 173.775 116.606Z" fill="white"/>
</mask>
<g mask="url(#mask2)">
</g>
<mask id="mask3" mask-type="alpha" maskUnits="userSpaceOnUse" x="140" y="50" width="67" height="68">
<path id="Mask (Stroke)_2" fill-rule="evenodd" clip-rule="evenodd" d="M140.824 83.8707C140.824 65.5262 155.573 50.6481 173.775 50.6481C191.976 50.6481 206.725 65.5262 206.725 83.8707C206.725 102.215 191.976 117.093 173.775 117.093C155.573 117.093 140.824 102.215 140.824 83.8707ZM173.775 51.6219C156.118 51.6219 141.798 66.0563 141.798 83.8707C141.798 101.685 156.118 116.12 173.775 116.12C191.431 116.12 205.751 101.685 205.751 83.8707C205.751 66.0563 191.431 51.6219 173.775 51.6219Z" fill="white"/>
</mask>
<g mask="url(#mask3)">
</g>
</g>
</g>
</g>
<path id="Path 138" d="M5.50195 334.01V333.036H314.274V334.01H5.50195Z" fill="#AEE8E6"/>
<path id="Shape" fill-rule="evenodd" clip-rule="evenodd" d="M281.053 274.949C279.309 274.949 277.895 273.535 277.895 271.79C277.895 270.046 279.309 268.632 281.053 268.632C282.798 268.632 284.212 270.046 284.212 271.79C284.212 273.535 282.798 274.949 281.053 274.949ZM323.553 274.949C321.808 274.949 320.394 273.535 320.394 271.79C320.394 270.046 321.808 268.632 323.553 268.632C325.297 268.632 326.711 270.046 326.711 271.79C326.711 273.535 325.297 274.949 323.553 274.949ZM309.195 274.949C307.45 274.949 306.036 273.535 306.036 271.79C306.036 270.046 307.45 268.632 309.195 268.632C310.939 268.632 312.353 270.046 312.353 271.79C312.353 273.535 310.939 274.949 309.195 274.949ZM294.837 274.949C293.092 274.949 291.678 273.535 291.678 271.79C291.678 270.046 293.092 268.632 294.837 268.632C296.581 268.632 297.996 270.046 297.996 271.79C297.996 273.535 296.581 274.949 294.837 274.949ZM281.053 290.456C279.309 290.456 277.895 289.041 277.895 287.297C277.895 285.552 279.309 284.138 281.053 284.138C282.798 284.138 284.212 285.552 284.212 287.297C284.212 289.041 282.798 290.456 281.053 290.456ZM323.553 290.456C321.808 290.456 320.394 289.041 320.394 287.297C320.394 285.552 321.808 284.138 323.553 284.138C325.297 284.138 326.711 285.552 326.711 287.297C326.711 289.041 325.297 290.456 323.553 290.456ZM309.195 290.456C307.45 290.456 306.036 289.041 306.036 287.297C306.036 285.552 307.45 284.138 309.195 284.138C310.939 284.138 312.353 285.552 312.353 287.297C312.353 289.041 310.939 290.456 309.195 290.456ZM294.837 290.456C293.092 290.456 291.678 289.041 291.678 287.297C291.678 285.552 293.092 284.138 294.837 284.138C296.581 284.138 297.996 285.552 297.996 287.297C297.996 289.041 296.581 290.456 294.837 290.456ZM281.053 305.962C279.309 305.962 277.895 304.548 277.895 302.803C277.895 301.059 279.309 299.645 281.053 299.645C282.798 299.645 284.212 301.059 284.212 302.803C284.212 304.548 282.798 305.962 281.053 305.962ZM323.553 305.962C321.808 305.962 320.394 304.548 320.394 302.803C320.394 301.059 321.808 299.645 323.553 299.645C325.297 299.645 326.711 301.059 326.711 302.803C326.711 304.548 325.297 305.962 323.553 305.962ZM309.195 305.962C307.45 305.962 306.036 304.548 306.036 302.803C306.036 301.059 307.45 299.645 309.195 299.645C310.939 299.645 312.353 301.059 312.353 302.803C312.353 304.548 310.939 305.962 309.195 305.962ZM294.837 305.962C293.092 305.962 291.678 304.548 291.678 302.803C291.678 301.059 293.092 299.645 294.837 299.645C296.581 299.645 297.996 301.059 297.996 302.803C297.996 304.548 296.581 305.962 294.837 305.962ZM281.053 322.043C279.309 322.043 277.895 320.629 277.895 318.884C277.895 317.14 279.309 315.725 281.053 315.725C282.798 315.725 284.212 317.14 284.212 318.884C284.212 320.629 282.798 322.043 281.053 322.043ZM323.553 322.043C321.808 322.043 320.394 320.629 320.394 318.884C320.394 317.14 321.808 315.725 323.553 315.725C325.297 315.725 326.711 317.14 326.711 318.884C326.711 320.629 325.297 322.043 323.553 322.043ZM309.195 322.043C307.45 322.043 306.036 320.629 306.036 318.884C306.036 317.14 307.45 315.725 309.195 315.725C310.939 315.725 312.353 317.14 312.353 318.884C312.353 320.629 310.939 322.043 309.195 322.043ZM294.837 322.043C293.092 322.043 291.678 320.629 291.678 318.884C291.678 317.14 293.092 315.725 294.837 315.725C296.581 315.725 297.996 317.14 297.996 318.884C297.996 320.629 296.581 322.043 294.837 322.043Z" fill="#AEE8E6"/>
<g id="Man - Top 7">
<g id="man - body 2">
<path id="Path 56" fill-rule="evenodd" clip-rule="evenodd" d="M85.9473 291.833L77.9035 307.895C73.8755 315.938 65.6514 321.017 56.6562 321.017C49.228 321.017 42.2272 317.543 37.7339 311.628L3.78453 266.937L16.0857 260.418L56.5001 291.833L60.8831 278.866L85.9473 291.833Z" fill="#FE9C9A"/>
<path id="Path 14" fill-rule="evenodd" clip-rule="evenodd" d="M157.125 217.354L179.883 219.524C199.184 221.365 211.157 241.405 203.63 259.273L189.404 293.043L187.097 311.8C186.11 319.823 182.439 327.277 176.68 332.951H99.4042L99.2232 332.627C94.8996 324.881 92.7741 316.102 93.0761 307.237L94.1006 277.167L85.6369 295.48L59.0506 282.423L66.8776 253.324C72.605 232.031 91.9274 217.245 113.977 217.282L157.125 217.354Z" fill="#2760CB"/>
<g id="Group 22">
<path id="Mask_6" fill-rule="evenodd" clip-rule="evenodd" d="M157.125 217.354L179.883 219.524C199.184 221.365 211.157 241.405 203.63 259.273L189.404 293.043L187.097 311.8C186.11 319.823 182.439 327.277 176.68 332.951H99.4042L99.2232 332.627C94.8996 324.881 92.7741 316.102 93.0761 307.237L94.1006 277.167L85.6369 295.48L59.0506 282.423L66.8776 253.324C72.605 232.031 91.9274 217.245 113.977 217.282L157.125 217.354Z" fill="#006CFB"/>
<mask id="mask4" mask-type="alpha" maskUnits="userSpaceOnUse" x="59" y="217" width="147" height="116">
<path id="Mask_7" fill-rule="evenodd" clip-rule="evenodd" d="M157.125 217.354L179.883 219.524C199.184 221.365 211.157 241.405 203.63 259.273L189.404 293.043L187.097 311.8C186.11 319.823 182.439 327.277 176.68 332.951H99.4042L99.2232 332.627C94.8996 324.881 92.7741 316.102 93.0761 307.237L94.1006 277.167L85.6369 295.48L59.0506 282.423L66.8776 253.324C72.605 232.031 91.9274 217.245 113.977 217.282L157.125 217.354Z" fill="white"/>
</mask>
<g mask="url(#mask4)">
<path id="Path 49" fill-rule="evenodd" clip-rule="evenodd" d="M152.336 325.991C140.144 327.041 128.273 321.725 120.937 311.93L88.6952 268.881L143.01 291.834H182.575L187.802 295.215L179.77 308.761C173.94 318.594 163.725 325.009 152.336 325.991Z" fill="#393E46"/>
<g id="Group 22_2">
<path id="Path 90 (Stroke)" fill-rule="evenodd" clip-rule="evenodd" d="M161.794 214.272C161.794 214.272 161.794 214.271 161.309 214.234C160.823 214.196 160.823 214.196 160.823 214.197L160.806 214.419C160.795 214.566 160.778 214.786 160.756 215.074C160.712 215.651 160.648 216.504 160.566 217.606C160.402 219.812 160.168 223.017 159.888 227.018C159.326 235.019 158.578 246.204 157.83 258.936C156.333 284.398 154.836 316.058 154.836 340.826H155.81C155.81 316.088 157.305 284.451 158.802 258.993C159.55 246.266 160.298 235.085 160.859 227.086C161.14 223.086 161.373 219.882 161.537 217.679C161.619 216.577 161.683 215.725 161.727 215.148C161.749 214.86 161.766 214.641 161.777 214.494L161.794 214.272Z" fill="#393E46" fill-opacity="0.19"/>
<path id="Path 90 (Stroke)_2" fill-rule="evenodd" clip-rule="evenodd" d="M171.532 214.272C171.532 214.272 171.532 214.271 171.047 214.234C170.561 214.196 170.561 214.196 170.561 214.197L170.544 214.419C170.533 214.566 170.516 214.786 170.494 215.074C170.45 215.651 170.386 216.504 170.304 217.606C170.14 219.812 169.907 223.017 169.626 227.018C169.065 235.019 168.316 246.204 167.568 258.936C166.071 284.398 164.574 316.058 164.574 340.826H165.548C165.548 316.088 167.044 284.451 168.54 258.993C169.288 246.266 170.036 235.085 170.597 227.086C170.878 223.086 171.112 219.882 171.275 217.679C171.357 216.577 171.421 215.725 171.465 215.148C171.487 214.86 171.504 214.641 171.515 214.494L171.532 214.272Z" fill="#393E46" fill-opacity="0.19"/>
<path id="Path 90 (Stroke)_3" fill-rule="evenodd" clip-rule="evenodd" d="M181.271 214.272C181.271 214.272 181.271 214.271 180.785 214.234C180.3 214.196 180.3 214.196 180.3 214.197L180.283 214.419C180.271 214.566 180.254 214.786 180.232 215.074C180.189 215.651 180.124 216.504 180.042 217.606C179.879 219.812 179.645 223.017 179.364 227.018C178.803 235.019 178.055 246.204 177.306 258.936C175.81 284.398 174.313 316.058 174.313 340.826H175.286C175.286 316.088 176.782 284.451 178.278 258.993C179.026 246.266 179.775 235.085 180.336 227.086C180.616 223.086 180.85 219.882 181.014 217.679C181.095 216.577 181.16 215.725 181.203 215.148C181.225 214.86 181.242 214.641 181.253 214.494L181.271 214.272Z" fill="#393E46" fill-opacity="0.19"/>
<path id="Path 90 (Stroke)_4" fill-rule="evenodd" clip-rule="evenodd" d="M191.008 214.272C191.008 214.272 191.008 214.271 190.522 214.234C190.037 214.196 190.037 214.196 190.037 214.197L190.02 214.419C190.008 214.566 189.992 214.786 189.97 215.074C189.926 215.651 189.862 216.504 189.78 217.606C189.616 219.812 189.382 223.017 189.101 227.018C188.54 235.019 187.792 246.204 187.044 258.936C185.547 284.398 184.05 316.058 184.05 340.826H185.024C185.024 316.088 186.519 284.451 188.016 258.993C188.764 246.266 189.512 235.085 190.073 227.086C190.353 223.086 190.587 219.882 190.751 217.679C190.833 216.577 190.897 215.725 190.941 215.148C190.963 214.86 190.979 214.641 190.991 214.494L191.008 214.272Z" fill="#393E46" fill-opacity="0.19"/>
<path id="Path 90 (Stroke)_5" fill-rule="evenodd" clip-rule="evenodd" d="M200.746 214.272C200.746 214.272 200.746 214.272 200.261 214.234C199.775 214.196 199.775 214.196 199.775 214.197L199.758 214.419C199.747 214.567 199.73 214.786 199.708 215.075C199.664 215.652 199.6 216.504 199.518 217.607C199.354 219.812 199.12 223.017 198.84 227.018C198.279 235.02 197.53 246.204 196.782 258.936C195.285 284.398 193.788 316.058 193.788 340.827H194.762C194.762 316.088 196.258 284.452 197.754 258.994C198.502 246.266 199.25 235.085 199.811 227.086C200.092 223.087 200.325 219.883 200.489 217.679C200.571 216.577 200.635 215.725 200.679 215.149C200.701 214.86 200.718 214.641 200.729 214.494L200.746 214.272Z" fill="#393E46" fill-opacity="0.19"/>
<path id="Path 90 (Stroke)_6" fill-rule="evenodd" clip-rule="evenodd" d="M152.057 214.272C152.057 214.272 152.057 214.271 151.571 214.234C151.086 214.196 151.086 214.196 151.086 214.197L151.069 214.419C151.057 214.566 151.04 214.786 151.019 215.074C150.975 215.651 150.91 216.504 150.829 217.606C150.665 219.812 150.431 223.017 150.15 227.018C149.589 235.019 148.841 246.204 148.092 258.936C146.596 284.398 145.099 316.058 145.099 340.826H146.073C146.073 316.088 147.568 284.451 149.064 258.993C149.813 246.266 150.561 235.085 151.122 227.086C151.402 223.086 151.636 219.882 151.8 217.679C151.881 216.577 151.946 215.725 151.99 215.148C152.011 214.86 152.028 214.641 152.04 214.494L152.057 214.272Z" fill="#393E46" fill-opacity="0.19"/>
<path id="Path 90 (Stroke)_7" fill-rule="evenodd" clip-rule="evenodd" d="M142.318 214.272C142.318 214.272 142.318 214.271 141.833 214.234C141.348 214.196 141.348 214.196 141.347 214.197L141.33 214.419C141.319 214.566 141.302 214.786 141.28 215.074C141.236 215.651 141.172 216.504 141.09 217.606C140.927 219.812 140.693 223.017 140.412 227.018C139.851 235.019 139.102 246.204 138.354 258.936C136.858 284.398 135.36 316.058 135.36 340.826H136.334C136.334 316.088 137.83 284.451 139.326 258.993C140.074 246.266 140.822 235.085 141.383 227.086C141.664 223.086 141.898 219.882 142.061 217.679C142.143 216.577 142.207 215.725 142.251 215.148C142.273 214.86 142.29 214.641 142.301 214.494L142.318 214.272Z" fill="#393E46" fill-opacity="0.19"/>
<path id="Path 90 (Stroke)_8" fill-rule="evenodd" clip-rule="evenodd" d="M132.58 214.272C132.58 214.272 132.58 214.271 132.095 214.234C131.609 214.196 131.609 214.196 131.609 214.197L131.592 214.419C131.581 214.566 131.564 214.786 131.542 215.074C131.498 215.651 131.434 216.504 131.352 217.606C131.188 219.812 130.954 223.017 130.674 227.018C130.112 235.019 129.364 246.204 128.616 258.936C127.119 284.398 125.622 316.058 125.622 340.826H126.596C126.596 316.088 128.092 284.451 129.588 258.993C130.336 246.266 131.084 235.085 131.645 227.086C131.926 223.086 132.159 219.882 132.323 217.679C132.405 216.577 132.469 215.725 132.513 215.148C132.535 214.86 132.552 214.641 132.563 214.494L132.58 214.272Z" fill="#393E46" fill-opacity="0.19"/>
<path id="Path 90 (Stroke)_9" fill-rule="evenodd" clip-rule="evenodd" d="M122.843 214.272C122.843 214.272 122.843 214.271 122.357 214.234C121.872 214.196 121.872 214.196 121.872 214.197L121.855 214.419C121.843 214.566 121.827 214.786 121.805 215.074C121.761 215.651 121.697 216.504 121.615 217.606C121.451 219.812 121.217 223.017 120.936 227.018C120.375 235.019 119.627 246.204 118.879 258.936C117.382 284.398 115.885 316.058 115.885 340.826H116.859C116.859 316.088 118.354 284.451 119.851 258.993C120.599 246.266 121.347 235.085 121.908 227.086C122.188 223.086 122.422 219.882 122.586 217.679C122.668 216.577 122.732 215.725 122.776 215.148C122.798 214.86 122.814 214.641 122.826 214.494L122.843 214.272Z" fill="#393E46" fill-opacity="0.19"/>
<path id="Path 90 (Stroke)_10" fill-rule="evenodd" clip-rule="evenodd" d="M113.104 214.272C113.105 214.272 113.105 214.271 112.619 214.234C112.134 214.196 112.134 214.196 112.134 214.197L112.116 214.419C112.105 214.566 112.088 214.786 112.066 215.074C112.023 215.651 111.958 216.504 111.876 217.606C111.713 219.812 111.479 223.017 111.198 227.018C110.637 235.019 109.889 246.204 109.14 258.936C107.644 284.398 106.147 316.058 106.147 340.826H107.12C107.12 316.088 108.616 284.451 110.112 258.993C110.86 246.266 111.609 235.085 112.17 227.086C112.45 223.086 112.684 219.882 112.847 217.679C112.929 216.577 112.994 215.725 113.037 215.148C113.059 214.86 113.076 214.641 113.087 214.494L113.104 214.272Z" fill="#393E46" fill-opacity="0.19"/>
<path id="Path 90 (Stroke)_11" fill-rule="evenodd" clip-rule="evenodd" d="M103.367 214.272C103.367 214.272 103.367 214.271 102.882 214.234C102.396 214.196 102.396 214.196 102.396 214.197L102.379 214.419C102.368 214.566 102.351 214.786 102.329 215.074C102.285 215.651 102.221 216.504 102.139 217.606C101.975 219.812 101.741 223.017 101.461 227.018C100.9 235.019 100.151 246.204 99.4029 258.936C97.9064 284.398 96.4093 316.058 96.4093 340.826H97.3831C97.3831 316.088 98.8787 284.451 100.375 258.993C101.123 246.266 101.871 235.085 102.432 227.086C102.713 223.086 102.947 219.882 103.11 217.679C103.192 216.577 103.256 215.725 103.3 215.148C103.322 214.86 103.339 214.641 103.35 214.494L103.367 214.272Z" fill="#393E46" fill-opacity="0.19"/>
<path id="Path 90 (Stroke)_12" fill-rule="evenodd" clip-rule="evenodd" d="M93.6289 214.272C93.629 214.272 93.629 214.271 93.1435 214.234C92.6581 214.196 92.6581 214.196 92.658 214.197L92.6409 214.419C92.6296 214.566 92.6128 214.786 92.5908 215.074C92.547 215.651 92.4826 216.504 92.4008 217.606C92.2371 219.812 92.0032 223.017 91.7226 227.018C91.1613 235.019 90.413 246.204 89.6646 258.936C88.1681 284.398 86.671 316.058 86.671 340.826H87.6448C87.6448 316.088 89.1405 284.451 90.6368 258.993C91.3848 246.266 92.1329 235.085 92.694 227.086C92.9745 223.086 93.2083 219.882 93.3719 217.679C93.4537 216.577 93.518 215.725 93.5618 215.148C93.5837 214.86 93.6005 214.641 93.6118 214.494L93.6289 214.272Z" fill="#393E46" fill-opacity="0.19"/>
<path id="Path 90 (Stroke)_13" fill-rule="evenodd" clip-rule="evenodd" d="M83.8906 214.272C83.8907 214.272 83.8907 214.271 83.4053 214.234C82.9198 214.196 82.9198 214.196 82.9198 214.197L82.9026 214.419C82.8913 214.566 82.8745 214.786 82.8525 215.074C82.8087 215.651 82.7444 216.504 82.6625 217.606C82.4988 219.812 82.2649 223.017 81.9843 227.018C81.423 235.019 80.6747 246.204 79.9264 258.936C78.4298 284.398 76.9327 316.058 76.9327 340.826H77.9065C77.9065 316.088 79.4022 284.451 80.8985 258.993C81.6466 246.266 82.3946 235.085 82.9557 227.086C83.2362 223.086 83.47 219.882 83.6336 217.679C83.7154 216.577 83.7797 215.725 83.8235 215.148C83.8454 214.86 83.8622 214.641 83.8735 214.494L83.8906 214.272Z" fill="#393E46" fill-opacity="0.19"/>
<path id="Path 90 (Stroke)_14" fill-rule="evenodd" clip-rule="evenodd" d="M74.1533 214.272C74.1534 214.272 74.1534 214.271 73.668 214.234C73.1825 214.196 73.1825 214.196 73.1824 214.197L73.1653 214.419C73.154 214.566 73.1372 214.786 73.1152 215.074C73.0714 215.651 73.0071 216.504 72.9252 217.606C72.7615 219.812 72.5276 223.017 72.247 227.018C71.6857 235.019 70.9374 246.204 70.1891 258.936C68.6925 284.398 67.1954 316.058 67.1954 340.826H68.1692C68.1692 316.088 69.6649 284.451 71.1612 258.993C71.9093 246.266 72.6573 235.085 73.2184 227.086C73.4989 223.086 73.7327 219.882 73.8963 217.679C73.9781 216.577 74.0424 215.725 74.0862 215.148C74.1081 214.86 74.1249 214.641 74.1362 214.494L74.1533 214.272Z" fill="#393E46" fill-opacity="0.19"/>
</g>
</g>
</g>
<g id="Group 8">
<path id="Rectangle_8" fill-rule="evenodd" clip-rule="evenodd" d="M48.8361 229.891H7.93685L13.4211 285.452H54.3203L48.8361 229.891Z" fill="#39C4FF"/>
<path id="Rectangle_9" fill-rule="evenodd" clip-rule="evenodd" d="M46.4015 229.89H5.50228L10.9865 285.451H51.8857L46.4015 229.89Z" fill="#393E46"/>
<path id="Oval_6" fill-rule="evenodd" clip-rule="evenodd" d="M25.7088 242.562C24.2298 242.562 23.0309 241.362 23.0309 239.882C23.0309 238.401 24.2298 237.201 25.7088 237.201C27.1878 237.201 28.3867 238.401 28.3867 239.882C28.3867 241.362 27.1878 242.562 25.7088 242.562Z" fill="white"/>
</g>
<path id="Path 55" fill-rule="evenodd" clip-rule="evenodd" d="M11.964 271.439C11.964 271.439 5.48145 269.652 3.8691 266.937C2.55308 264.722 4.58031 255.082 5.36992 251.613C5.54549 250.842 6.14303 250.244 6.91047 250.052L18.3854 247.189C19.1936 246.987 20.0123 247.479 20.2136 248.287C20.3917 249.002 20.0306 249.74 19.3553 250.034C16.6714 251.205 10.342 253.981 11.0425 253.806C11.7062 253.641 18.0004 253.108 21.1197 252.85C22.1208 252.768 23.0327 253.424 23.2754 254.398C23.5494 255.498 22.8801 256.612 21.7803 256.887L12.3933 259.229L19.3486 260.54C20.4789 260.753 21.1767 261.897 20.8489 263C20.6283 263.741 19.9884 264.281 19.2203 264.373L9.44435 265.546L16.8922 268.407C17.7148 268.723 18.158 269.616 17.9118 270.462C17.6911 271.221 16.9759 271.726 16.1875 271.681L11.964 271.439Z" fill="#FE9C9A"/>
<path id="Path 57" fill-rule="evenodd" clip-rule="evenodd" d="M182.575 291.833L157.5 275.217L150.216 283.993L86.5213 251.897C85.4587 251.361 84.343 250.939 83.1924 250.635L64.0322 245.588C62.9034 245.29 61.7987 246.141 61.7987 247.309C61.7987 247.984 62.1807 248.601 62.785 248.902L72.5603 253.772V259.002C72.5603 263.364 75.136 267.314 79.1271 269.073L80.653 269.745C83.2965 270.91 86.3601 270.581 88.6954 268.881L129.01 308.125C133.208 312.211 138.628 314.81 144.442 315.525C152.678 316.538 160.919 313.681 166.761 307.788L182.575 291.833Z" fill="#FE9C9A"/>
</g>
<g id="Man - face 1">
<path id="Path 5" fill-rule="evenodd" clip-rule="evenodd" d="M114.979 170.182L115.629 196.193C115.789 202.581 121.013 207.676 127.402 207.676V216.701C127.402 216.701 120.217 229.461 128.946 233.056C137.675 236.652 150.215 219.528 150.215 219.528L146.801 174.091L128.946 164.934L114.979 170.182Z" fill="#FE9C9A"/>
<path id="Path 12" fill-rule="evenodd" clip-rule="evenodd" d="M119.876 194.281L125.337 193.238C125.337 193.238 124.469 196.741 122.555 196.707C120.641 196.674 119.876 194.281 119.876 194.281Z" fill="white"/>
<path id="Path 10" d="M118.42 181.453C118.441 181.238 118.284 181.048 118.07 181.028C117.856 181.007 117.667 181.165 117.646 181.38L116.784 190.576H120.284C120.499 190.576 120.673 190.401 120.673 190.185C120.673 189.969 120.499 189.794 120.284 189.794H117.638L118.42 181.453Z" fill="#393E46"/>
<path id="Rectangle_10" fill-rule="evenodd" clip-rule="evenodd" d="M125.171 176.531C125.152 175.993 124.701 175.569 124.163 175.588L121.448 175.684C120.91 175.703 120.49 176.157 120.509 176.694C120.528 177.232 120.979 177.656 121.516 177.637L124.232 177.541C124.769 177.522 125.189 177.068 125.171 176.531Z" fill="#393E46"/>
<path id="Rectangle_11" fill-rule="evenodd" clip-rule="evenodd" d="M117.785 176.922C117.766 176.384 117.315 175.96 116.778 175.979L114.062 176.074C113.525 176.093 113.104 176.547 113.123 177.084C113.142 177.622 113.593 178.046 114.131 178.027L116.846 177.932C117.383 177.913 117.804 177.459 117.785 176.922Z" fill="#393E46"/>
<path id="Path 11 (Stroke)" fill-rule="evenodd" clip-rule="evenodd" d="M137.977 178.922C137.902 179.123 138.003 179.346 138.202 179.422L138.207 179.424C138.212 179.426 138.223 179.431 138.238 179.438C138.267 179.453 138.312 179.478 138.364 179.514C138.47 179.587 138.599 179.702 138.701 179.874C138.89 180.192 139.044 180.812 138.496 181.946C138.402 182.14 138.483 182.373 138.676 182.466C138.87 182.56 139.103 182.479 139.197 182.286C139.826 180.986 139.728 180.078 139.371 179.476C139.199 179.187 138.982 178.994 138.808 178.874C138.721 178.813 138.644 178.77 138.586 178.741C138.557 178.727 138.533 178.716 138.514 178.708C138.505 178.704 138.497 178.701 138.491 178.698L138.483 178.695L138.48 178.694L138.479 178.693L138.478 178.693C138.478 178.693 138.477 178.693 138.342 179.058L138.477 178.693C138.276 178.618 138.052 178.721 137.977 178.922Z" fill="#393E46"/>
<path id="Oval_7" fill-rule="evenodd" clip-rule="evenodd" d="M131.364 179.854C131.364 183.091 128.754 185.716 125.533 185.716C122.313 185.716 119.702 183.091 119.702 179.854C119.702 176.616 122.313 173.991 125.533 173.991C128.754 173.991 131.364 176.616 131.364 179.854ZM120.48 179.854C120.48 182.66 122.742 184.934 125.533 184.934C128.324 184.934 130.587 182.66 130.587 179.854C130.587 177.047 128.324 174.773 125.533 174.773C122.742 174.773 120.48 177.047 120.48 179.854Z" fill="white"/>
<g id="Group 4">
<path id="Oval_8" fill-rule="evenodd" clip-rule="evenodd" d="M117.562 180.244C117.562 183.482 114.952 186.107 111.732 186.107C108.511 186.107 105.901 183.482 105.901 180.244C105.901 177.006 108.511 174.381 111.732 174.381C114.952 174.381 117.562 177.006 117.562 180.244ZM106.678 180.244C106.678 183.05 108.941 185.325 111.732 185.325C114.523 185.325 116.785 183.05 116.785 180.244C116.785 177.438 114.523 175.163 111.732 175.163C108.941 175.163 106.678 177.438 106.678 180.244Z" fill="white"/>
<path id="Path" d="M115.533 184.69C115.696 184.549 115.714 184.302 115.574 184.139C115.434 183.975 115.188 183.957 115.026 184.097C114.115 184.885 112.958 185.325 111.732 185.325C108.941 185.325 106.678 183.05 106.678 180.244C106.678 177.438 108.941 175.163 111.732 175.163C111.947 175.163 112.161 175.176 112.372 175.203C112.585 175.23 112.78 175.079 112.806 174.865C112.833 174.65 112.683 174.455 112.47 174.428C112.226 174.397 111.98 174.381 111.732 174.381C108.511 174.381 105.901 177.006 105.901 180.244C105.901 183.482 108.511 186.107 111.732 186.107C113.146 186.107 114.483 185.598 115.533 184.69Z" fill="#393E46"/>
</g>
<path id="Oval_9" fill-rule="evenodd" clip-rule="evenodd" d="M115.486 180.634C115.057 180.634 114.709 180.284 114.709 179.853C114.709 179.421 115.057 179.071 115.486 179.071C115.916 179.071 116.264 179.421 116.264 179.853C116.264 180.284 115.916 180.634 115.486 180.634Z" fill="#393E46"/>
<path id="Oval_10" fill-rule="evenodd" clip-rule="evenodd" d="M123.556 180.634C123.126 180.634 122.778 180.284 122.778 179.853C122.778 179.421 123.126 179.071 123.556 179.071C123.985 179.071 124.333 179.421 124.333 179.853C124.333 180.284 123.985 180.634 123.556 180.634Z" fill="#393E46"/>
<path id="Path 6" fill-rule="evenodd" clip-rule="evenodd" d="M148.405 196.986L139.302 184.117L141.376 181.803C142.365 180.7 142.493 179.071 141.688 177.827C140.835 176.511 139.17 175.981 137.714 176.563L137.203 176.767C136.271 177.14 135.597 177.967 135.42 178.956L134.782 182.531C134.675 183.129 134.156 183.563 133.549 183.563C132.89 183.563 132.342 183.053 132.284 182.396C132.104 180.35 131.654 176.267 130.89 175.561C129.863 174.612 127.347 175.327 126.854 168.865C123.444 171.066 114.979 170.182 114.979 170.182L115.203 177.722C115.203 177.722 108.949 171.636 108.949 165.9C108.949 160.163 113.967 162.012 113.967 162.012C113.967 162.012 111.832 151.348 118.9 153.144C125.967 154.94 138.557 152.217 146.801 162.012C156.333 164.55 154.716 169.3 153.729 174.149C152.742 178.997 148.405 196.986 148.405 196.986Z" fill="#393E46"/>
<path id="Path 7" fill-rule="evenodd" clip-rule="evenodd" d="M127.402 207.675H138.062L127.402 212.357V207.675Z" fill="#393E46"/>
</g>
</g>
</g>
</svg>
